<svg id="Layer_1" data-name="Layer 1" xmlns="http://www.w3.org/2000/svg" viewBox="0 0 500 500"><defs><style>.cls-1{fill:#039;}</style></defs><title>lonza-120-years-120-box</title><path class="cls-1" d="M48.7,240.67v500h500v-500ZM200.22,562.5h-84.5v-5h17.54V431.26H115.72v-5h14.65a197.61,197.61,0,0,0,24-1.66q13.42-1.66,28.82-9.89V557.47h17Zm131-21q-9.89,15.24-20,19.36T293.5,565q-3.75,0-14.65-1.82-26.74-4.39-35.72-4.39a31,31,0,0,0-21.39,7.91L217.35,564a57.35,57.35,0,0,1,11.82-23.69q8.61-10.32,16.2-15.67,17.33-12.41,22.67-17a59.15,59.15,0,0,0,9.89-11.12A46.7,46.7,0,0,0,284.73,481q2.24-8.93,2.25-22.62,0-14-2.73-20.8a22.68,22.68,0,0,0-9.47-11,27.89,27.89,0,0,0-15-4.17,33.75,33.75,0,0,0-13.42,3.16,39.13,39.13,0,0,0-11.82,7.65l.43.43a25.62,25.62,0,0,1,8.34-1.39q9.3,0,15,5.62T264,452.76a22.25,22.25,0,0,1-6.26,16.1,20.89,20.89,0,0,1-15.67,6.47,22.62,22.62,0,0,1-16.26-6.74,21.35,21.35,0,0,1-7-15.83q0-15.29,15.35-26.26t39.84-11q31.12,0,49.2,13.16t18.08,35.4q0,15.3-8.88,24.92a64.11,64.11,0,0,1-22.84,15.46,154.44,154.44,0,0,1-27.65,8.72q-9.52,2.14-14.28,3.64a29,29,0,0,0-9.14,4.92l.43.43a27.92,27.92,0,0,1,13.58-3.1q5.24,0,20.32,1.39,15.4,1.28,20.86,1.28,12.2,0,17.81-1.66t10.22-10.21l4.81,2.89A171.67,171.67,0,0,1,331.2,541.48Zm145.51,3.58q-18.29,21-47.38,21-27.59,0-46.15-21.28t-18.56-53.26q0-31.87,19-53.91t46.15-22q27.49,0,46.36,21.6T495,490.41Q495,524.1,476.71,545.06Z" transform="translate(-48.7 -240.67)"/><path class="cls-1" d="M430,421.21q-5.56,0-7.81,3.32t-2.25,10.91V546.77q0,7.59,2.09,10.8t7.33,3.21q6.2,0,8.45-3t2.25-11v-112q0-7.38-2.3-10.48T430,421.21Z" transform="translate(-48.7 -240.67)"/></svg>