<?xml version="1.0" encoding="UTF-8" standalone="no"?>
<!-- Created with Inkscape (http://www.inkscape.org/) -->

<svg
   xmlns:dc="http://purl.org/dc/elements/1.1/"
   xmlns:cc="http://creativecommons.org/ns#"
   xmlns:rdf="http://www.w3.org/1999/02/22-rdf-syntax-ns#"
   xmlns:svg="http://www.w3.org/2000/svg"
   xmlns="http://www.w3.org/2000/svg"
   version="1.0"
   width="750"
   height="600"
   id="svg2">
  <defs
     id="defs4" />
  <metadata
     id="metadata7">
    <rdf:RDF>
      <cc:Work
         rdf:about="">
        <dc:format>image/svg+xml</dc:format>
        <dc:type
           rdf:resource="http://purl.org/dc/dcmitype/StillImage" />
        <dc:title></dc:title>
      </cc:Work>
    </rdf:RDF>
  </metadata>
  <rect
     width="750"
     height="600"
     rx="37.5"
     ry="37.5"
     x="-4.2410278e-08"
     y="-2.2558593e-06"
     id="rect2856"
     style="fill:#000000;fill-opacity:1;stroke:none" />
  <path
     d="m 668.07527,191.10186 -0.62586,-0.52229 1.10719,-1.42537 1.05819,-1.4725 1.01168,-1.56805 0.91492,-1.56807 0.81815,-1.66354 0.81691,-1.66233 0.67361,-1.66231 0.67364,-1.75786 0.57809,-1.75785 0.48135,-1.75786 0.43358,-1.80498 0.33679,-1.805 0.28906,-1.80499 0.1923,-1.85333 0.14326,-1.85212 0.0478,-1.80628 -0.0478,-1.7094 -0.0955,-1.7095 -0.19229,-1.71068 -0.24001,-1.70949 -0.3381,-1.70948 -0.38455,-1.66231 -0.4336,-1.71067 -0.53035,-1.66232 -0.57686,-1.61524 -0.62587,-1.61515 -0.67361,-1.56805 -0.76912,-1.56803 -0.81815,-1.51968 -0.8659,-1.47254 -0.91493,-1.42534 -0.96268,-1.37825 -0.43358,-0.47511 -0.38582,-0.52231 -0.33682,-0.5694 -0.28903,-0.5694 -0.24003,-0.6178 -0.14328,-0.61775 -0.14456,-0.61779 0,-0.66495 0,-0.66491 0.0955,-0.6178 0.19228,-0.61778 0.1923,-0.57065 0.28776,-0.56939 0.33807,-0.5223 0.3368,-0.47513 0.43359,-0.47508 0.48133,-0.42799 0.4826,-0.3325 0.52908,-0.33245 0.57814,-0.28408 0.57684,-0.1898 0.62586,-0.18984 0.62585,-0.0954 0.67362,0 0.57686,0 0.57811,0.0954 0.52909,0.0956 0.53035,0.18981 0.52911,0.1898 0.48135,0.28534 0.48133,0.28531 0.4813,0.33245 0.38584,0.37961 0.38585,0.37962 0.38455,0.428 0.28907,0.47514 0.28779,0.52224 0.24001,0.47514 0.1923,0.57062 0.19228,0.52228 -0.33807,-1.32988 -0.33679,-1.37698 -0.43357,-1.32986 -0.48136,-1.32985 -0.53033,-1.32985 -0.57685,-1.3299 -0.6259,-1.2827 -0.62586,-1.2827 -0.72134,-1.23559 -0.72142,-1.23557 -0.81812,-1.23558 -0.81693,-1.14003 -0.86588,-1.1401 -0.8659,-1.14005 -0.9149,-1.0445 -0.96396,-1.04582 -2.11762,-1.89926 -2.16668,-1.71069 -2.2621,-1.66232 -2.30995,-1.51969 -2.35768,-1.37823 -2.4067,-1.2827 -2.45445,-1.14005 -2.50216,-1.04579 -2.54996,-0.90313 -2.59898,-0.76045 -2.59899,-0.66489 -2.64545,-0.56942 -2.64673,-0.42802 -2.64673,-0.28407 -2.69574,-0.1898 -2.69576,-0.0955 -2.69573,0.0484 -2.69574,0.18981 -2.64673,0.28528 -2.69573,0.42801 -2.64549,0.56944 -2.64673,0.61776 -2.59898,0.80759 -2.59769,0.90313 -2.55121,0.99737 -2.50221,1.14004 -2.45444,1.28274 -2.40544,1.37823 -2.4067,1.51966 -2.30988,1.61518 -2.26219,1.75786 -2.16663,1.8521 0.33679,-1.47252 0.24007,-1.42535 0.24129,-1.47251 0.14327,-1.42541 0.0967,-1.47251 0,-1.47252 0,-1.42535 -0.0967,-1.42541 -0.14327,-1.42537 -0.19229,-1.42415 -0.28907,-1.42538 -0.28779,-1.37823 -0.38582,-1.37702 -0.38457,-1.32985 -0.48135,-1.377 -0.53033,-1.32985 -0.57687,-1.28274 -0.62585,-1.28271 -0.67362,-1.23557 -0.72137,-1.23557 -0.7704,-1.18846 -0.8169,-1.18844 -0.86588,-1.14004 -0.91493,-1.14003 -0.96395,-1.04457 -1.01043,-1.04574 -1.05947,-0.99742 -1.10719,-0.99737 -1.15491,-0.90313 -1.155,-0.90312 -1.25172,-0.85473 -1.25045,-0.7592 -0.91493,-0.66494 -0.86591,-0.71333 -0.86589,-0.71203 -0.86591,-0.76048 -0.81689,-0.76046 -0.77041,-0.80756 -0.76911,-0.8076 -0.72265,-0.80759 -0.72139,-0.85472 -0.67361,-0.85474 -0.67362,-0.90312 -0.62461,-0.90312 -0.62587,-0.95026 -0.5781,-0.95024 -0.52909,-0.95026 -0.53036,-0.95023 -0.5291,-0.99743 -0.43357,-0.99736 -0.43358,-0.99744 -0.4336,-1.04453 -0.33679,-1.04574 -0.38583,-1.04456 -0.28781,-1.04453 -0.28777,-1.09291 -0.24129,-1.09293 -0.24007,-1.09289 -0.19101,-1.09291 -0.14453,-1.09293 -0.0967,-1.09169 -0.0955,-1.14003 -0.0477,-1.0917 0,-1.14001 0,-0.19481 0,-0.18977 -0.67362,0.71202 -0.67364,0.71333 -0.72134,0.71209 -0.72264,0.66492 -0.76913,0.66493 -0.76915,0.61777 -0.77042,0.61779 -0.81812,0.61779 -0.8169,0.56942 -0.81815,0.52227 -0.8169,0.57063 -0.8659,0.47514 -0.86591,0.47515 -0.91493,0.47511 -0.86586,0.47513 -0.91492,0.37963 -0.91495,0.42798 -0.96393,0.33242 -0.9149,0.37961 -0.96271,0.28534 -0.96262,0.33247 -0.96271,0.28408 -0.96391,0.23692 -0.96271,0.18983 -1.0104,0.23692 -0.96396,0.14267 -1.01044,0.14267 -1.01168,0.14264 -1.01041,0.0956 -1.01171,0.0484 -1.0104,0.0472 -1.01169,0.0471 -1.05819,-0.0471 -1.05946,-0.0956 -1.05944,-0.0956 -1.01044,-0.0471 -1.63754,-0.28532 -1.58855,-0.18982 -1.63631,-0.0956 -1.63628,-0.0484 -1.58854,0 -1.63757,0.0956 -1.58852,0.14265 -1.58851,0.23697 -1.54082,0.28531 -1.53952,0.33247 -1.54079,0.42799 -1.49304,0.47514 -1.44273,0.5694 -1.44404,0.56938 -1.44273,0.66495 -1.39499,0.71332 -1.34729,0.80759 -1.3472,0.80757 -1.29947,0.90312 -1.25176,0.95024 -1.20272,0.99742 -1.15494,1.04451 -1.155,1.09293 -1.05941,1.14007 -1.01168,1.18843 -1.01044,1.23554 -0.9149,1.28274 -0.91492,1.32987 -0.81818,1.37822 -0.76912,1.42415 -0.67364,1.47377 -0.67359,1.51965 -0.0478,-1.85213 -0.1445,-1.80496 -0.19228,-1.80622 -0.28783,-1.75783 -0.38579,-1.75788 -0.43358,-1.75784 -0.48135,-1.70947 -0.57811,-1.66232 -0.67364,-1.66232 -0.67362,-1.61521 -0.76914,-1.61516 -0.86588,-1.52088 -0.8659,-1.56804 -0.96268,-1.47252 -1.01042,-1.42538 -1.05946,-1.42541 -1.15496,-1.377 -1.15494,-1.32985 -1.25176,-1.23561 -1.25172,-1.23553 -1.34723,-1.18844 -1.34723,-1.14007 -1.44276,-1.04453 -1.44277,-1.04576 -1.49303,-0.95027 -1.54076,-0.90312 -1.58855,-0.80757 -1.63632,-0.80761 -1.63755,-0.71207 -1.68404,-0.61778 -1.73306,-0.5694 -1.78083,-0.52231 -0.57686,-0.0484 -0.62586,-0.14267 -0.52908,-0.18981 -0.57814,-0.23697 -0.52908,-0.28531 -0.48132,-0.33245 -0.43358,-0.3796 -0.43358,-0.42801 -0.38582,-0.42799 -0.3381,-0.47513 -0.28776,-0.52223 -0.28782,-0.56942 -0.19226,-0.52226 -0.14456,-0.6178 -0.0955,-0.56943 0,-0.6153 0,-0.66491 0.0955,-0.61783 0.19229,-0.61777 0.19228,-0.61777 0.28779,-0.52227 0.33808,-0.52228 0.33681,-0.52224 0.43358,-0.428 0.48132,-0.42799 0.48261,-0.3796 0.52911,-0.28535 0.57807,-0.28407 0.57687,-0.23815 0.62588,-0.14269 0.62584,-0.0956 0.67365,-0.0471 0.57682,0.0471 0.57811,0.0484 0.52911,0.14267 0.57811,0.18982 0.52911,0.1898 0.52905,0.23695 0.4826,0.2853 0.48136,0.28531 -1.15497,-0.8547 -1.15619,-0.85475 -1.20275,-0.76043 -1.20272,-0.75922 -1.2517,-0.71333 -1.29947,-0.71205 -1.29826,-0.61782 -1.29948,-0.56939 -1.34725,-0.56942 -1.34723,-0.47514 -1.39499,-0.47506 -1.34725,-0.38088 -1.39626,-0.33245 -1.39498,-0.28533 -1.39504,-0.23697 -1.39498,-0.1898 -2.84027,-0.14265 -2.79124,0 -2.79251,0.0955 -2.74352,0.28531 -2.74351,0.37961 -2.64668,0.47515 -2.64676,0.66494 -2.5977,0.76043 -2.59899,0.85476 -2.50219,0.99737 -2.45445,1.09292 -2.35766,1.23555 -2.35892,1.28276 -2.26219,1.42536 -2.21437,1.52088 -2.11766,1.61524 -2.06862,1.71066 -1.97311,1.85216 -1.87634,1.85335 -1.82984,1.9948 -1.68405,2.0903 -1.6363,2.13869 -1.54078,2.23294 -1.44399,2.28014 -1.29826,2.37564 -1.2517,2.46991 -1.10723,2.51706 -1.01044,2.56544 -0.8659,2.66095 -0.77038,2.66097 -0.62585,2.75523 -0.48133,2.84952 -0.38457,-1.47251 -0.38582,-1.42538 -0.48136,-1.37701 -0.48135,-1.37698 -0.57806,-1.37827 -0.62588,-1.28271 -0.67362,-1.28271 -0.72267,-1.28271 -0.72135,-1.18847 -0.81814,-1.1884 -0.8659,-1.18723 -0.91493,-1.0929 -0.91493,-1.09293 -0.96266,-1.04454 -1.01044,-0.99737 -1.05819,-0.99739 -1.1072,-0.90313 -1.15498,-0.9031 -1.15491,-0.80761 -1.155,-0.8076 -1.25172,-0.76041 -1.25173,-0.66494 -1.29947,-0.66492 -1.2995,-0.61779 -1.34723,-0.56942 -1.34726,-0.47511 -1.39626,-0.47514 -1.395,-0.37961 -1.444,-0.33245 -1.444,-0.28534 -1.49177,-0.23695 -1.49179,-0.18981 -1.10718,-0.18979 -1.10722,-0.23692 -1.10719,-0.23698 -1.05819,-0.33368 -1.10719,-0.33247 -1.05946,-0.33373 -1.05819,-0.42672 -1.01043,-0.42799 -1.05819,-0.47514 -1.01044,-0.47512 -1.01041,-0.52227 -0.96268,-0.57063 -0.96271,-0.56942 -0.96263,-0.61778 -0.91493,-0.61779 -0.91493,-0.66494 -0.91493,-0.71207 -0.86588,-0.71204 -0.81817,-0.76048 -0.8659,-0.76045 -0.77039,-0.76045 -0.81812,-0.8547 -0.72268,-0.80766 -0.77036,-0.85466 -0.67365,-0.90313 -0.67361,-0.90315 -0.67362,-0.90313 -0.62585,-0.95021 -0.57687,-0.95027 -0.57684,-0.99738 -0.52908,-0.99742 -0.48135,-0.99738 -0.33682,1.09293 -0.38582,1.04577 -0.38455,1.04456 -0.38585,1.0445 -0.48133,1.0458 -0.48135,1.04453 -0.4813,0.99738 -0.57689,0.95026 -0.57686,0.99737 -0.57683,0.95029 -0.62587,0.90313 -0.67364,0.95021 -0.67359,0.85471 -0.72139,0.90314 -0.72137,0.85474 -0.77039,0.80758 -0.7704,0.80761 -0.81815,0.80757 -0.81815,0.75922 -0.8659,0.71333 -0.8659,0.71205 -0.9149,0.66492 -0.91494,0.66492 -0.91492,0.66495 -0.96266,0.5694 -0.96268,0.57065 -1.01044,0.56944 -1.01043,0.52223 -1.01041,0.47515 -1.05819,0.42676 -1.05822,0.42796 -1.0594,0.38084 -1.58857,0.47513 -1.58852,0.52227 -1.49176,0.61778 -1.49304,0.61779 -1.44276,0.71209 -1.39626,0.80759 -1.34726,0.80757 -1.34723,0.85475 -1.25172,0.95023 -1.25173,0.99743 -1.15496,0.99738 -1.15498,1.0929 -1.05816,1.14006 -1.05819,1.14008 -0.96271,1.23556 -0.96266,1.23557 -0.86589,1.28274 -0.81815,1.32982 -0.76915,1.32987 -0.72262,1.37699 -0.62585,1.42543 -0.62587,1.47252 -0.52914,1.47249 -0.43356,1.52087 -0.43233,1.51968 -0.3368,1.52091 -0.24128,1.56802 -0.19228,1.61524 -0.14454,1.56801 -0.0478,1.61517 0,1.66231 0.0968,1.61522 -0.72261,-1.37701 -0.76914,-1.32985 -0.77041,-1.32986 -0.86592,-1.28275 -0.9149,-1.23554 -0.91491,-1.18843 -0.9627,-1.18847 -1.05819,-1.14004 -1.05945,-1.14006 -1.05818,-1.04577 -1.15494,-1.04454 -1.15497,-0.9974 -1.20272,-0.95024 -1.25173,-0.90311 -1.25172,-0.85476 -1.2995,-0.85473 -1.29948,-0.76043 -1.34725,-0.75922 -1.39499,-0.66489 -1.39625,-0.66496 -1.39502,-0.61778 -1.44398,-0.52231 -1.44401,-0.52223 -1.49179,-0.42797 -1.49176,-0.42801 -1.49177,-0.33248 -1.54082,-0.33245 -1.54076,-0.23694 -1.54077,-0.18981 -1.53954,-0.14264 -1.58854,-0.0956 -1.58851,0 -0.96272,0 -1.01041,0.0471 -1.05944,0.0484 -1.01045,0.0955 -1.01042,0.0955 -1.01043,0.14267 -1.01044,0.0956 -0.9149,0.14261 -0.57686,0.1898 -0.62589,0.14267 -0.57683,0.0955 -0.62587,0.0472 -0.67361,-0.0472 -0.62586,-0.0955 -0.62586,-0.1898 -0.57684,-0.18978 -0.57686,-0.28532 -0.52911,-0.28533 -0.48135,-0.37962 -0.4813,-0.428 -0.38458,-0.42673 -0.38584,-0.52227 -0.33677,-0.52228 -0.28785,-0.5694 -0.19229,-0.5694 -0.14451,-0.61777 -0.0968,-0.61779 -0.0477,-0.66492 0.0477,-0.61781 0.0968,-0.61779 0.14451,-0.56942 0.19229,-0.56942 0.28785,-0.52222 0.33677,-0.47515 0.33682,-0.42677 0.4336,-0.42799 0.4813,-0.33242 0.48135,-0.33247 0.52911,-0.33248 0.57686,-0.23697 0.57684,-0.1898 0.62586,-0.18978 0.62586,-0.14264 0.62584,-0.0956 0.43235,-0.0471 0.48136,0 0.43357,-0.0484 0.43232,0 -2.83901,0.0955 -2.83902,0.14267 -2.83902,0.14267 -2.84027,0.14264 -2.839,0.23697 -2.79126,0.23694 -2.83902,0.28534 -2.79124,0.37958 -2.79124,0.52229 -2.69576,0.66494 -2.59895,0.85471 -2.45448,1.04454 -2.40666,1.18843 -2.26219,1.32987 -2.16538,1.47251 -2.0699,1.61516 -1.92538,1.75788 -1.87762,1.90053 -1.73177,1.99476 -1.58855,2.09034 -1.54076,2.23291 -1.39501,2.28013 -1.29951,2.37564 -1.15496,2.46991 -1.05944,2.56542 -0.96266,2.61259 -0.81815,2.66097 -0.72264,2.70811 -0.57683,2.75523 -0.48136,2.80239 -0.33679,2.80238 -0.24006,2.85076 -0.0968,2.89786 0,2.85079 0.14456,2.89792 0.24001,2.84949 0.38586,2.85079 0.52908,2.84949 0.62588,2.80237 0.77037,2.75524 -1.15494,-0.95023 -1.20272,-0.85472 -1.25173,-0.8076 -1.25174,-0.76047 -1.29949,-0.7133 -1.29947,-0.66492 -1.34726,-0.56943 -1.34723,-0.57067 -1.34725,-0.47507 -1.39498,-0.428 -1.39502,-0.37964 -1.39623,-0.33244 -1.44404,-0.28534 -1.395,-0.23692 -1.44402,-0.14266 -1.44398,-0.0956 -1.395,-0.0956 -1.44405,0 -1.44398,0.0956 -1.44403,0.0956 -1.44398,0.14266 -1.44277,0.23692 -1.39626,0.28534 -1.44403,0.33244 -1.39499,0.37964 -1.39625,0.428 -1.34726,0.52224 -1.34723,0.56941 -1.34726,0.61776 -1.34723,0.66496 -1.29947,0.71331 -1.25173,0.76045 -1.05946,0.52226 -1.01044,0.52228 -1.05819,0.47513 -1.10719,0.42799 -1.10721,0.42799 -1.10719,0.33242 -1.15497,0.3325 -1.15494,0.33245 -1.15497,0.2841 -1.15497,0.23821 -1.20269,0.1898 -1.15498,0.14264 -1.202694,0.14267 -1.155,0.0954 -1.202695,0.0472 -1.154969,0 -1.058162,0 -1.10719,-0.0472 -1.058188,-0.0484 -1.107217,-0.14265 -1.059463,-0.14269 -1.105942,-0.14265 -1.059463,-0.18978 -1.05819,-0.23697 -1.059408,-0.23817 -1.058217,-0.28408 -1.010408,-0.3325 -1.058189,-0.33242 -1.010436,-0.38084 -1.010436,-0.42675 -1.010436,-0.42801 -0.962682,-0.42798 0.625888,1.66232 0.529082,1.75783 0.529107,1.75788 0.433575,1.8521 0.336794,1.85338 0.24004,1.8521 0.09681,0.95029 0.04773,0.90312 0.049,0.95023 0,0.90314 0,1.28273 -0.09672,1.32982 -0.09681,1.28273 -0.19226,1.32984 -0.240068,1.28274 -0.240013,1.32984 -0.336848,1.28273 -0.336766,1.28273 -0.384575,1.23556 -0.433574,1.28274 -0.481355,1.23554 -0.529108,1.18721 -0.529081,1.18844 -0.576835,1.14003 -0.625861,1.1401 -0.673642,1.0929 -0.914902,1.32988 -0.91493,1.37823 -0.818176,1.37698 -0.722614,1.42538 -0.721368,1.42413 -0.576862,1.47377 -0.576834,1.47251 -0.481354,1.52092 -0.384548,1.47251 -0.384574,1.56805 -0.241288,1.51964 -0.240067,1.52092 -0.144507,1.56804 -0.04778,1.52091 -0.049,1.56806 0.049,1.56807 0.144534,1.52085 0.192286,1.51968 0.241288,1.56803 0.287821,1.52089 0.385821,1.51966 0.432301,1.47377 0.529107,1.47253 0.576862,1.4725 0.625861,1.42544 0.721368,1.42535 0.770396,1.377 0.818149,1.377 0.914902,1.32986 0.962683,1.2827 1.010435,1.28274 1.10719,1.23555 -0.497671,0 -0.433574,0 -0.481327,0 -0.385849,0 -1.82853,0 -1.733105,0.14268 -1.780831,0.18981 -1.733051,0.23694 -1.731804,0.2841 -1.68405,0.38082 -1.733078,0.47513 -1.636298,0.52226 -1.636297,0.56941 -1.636298,0.6178 -1.588543,0.71332 -1.540764,0.7592 -1.491764,0.8076 -1.493036,0.85472 -1.491764,0.95027 -1.39501,0.95022 -1.396257,1.04579 -1.299477,1.04454 -1.299475,1.14005 -1.251751,1.18843 -1.203969,1.23559 -1.154943,1.23558 -1.107244,1.32986 -1.058161,1.377 -1.010436,1.37822 -0.962655,1.42541 -0.865902,1.47252 -0.818149,1.51964 -0.770423,1.56804 -0.721368,1.56806 -0.625861,1.61518 -0.576862,1.66232 -0.144506,0.5694 -0.144534,0.56943 -0.192287,0.52224 -0.289041,0.52229 -0.287821,0.47511 -0.336794,0.47511 -0.385821,0.42801 -0.432327,0.37961 -0.433602,0.33246 -0.481327,0.33245 -0.529082,0.28533 -0.529108,0.23695 -0.529108,0.18981 -0.576834,0.0956 -0.576862,0.0954 -0.625861,0.0472 -0.673615,-0.0472 -0.625861,-0.0954 -0.625862,-0.14269 -0.576862,-0.2369 -0.576834,-0.23696 -0.529108,-0.33247 -0.481301,-0.37959 -0.481354,-0.428 -0.385821,-0.42798 -0.384574,-0.52227 -0.336821,-0.52229 -0.289041,-0.52224 -0.192287,-0.61779 -0.144562,-0.5694 -0.09675,-0.66493 -0.04776,-0.66495 0,-0.5694 0.09678,-0.61778 0.144534,-0.61783 0.192261,-0.56938 0.240067,-0.56943 0.28904,-0.52224 0.336821,-0.52227 0.336794,-0.52226 -0.914929,1.04453 -0.914902,1.09292 -0.865902,1.14006 -0.818148,1.18844 -0.769148,1.18842 -0.722614,1.23558 -0.721369,1.23559 -0.625889,1.28272 -0.625861,1.32983 -0.578108,1.28275 -0.481328,1.37701 -0.481355,1.32983 -0.433574,1.37701 -0.384547,1.37824 -0.289067,1.37699 -0.289041,1.37699 -0.2878214,2.75524 -0.144534,2.75524 -0.049,2.75525 0.144506,2.75524 0.241314,2.7081 0.3845764,2.65973 0.52908,2.61256 0.673642,2.61256 0.770395,2.56548 0.865875,2.51825 1.010463,2.46991 1.154943,2.4228 1.251749,2.37561 1.394956,2.32727 1.491791,2.23297 1.588543,2.18584 1.684051,2.13746 1.829831,2.04193 1.925365,1.94764 2.020844,1.90052 2.117653,1.80499 2.213132,1.70946 2.309938,1.61518 2.406693,1.51965 2.503446,1.47377 2.59898,1.32985 2.695733,1.1872 2.743487,1.14004 2.888047,0.99863 2.935774,0.90313 2.983526,0.75919 3.128061,0.66495 -1.202696,0.33248 -1.203996,0.38084 -1.154943,0.47512 -1.154969,0.47514 -1.154943,0.56939 -1.15497,0.61779 -1.107216,0.61781 -1.107189,0.71206 -1.107189,0.7592 -1.058189,0.80759 -1.059463,0.80759 -1.010436,0.90313 -1.010436,0.90312 -0.962655,0.95021 -0.962683,0.99745 -0.914929,1.04577 -0.865875,1.0929 -0.818175,1.0929 -0.818149,1.14007 -0.770396,1.18718 -0.721368,1.18846 -0.673614,1.23434 -0.673642,1.28268 -0.578082,1.28274 -0.576861,1.32987 -0.481328,1.32985 -0.481327,1.37701 -0.385848,1.37698 -0.336794,1.42415 -0.336794,1.42535 -0.240068,1.47254 -0.144506,1.42541 -0.240041,1.14003 -0.240068,1.09293 -0.28904,1.04577 -0.287794,1.0917 -0.336821,1.04574 -0.385821,1.04579 -0.433575,1.04451 -0.433573,1.04579 -0.481355,0.99863 -0.481329,0.9974 -0.57686,0.99863 -0.529082,0.95026 -0.625888,0.95026 -0.625861,0.95023 -0.625835,0.90313 -0.673642,0.90312 -0.721368,0.85473 -0.722615,0.85473 -0.769149,0.85473 -0.770395,0.80759 -0.818148,0.75922 -0.818149,0.7592 -0.865903,0.76046 -0.865901,0.71206 -0.865929,0.71208 -0.962655,0.6649 -0.91493,0.61781 -0.962681,0.61779 -0.962655,0.61778 -1.010464,0.52229 -1.010408,0.52225 -1.058189,0.52351 1.107189,0.33248 1.107216,0.38084 1.058162,0.38084 1.058188,0.42672 1.010436,0.4764 1.010463,0.47512 1.010436,0.52226 1.010408,0.52228 0.962682,0.57065 0.962684,0.61781 0.914928,0.61653 0.914902,0.66489 0.914903,0.66495 0.865928,0.71332 0.865902,0.71204 0.818149,0.75925 0.818122,0.80759 0.770422,0.7592 0.770368,0.85472 0.721395,0.85473 0.721368,0.85476 0.673616,0.85473 0.673642,0.9031 0.625861,0.95026 0.576835,0.95023 0.576861,0.95026 0.576834,0.99863 0.481356,0.9974 0.52908,0.99865 0.433602,1.0458 0.433574,1.04453 0.384575,1.04574 0.433573,1.56805 0.529109,1.56804 0.576834,1.47378 0.625862,1.47251 0.721368,1.42535 0.770395,1.42415 0.818148,1.3299 0.865903,1.28271 0.96271,1.28145 0.962628,1.23557 1.059463,1.18721 1.058189,1.09293 1.107216,1.0929 1.202696,1.04576 1.203996,0.99743 1.251723,0.9031 1.299504,0.90309 1.347202,0.80759 1.347258,0.75923 1.394982,0.71332 1.444038,0.66492 1.44401,0.56939 1.491763,0.52354 1.493037,0.47512 1.539517,0.428 1.588545,0.33245 1.588543,0.28408 1.588545,0.18981 1.588543,0.14267 1.636271,0.0943 1.636297,0 1.684051,-0.0943 0.625861,0.47511 -1.105942,1.47378 -1.059436,1.47251 -0.962683,1.56802 -0.962655,1.56805 -0.818176,1.61641 -0.818148,1.70949 -0.721341,1.66358 -0.62589,1.75785 -0.57686,1.75657 -0.481301,1.75788 -0.433602,1.80493 -0.384574,1.80499 -0.24004,1.80625 -0.241314,1.85213 -0.0955,1.80499 -0.049,1.85213 0.049,1.71068 0.0955,1.71069 0.192286,1.70949 0.240068,1.71074 0.336767,1.71069 0.336848,1.66232 0.481328,1.71069 0.481354,1.66232 0.576835,1.61644 0.673614,1.61516 0.673615,1.56805 0.770396,1.56804 0.818149,1.52089 0.865901,1.47251 0.91493,1.42541 0.962682,1.37701 0.4323,0.47511 0.385849,0.52226 0.336793,0.57065 0.287821,0.56941 0.241288,0.61776 0.144533,0.61782 0.09675,0.61781 0.04778,0.66492 -0.04778,0.66492 -0.09675,0.61653 -0.144533,0.61779 -0.192288,0.57065 -0.28904,0.56944 -0.336821,0.52349 -0.384574,0.47514 -0.385822,0.47512 -0.481355,0.42798 -0.481327,0.33245 -0.529081,0.33376 -0.576834,0.28405 -0.576862,0.18981 -0.625861,0.1898 -0.625889,0.0943 -0.673588,0 -0.576861,0 -0.578109,-0.0943 -0.529107,-0.0955 -0.529109,-0.18855 -0.529053,-0.1898 -0.481355,-0.28534 -0.481355,-0.28405 -0.481328,-0.33251 -0.384574,-0.33368 -0.384575,-0.42798 -0.38582,-0.42798 -0.287794,-0.428 -0.289041,-0.47515 -0.241314,-0.5421 -0.240014,-0.52226 -0.144533,-0.52351 0.336821,1.32985 0.336794,1.37701 0.432327,1.32982 0.481328,1.32988 0.529108,1.32989 0.529081,1.32982 0.625861,1.28271 0.673615,1.2356 0.721396,1.23435 0.721368,1.23554 0.818149,1.18725 0.818148,1.18719 0.865929,1.14005 0.865875,1.09292 0.914929,1.04573 0.962655,1.04582 2.117625,1.89924 2.165406,1.75784 2.262159,1.61519 2.309939,1.52092 2.357639,1.37698 2.406719,1.2827 2.454419,1.14008 2.502226,1.04579 2.551204,0.90312 2.551234,0.8076 2.64673,0.66491 2.59898,0.52226 2.64673,0.428 2.69574,0.33245 2.69573,0.18979 2.6467,0.0472 2.69579,-0.0472 2.69446,-0.18979 2.69573,-0.28408 2.64677,-0.42798 2.69573,-0.52228 2.59897,-0.66492 2.64671,-0.76046 2.54998,-0.90315 2.55117,-1.04448 2.50223,-1.14006 2.50347,-1.2356 2.40667,-1.42413 2.35769,-1.47374 2.30988,-1.66231 2.26219,-1.71075 2.16538,-1.9005 -0.28904,1.47378 -0.2878,1.42414 -0.19228,1.47372 -0.14453,1.47377 -0.0968,1.42415 -0.049,1.47377 0.049,1.42415 0.0968,1.42409 0.14453,1.42543 0.19228,1.42416 0.24002,1.42535 0.33682,1.377 0.33682,1.37701 0.43357,1.32985 0.48134,1.37701 0.5291,1.32981 0.57686,1.28277 0.62587,1.28271 0.67361,1.23432 0.72264,1.23559 0.77037,1.18718 0.81814,1.18723 0.86594,1.14004 0.91492,1.0929 0.96263,1.09294 1.01046,1.04576 1.05945,0.9974 1.10718,0.99863 1.10719,0.90312 1.20278,0.90311 1.25175,0.8076 1.25172,0.80634 0.91491,0.66495 0.86589,0.71204 0.86594,0.71331 0.8659,0.7592 0.77039,0.75923 0.81815,0.76045 0.77037,0.80635 0.72139,0.85477 0.72265,0.8547 0.67361,0.85471 0.67365,0.90311 0.62585,0.90313 0.62584,0.95023 0.57686,0.90313 0.52911,0.99865 0.52908,0.95026 0.48135,0.99863 0.48133,0.99739 0.43358,0.99864 0.38457,1.04453 0.38458,1.04577 0.33676,1.04579 0.33685,1.04454 0.28904,1.09292 0.24004,1.09292 0.24007,1.09289 0.14448,1.0929 0.19229,1.09294 0.0968,1.0929 0.0968,1.14007 0.0477,1.0929 0,1.14009 0,0.14139 0,0.18981 0.67365,-0.75921 0.67364,-0.71208 0.72261,-0.66493 0.7214,-0.66491 0.77036,-0.66493 0.72265,-0.6178 0.81815,-0.61777 0.77039,-0.56943 0.81818,-0.57064 0.86587,-0.56942 0.81817,-0.52351 0.86591,-0.52226 0.86587,-0.4751 0.86591,-0.47515 0.91492,-0.42799 0.9149,-0.42799 0.91493,-0.38084 0.91494,-0.38084 0.96267,-0.33246 0.96266,-0.33371 0.91493,-0.28411 0.96268,-0.28405 1.01044,-0.23695 0.96268,-0.23697 1.01041,-0.18977 0.96271,-0.14264 1.01041,-0.18981 1.01041,-0.0943 1.01043,-0.0954 1.01047,-0.0472 1.01041,-0.0471 1.01043,-0.0472 1.01041,0.0472 1.10722,0.0943 1.05946,0.0954 0.96269,0.0471 1.63626,0.23698 1.63633,0.18977 1.63627,0.14264 1.63632,0.0472 1.58852,0 1.6363,-0.0956 1.58854,-0.14141 1.54076,-0.23694 1.58854,-0.28531 1.5408,-0.37964 1.49176,-0.38085 1.49179,-0.47515 1.49302,-0.57062 1.444,-0.56939 1.44277,-0.66494 1.39626,-0.76043 1.34724,-0.75926 1.34721,-0.80756 1.25175,-0.9031 1.25173,-0.95029 1.25174,-0.99737 1.15492,-1.04579 1.10724,-1.0929 1.10722,-1.14007 1.01041,-1.1872 1.01041,-1.23555 0.91492,-1.28273 0.86594,-1.32985 0.86589,-1.37701 0.72135,-1.42415 0.72264,-1.47377 0.67364,-1.52088 0.0477,1.85336 0.14453,1.80498 0.19229,1.80499 0.28905,1.75783 0.38457,1.75783 0.43357,1.75664 0.48133,1.66356 0.57685,1.71071 0.62587,1.66232 0.72139,1.61516 0.7704,1.61647 0.81815,1.51962 0.9149,1.52094 0.96269,1.52088 1.01043,1.42416 1.05819,1.42534 1.15494,1.377 1.15497,1.32986 1.20397,1.23435 1.29948,1.23559 1.34725,1.18721 1.34723,1.14003 1.44404,1.04577 1.44398,1.04576 1.49176,0.95029 1.54083,0.90307 1.58851,0.80765 1.6363,0.80633 1.6363,0.71329 1.68405,0.61656 1.73308,0.61778 1.7318,0.47515 0.62586,0.0956 0.57686,0.14139 0.57684,0.1898 0.57685,0.23697 0.48134,0.2853 0.52908,0.33249 0.4336,0.38084 0.43357,0.37959 0.38458,0.47637 0.33679,0.47514 0.28907,0.52225 0.24004,0.52228 0.24001,0.57066 0.14456,0.61778 0.0968,0.5694 0,0.61778 0,0.66492 -0.14454,0.61778 -0.14453,0.61783 -0.19229,0.56938 -0.28904,0.57066 -0.33682,0.52227 -0.38455,0.52225 -0.38584,0.42799 -0.48134,0.428 -0.48135,0.38084 -0.52908,0.28412 -0.57684,0.28408 -0.57686,0.18978 -0.62589,0.18981 -0.62585,0.0956 -0.67362,0.0471 -0.57686,-0.0471 -0.57809,-0.0956 -0.57685,-0.0943 -0.52911,-0.1898 -0.52908,-0.18981 -0.52912,-0.23697 -0.48129,-0.28408 -0.48136,-0.33371 1.15494,0.85476 1.15497,0.85471 1.20397,0.80761 1.20397,0.71203 1.25175,0.75921 1.29947,0.66494 1.29952,0.61779 1.29947,0.56942 1.3472,0.57064 1.34726,0.47516 1.34726,0.47508 1.39625,0.38087 1.39499,0.33247 1.39628,0.28531 1.39498,0.23693 1.39499,0.18982 2.79126,0.14144 2.84027,0.0484 2.79127,-0.14267 2.74348,-0.23696 2.69573,-0.42799 2.69576,-0.47508 2.64674,-0.66496 2.59898,-0.76046 2.5512,-0.85349 2.5022,-0.99867 2.45444,-1.09286 2.4067,-1.1872 2.35766,-1.32988 2.26213,-1.42536 2.21319,-1.51967 2.11762,-1.61644 2.02088,-1.70944 2.02084,-1.80498 1.87761,-1.90056 1.78081,-1.99473 1.73183,-2.04193 1.63626,-2.18584 1.53955,-2.23297 1.44398,-2.28013 1.2995,-2.37565 1.25173,-2.46988 1.10722,-2.51708 0.96268,-2.56542 0.9149,-2.66094 0.72264,-2.66095 0.62587,-2.75525 0.5291,-2.85079 0.33679,1.47378 0.43358,1.42414 0.4336,1.37821 0.52908,1.37698 0.57814,1.32991 0.57683,1.32987 0.67362,1.28145 0.72264,1.2356 0.76915,1.23432 0.81815,1.18843 0.81687,1.14004 0.91493,1.1401 0.96393,1.09289 0.96269,1.04577 1.01043,0.99743 1.05941,0.95023 1.10721,0.95149 1.1072,0.8535 1.20275,0.85476 1.15618,0.76041 1.25048,0.75919 1.25172,0.71211 1.29823,0.66495 1.29948,0.57059 1.34728,0.56943 1.39498,0.47636 1.39626,0.47515 1.39499,0.37962 1.44276,0.3337 1.44398,0.28405 1.49182,0.23695 1.49298,0.18981 1.10722,0.1898 1.15497,0.23695 1.05946,0.28407 1.10719,0.33371 1.05816,0.33248 1.10722,0.38084 1.05944,0.38084 1.0117,0.42798 1.05819,0.47514 1.01169,0.47511 0.96265,0.56943 1.01046,0.52348 0.96391,0.56942 0.91492,0.61776 0.91493,0.61783 0.9149,0.6649 0.91491,0.71209 0.86593,0.71206 0.8169,0.71209 0.81812,0.76044 0.81815,0.80635 0.76915,0.80756 0.77039,0.80762 0.72137,0.85471 0.67362,0.85349 0.67364,0.90315 0.67362,0.90313 0.62585,0.95145 0.57684,0.9503 0.57813,0.99737 0.52908,0.95149 0.48136,1.04454 0.33804,-1.09168 0.33685,-1.0929 0.38579,-1.04579 0.43361,-1.04576 0.48132,-1.04454 0.48133,-1.04579 0.48133,-0.99863 0.57814,-0.95024 0.52908,-0.99742 0.62585,-0.9515 0.62589,-0.90312 0.67361,-0.90306 0.67362,-0.90313 0.72137,-0.85476 0.7214,-0.85346 0.77037,-0.80762 0.76914,-0.8076 0.81815,-0.80634 0.81691,-0.76042 0.86589,-0.71209 0.86588,-0.71206 0.91493,-0.66496 0.91495,-0.66491 0.9149,-0.61779 0.96391,-0.56941 0.96271,-0.57068 1.0104,-0.57063 1.01169,-0.52225 1.01043,-0.47511 1.05946,-0.42801 1.05945,-0.42798 1.10718,-0.38084 1.58854,-0.47511 1.54083,-0.52229 1.49176,-0.57065 1.49301,-0.66492 1.44274,-0.71207 1.39497,-0.75924 1.34729,-0.80758 1.34723,-0.90309 1.25173,-0.90311 1.25175,-0.99741 1.15494,-1.04577 1.15496,-1.04579 1.05948,-1.14003 1.05818,-1.14008 0.9639,-1.23556 0.96271,-1.23435 0.86588,-1.28271 0.8169,-1.32986 0.77039,-1.32988 0.72138,-1.37699 0.62585,-1.42414 0.57684,-1.42535 0.53036,-1.47252 0.48132,-1.52093 0.38585,-1.52089 0.3368,-1.5209 0.28781,-1.56803 0.19229,-1.6152 0.14451,-1.56806 0.0478,-1.61515 0,-1.61644 -0.0955,-1.66236 0.7214,1.42416 0.72134,1.32987 0.81814,1.32988 0.86591,1.2827 0.86465,1.23558 0.96396,1.23433 0.96266,1.14008 1.01044,1.14004 1.05943,1.14005 1.10721,1.04579 1.15498,1.04574 1.15496,0.99741 1.20397,0.95152 1.2027,0.90312 1.2995,0.85344 1.25048,0.80762 1.3472,0.76046 1.34726,0.7592 1.34726,0.66494 1.39625,0.66493 1.44277,0.56941 1.44273,0.57063 1.44401,0.47512 1.49177,0.47514 1.49304,0.38084 1.49303,0.38081 1.54076,0.28412 1.53955,0.23696 1.54079,0.18979 1.54077,0.14264 1.58854,0.0943 1.58854,0 0.9639,0 1.01046,-0.0472 1.05944,-0.0472 1.01047,-0.0955 1.01165,-0.0944 1.01044,-0.14262 1.0117,-0.0943 0.9149,-0.14266 0.57687,-0.14265 0.62586,-0.14147 0.57811,-0.0954 0.62586,-0.0471 0.62459,0.0471 0.67361,0.0954 0.62589,0.14147 0.57808,0.23695 0.57686,0.28528 0.53036,0.28413 0.48135,0.38082 0.48133,0.42801 0.38584,0.42672 0.38456,0.52352 0.33806,0.52227 0.24001,0.52349 0.24007,0.61655 0.14451,0.61778 0.0955,0.61783 0.0477,0.66492 -0.0477,0.61778 -0.0955,0.61652 -0.14451,0.61782 -0.19228,0.57065 -0.24007,0.52225 -0.33677,0.52229 -0.33809,0.47511 -0.43358,0.42799 -0.4336,0.38087 -0.4813,0.33367 -0.5291,0.33251 -0.53036,0.23688 -0.57686,0.18984 -0.62583,0.14267 -0.6259,0.0943 -0.67361,0.0471 -0.38582,0 -0.38458,0 -0.43357,0 -0.67362,0 1.44277,-0.0471 1.44398,0 1.44277,0.0471 1.49303,0.0484 2.93578,0.0943 2.98355,0.0943 1.44274,0 1.44403,0 1.39499,-0.0472 1.39498,-0.0943 1.34725,-0.14266 1.34726,-0.18981 1.25173,-0.23698 1.25047,-0.33241 2.69573,-0.90313 2.59896,-0.99863 2.50222,-1.1872 2.4067,-1.28273 2.30991,-1.37702 2.26216,-1.56802 2.11887,-1.61515 2.0209,-1.75787 1.97181,-1.85338 1.82987,-1.9464 1.7318,-1.99479 1.6363,-2.13867 1.54078,-2.18586 1.39624,-2.28011 1.29825,-2.37561 1.20397,-2.37443 1.10719,-2.46989 0.96269,-2.56544 0.86587,-2.56418 0.76914,-2.61259 0.6259,-2.66098 0.48132,-2.70806 0.38582,-2.70812 0.28777,-2.75648 0.14456,-2.75525 0,-2.80361 -0.0968,-2.80236 -0.24004,-2.80362 -0.38459,-2.80239 -0.48257,-2.75648 -0.67364,-2.8024 -0.76912,-2.75648 1.2027,0.95153 1.20399,0.85346 1.25047,0.80759 1.25173,0.76046 1.2995,0.71207 1.29821,0.66491 1.34726,0.56943 1.34723,0.57067 1.34722,0.47512 1.39629,0.42798 1.39498,0.38085 1.39501,0.33246 1.39501,0.28409 1.44398,0.23694 1.39502,0.14267 1.44273,0.0954 1.44404,0.0943 1.44276,0 1.44276,-0.0943 1.44399,-0.0954 1.44276,-0.14267 1.39625,-0.23694 1.44278,-0.28409 1.395,-0.33246 1.39499,-0.38085 1.39625,-0.42798 1.39499,-0.52228 1.34725,-0.57065 1.34726,-0.61779 1.34723,-0.66492 1.2995,-0.71209 1.25045,-0.75919 1.01168,-0.52351 1.05819,-0.52228 1.05946,-0.4751 1.10722,-0.42804 1.10719,-0.42794 1.10719,-0.33246 1.15497,-0.38086 1.15494,-0.28409 1.15497,-0.28534 1.15497,-0.23697 1.15494,-0.18977 1.20397,-0.14141 1.15497,-0.14267 1.2027,-0.0943 1.15621,-0.0484 1.20273,-0.0472 1.05943,0.0472 1.10597,0.0484 1.05944,0.0472 1.10719,0.14263 1.05946,0.14146 1.05819,0.14264 1.10722,0.18981 1.05941,0.23694 1.05946,0.23695 1.01043,0.28407 1.05942,0.33373 1.0117,0.33246 1.05819,0.38084 1.01169,0.42798 0.96267,0.42797 1.01172,0.42675 -0.62586,-1.66231 -0.57814,-1.75783 -0.48133,-1.75785 -0.43357,-1.85213 -0.33683,-1.85213 -0.24003,-1.85336 -0.0967,-0.95028 -0.0478,-0.90313 -0.0477,-0.95023 -0.0477,-0.90313 0.0477,-1.2827 0.0955,-1.32982 0.0967,-1.28274 0.19101,-1.32987 0.19229,-1.28151 0.28906,-1.32982 0.2878,-1.28271 0.38585,-1.28273 0.38454,-1.28274 0.43358,-1.23431 0.48135,-1.2356 0.53033,-1.18718 0.52911,-1.18717 0.57811,-1.18847 0.62461,-1.0929 0.62587,-1.0929 0.9627,-1.32988 0.91488,-1.37698 0.81815,-1.37704 0.72136,-1.42414 0.67364,-1.42535 0.62586,-1.47255 0.57811,-1.47374 0.48134,-1.52091 0.38584,-1.52094 0.33679,-1.5196 0.2878,-1.52093 0.24004,-1.52091 0.14451,-1.56802 0.0478,-1.52088 0.0478,-1.56808 -0.0478,-1.56802 -0.14326,-1.52091 -0.19229,-1.52091 -0.24007,-1.56805 -0.28904,-1.51965 -0.38455,-1.47374 -0.48135,-1.52091 -0.4826,-1.47254 -0.57686,-1.47375 -0.62587,-1.42415 -0.72133,-1.42537 -0.77043,-1.37702 -0.8169,-1.37698 -0.91491,-1.32987 -0.96392,-1.28274 -1.01041,-1.23554 -1.10722,-1.23434 0.43358,0 0.48136,0 0.48129,0 0.38585,0 1.78081,-0.0471 1.78082,-0.0955 1.78084,-0.18981 1.7318,-0.23694 1.73308,-0.33245 1.6853,-0.38087 1.68405,-0.42801 1.68533,-0.52222 1.63629,-0.57065 1.58852,-0.61653 1.58857,-0.71332 1.58852,-0.7592 1.49303,-0.80762 1.49177,-0.85349 1.44401,-0.9515 1.44276,-0.95026 1.34723,-1.04574 1.34723,-1.09293 1.29953,-1.09169 1.2517,-1.18844 1.20272,-1.23434 1.15496,-1.28271 1.1072,-1.28274 1.05946,-1.37698 1.01043,-1.37701 0.91491,-1.47374 0.9149,-1.47252 0.81815,-1.52091 0.76915,-1.52091 0.72261,-1.61516 0.62462,-1.61646 0.57813,-1.66233 0.0955,-0.57059 0.19228,-0.56942 0.19229,-0.52231 0.2878,-0.52351 0.28904,-0.47509 0.33682,-0.47514 0.38582,-0.42798 0.43357,-0.38084 0.43358,-0.33248 0.48135,-0.33368 0.48133,-0.28411 0.52908,-0.23697 0.5781,-0.18978 0.57687,-0.14264 0.57811,-0.0472 0.62586,-0.0471 0.62586,0.0471 0.67361,0.0955 0.62465,0.14141 0.57807,0.23695 0.57684,0.23697 0.53038,0.33367 0.48134,0.38087 0.48132,0.42798 0.38585,0.42675 0.38582,0.47635 0.3368,0.52231 0.24006,0.57059 0.24001,0.61659 0.14454,0.57062 0.0955,0.66492 0.049,0.61781 -0.049,0.61653 -0.0478,0.61779 -0.14451,0.61781 -0.19105,0.56939 -0.24128,0.57065 -0.28783,0.52228 -0.33678,0.52351 -0.38582,0.52226 0.96267,-1.04577 0.91494,-1.09293 0.86587,-1.09167 0.81817,-1.18846 0.76912,-1.18718 0.72138,-1.23554 0.7226,-1.23435 0.62463,-1.28273 0.62585,-1.32985 0.53036,-1.32987 0.52911,-1.32985 0.48133,-1.32984 0.43359,-1.37701 0.3858,-1.37701 0.28782,-1.37699 0.28779,-1.37826 0.28907,-2.80236 0.14324,-2.75526 0.0478,-2.75648 -0.14326,-2.70808 -0.24005,-2.70812 -0.38582,-2.70806 -0.52913,-2.61261 -0.62586,-2.61255 -0.77034,-2.56422 -0.91496,-2.51705 -1.01044,-2.47114 -1.15496,-2.42155 -1.25173,-2.37563 -1.39496,-2.32848 -1.44276,-2.23297 -1.63757,-2.18463 -1.68405,-2.13867 -1.82858,-2.04193 -1.92534,-1.94763 -2.02087,-1.89929 -2.11763,-1.80622 -2.21441,-1.70946 -2.30993,-1.61519 -2.40669,-1.56802 -2.50218,-1.4254 -2.59897,-1.32985 -2.69574,-1.23434 -2.79129,-1.09293 -2.84024,-0.9986 -2.9358,-0.90312 -3.03126,-0.80762 -3.08034,-0.61779 1.20273,-0.33245 1.15497,-0.428 1.20394,-0.42798 1.15497,-0.47512 1.15498,-0.56944 1.10718,-0.61776 1.15497,-0.61779 1.10721,-0.71209 1.05942,-0.76043 1.10721,-0.76045 1.01047,-0.85475 1.0594,-0.9031 0.96269,-0.9031 0.96266,-0.95029 0.96394,-0.99737 0.91491,-1.04453 0.86593,-1.09293 0.86466,-1.09291 0.77034,-1.14006 0.76914,-1.18841 0.7704,-1.18723 0.67364,-1.23555 0.62587,-1.28273 0.62461,-1.28271 0.53033,-1.32985 0.5291,-1.32987 0.43361,-1.37824 0.43357,-1.42414 0.33677,-1.42539 0.3381,-1.42541 0.24003,-1.47251 0.14451,-1.47252 0.24007,-1.0929 0.24004,-1.09293 0.28779,-1.09293 0.2878,-1.09289 0.38584,-1.04453 0.3858,-1.04457 0.38454,-1.04574 0.48264,-1.04456 0.43356,-0.99737 0.52908,-0.99741 0.52911,-0.95024 0.57808,-0.9974 0.57687,-0.95025 0.62588,-0.90312 0.67362,-0.90309 0.67359,-0.90312 0.72142,-0.85475 0.72261,-0.85472 0.72138,-0.85474 0.8169,-0.80759 0.77039,-0.76046 0.86588,-0.75921 0.81689,-0.76046 0.91494,-0.71331 0.86593,-0.66492 0.9149,-0.66492 0.9639,-0.66492 0.96271,-0.57066 0.96269,-0.61778 1.01167,-0.52229 1.01044,-0.52225 1.01168,-0.52226 -1.05946,-0.33248 -1.10719,-0.38083 -1.05944,-0.37961 -1.05818,-0.42801 -1.01168,-0.47511 -1.05946,-0.47511 -0.96269,-0.52229 -1.01041,-0.52225 -0.96396,-0.56942 -0.96265,-0.61781 -0.91496,-0.61777 -0.9149,-0.66494 -0.9149,-0.66492 -0.86593,-0.71207 -0.86588,-0.7133 -0.8169,-0.75921 -0.81812,-0.80759 -0.77042,-0.80758 -0.76915,-0.80762 -0.76912,-0.85473 -0.67361,-0.85472 -0.72265,-0.90309 -0.62458,-0.90314 -0.6259,-0.90313 -0.62586,-0.95024 -0.57811,-0.95024 -0.52908,-0.99742 -0.52908,-0.99739 -0.48135,-0.99738 -0.48261,-1.04457 -0.38457,-1.0445 -0.43358,-1.04579 -0.43356,-1.61517 -0.52911,-1.5209 -0.57806,-1.52091 -0.62591,-1.42414 -0.72137,-1.42539 -0.76912,-1.42536 -0.81815,-1.32988 -0.86591,-1.32984 -0.9627,-1.23558 -0.9639,-1.23557 -1.05819,-1.18844 -1.05946,-1.14006 -1.15495,-1.04454 -1.15497,-1.04576 -1.20397,-0.9974 -1.25048,-0.90312 -1.2995,-0.90312 -1.3472,-0.80759 -1.34726,-0.76044 -1.39499,-0.71208 -1.44403,-0.66491 -1.44276,-0.56942 -1.49304,-0.57066 -1.53949,-0.42672 -1.54079,-0.42798 -1.54079,-0.33249 -1.58855,-0.28533 -1.58854,-0.1898 -1.63755,-0.14265 -1.63629,-0.0956 -1.6363,0 -1.64006,0.11539 z"
     id="path3348"
     style="fill:#fecd00;fill-opacity:1;fill-rule:evenodd;stroke:none" />
  <g
     id="text4180"
     style="font-size:446.42855835px;font-style:normal;font-weight:normal;text-align:center;text-anchor:middle;fill:#000000;fill-opacity:1;stroke:none;font-family:Roadgeek 2005 Series D">
    <path
       d="m 147.3197,450 0,-245.53571 -18.74999,0 0,-32.58928 c 8.63091,-0.59496 15.47614,-2.67829 20.53571,-6.25 5.35709,-3.57114 9.67256,-8.48185 12.94643,-14.73214 l 28.57142,0 0,299.10713 -43.30357,0"
       id="path12058"
       style="font-variant:normal;font-stretch:normal;font-family:Roadgeek 2005 Series C;-inkscape-font-specification:Roadgeek 2005 Series C" />
    <path
       d="m 419.65156,192.85715 c -13.39302,15.17881 -25.29777,32.4407 -35.71428,51.78571 -10.4168,19.04781 -19.79179,40.62517 -28.125,64.73214 -8.03582,22.91679 -13.83939,45.387 -17.41072,67.41072 -3.57152,21.72624 -5.95247,46.13097 -7.14285,73.21428 l -41.96429,0 0,-6.25 c -5e-5,-7.44046 0.44638,-16.07141 1.33929,-25.89286 0.89281,-9.82138 2.08328,-19.94042 3.57143,-30.35714 1.78566,-10.71421 3.72018,-21.42849 5.80357,-32.14285 2.08327,-11.0118 4.46422,-21.42846 7.14285,-31.25 3.27375,-11.90463 6.69636,-23.21414 10.26786,-33.92857 3.86897,-11.01174 8.03563,-21.72601 12.5,-32.14286 4.76181,-10.41646 9.97014,-20.83312 15.625,-31.25 5.65465,-10.71405 12.20227,-22.02356 19.64286,-33.92857 l -112.5,0 0,-41.96428 166.96428,0 0,41.96428 0,0"
       id="path12060"
       style="font-variant:normal;font-stretch:normal;font-family:Roadgeek 2005 Series C;-inkscape-font-specification:Roadgeek 2005 Series C" />
    <path
       d="m 631.29357,252.67858 c -1.9e-4,37.20254 -9.07756,72.91679 -27.23214,107.14285 C 586.20414,394.04768 560.90655,424.10717 528.16857,450 l -24.10714,-33.48214 c 6.24994,-4.76187 12.49993,-10.41662 18.75,-16.96429 6.54754,-6.84518 12.64872,-13.98803 18.30357,-21.42857 5.65466,-7.73801 10.71418,-15.4761 15.17857,-23.21428 4.46417,-7.738 8.0356,-15.17846 10.71429,-22.32143 -3.57155,0.59535 -6.84536,0.89297 -9.82143,0.89286 -2.67868,1.1e-4 -5.65487,1.1e-4 -8.92857,0 -25.89294,1.1e-4 -46.42863,-8.48202 -61.60714,-25.44643 -14.88098,-16.96413 -22.32145,-40.02958 -22.32143,-69.19643 -2e-5,-13.98787 1.9345,-26.63666 5.80357,-37.94643 3.86902,-11.60688 9.37497,-21.4283 16.51786,-29.46428 7.44042,-8.33305 16.36899,-14.73185 26.78571,-19.19643 10.41659,-4.46398 22.02372,-6.69612 34.82143,-6.69643 27.38082,3.1e-4 48.06532,9.07768 62.05357,27.23215 13.98791,18.15502 20.98195,44.79189 20.98214,79.91071 m -41.07143,-9.375 c -1.4e-4,-16.96406 -3.86919,-30.50572 -11.60714,-40.625 -7.73822,-10.11879 -17.85726,-15.17831 -30.35714,-15.17857 -13.39295,2.6e-4 -23.8096,4.61335 -31.25,13.83928 -7.14292,9.22643 -10.71435,21.72642 -10.71429,37.5 -6e-5,16.36924 3.57137,29.31566 10.71429,38.83929 7.4404,9.22635 17.85705,13.83944 31.25,13.83928 12.49988,1.6e-4 22.61892,-4.31531 30.35714,-12.94643 7.73795,-8.63077 11.607,-20.38671 11.60714,-35.26785"
       id="path12062"
       style="font-variant:normal;font-stretch:normal;font-family:Roadgeek 2005 Series C;-inkscape-font-specification:Roadgeek 2005 Series C" />
  </g>
</svg>
