<?xml version="1.0" encoding="utf-8"?>
<!-- Generator: Adobe Illustrator 21.0.0, SVG Export Plug-In . SVG Version: 6.00 Build 0)  -->
<svg version="1.1" id="Layer_1" xmlns="http://www.w3.org/2000/svg" xmlns:xlink="http://www.w3.org/1999/xlink" x="0px" y="0px"
	 viewBox="0 0 288.2 52.2" style="enable-background:new 0 0 288.2 52.2;" xml:space="preserve">
<style type="text/css">
	.st0{fill:#231F20;}
</style>
<g>
	<g>
		<g>
			<polygon class="st0" points="0.8,49.7 44.5,49.7 44.5,40.8 9.7,40.8 9.7,31.5 31.9,31.5 31.9,22.6 9.7,22.6 9.7,9.8 44.5,9.8 
				44.5,1 0.8,1 			"/>
			<polygon class="st0" points="149.8,49.7 193.4,49.7 193.4,40.8 158.6,40.8 158.6,31.5 180.8,31.5 180.8,22.6 158.6,22.6 
				158.6,9.8 193.4,9.8 193.4,1 149.8,1 			"/>
			<path class="st0" d="M227.5,9.9h30.2V24h-30.2V9.9z M254.3,32.9h12.2V1.1h-47.9v48.5h8.8V32.9h19.3c1.5,7.1,7,16.8,20.8,16.8
				v-7.3C258.8,42.4,255.5,36.8,254.3,32.9"/>
			<path class="st0" d="M102.1,49.6l2.6-6.9c2.7-6.8,7.2-17,11.8-23.7c5.7-8.3,13.4-10,15.4-10.3V1.5l-0.1-0.9
				c-0.5,0-13.3,1.1-22,13.9c-5.4,7.9-10,18.7-12.5,25c-2.5-6.3-7.1-17.1-12.5-25C76.2,1.7,63.5,0.7,62.9,0.6l0,0.5v7.6
				C65,9,72.7,10.7,78.3,19c7.3,10.7,14.2,30.4,14.2,30.6L102.1,49.6z"/>
		</g>
	</g>
	<g>
		<path class="st0" d="M276.9,50.2c-1.1-1.1-1.7-2.5-1.7-4.2s0.6-3.1,1.7-4.2c1.1-1.1,2.5-1.7,4.2-1.7s3.1,0.6,4.2,1.7
			c1.1,1.1,1.7,2.5,1.7,4.2s-0.6,3.1-1.7,4.2c-1.1,1.1-2.5,1.7-4.2,1.7S278.1,51.3,276.9,50.2z M286,46c0-2.9-2.1-4.9-4.9-4.9
			c-2.8,0-4.9,2-4.9,4.9c0,2.8,2.1,4.9,4.9,4.9C283.9,50.9,286,48.8,286,46z M279,49.2v-6.7h2.4c1.3,0,2.1,0.9,2.1,2.1
			c0,0.9-0.4,1.5-1.2,2l1.6,2.7h-1.2l-1.5-2.5H280v2.5H279z M280,45.8h1.3c0.6,0,1.1-0.5,1.1-1.2c0-0.6-0.5-1.1-1.1-1.1H280V45.8z"
			/>
	</g>
</g>
</svg>
