<?xml version="1.0" encoding="utf-8"?>
<!-- Generator: Adobe Illustrator 19.2.1, SVG Export Plug-In . SVG Version: 6.00 Build 0)  -->
<svg version="1.1" id="Layer_1" xmlns="http://www.w3.org/2000/svg" xmlns:xlink="http://www.w3.org/1999/xlink" x="0px" y="0px"
	 viewBox="0 0 554 667" style="enable-background:new 0 0 554 667;" xml:space="preserve">
<style type="text/css">
	.st0{fill:#FF3C00;}
	.st1{fill:#FFFFFF;}
	.st2{fill:#FFFF00;stroke:#FFFFFF;stroke-width:24.0626;stroke-linecap:round;stroke-miterlimit:10;}
	.st3{fill:#262626;}
</style>
<g>
	<g>
		<g>
			<path class="st0" d="M333.7,268c-14.7-15.1-15.6-33.8-15.6-50.6l0-97.6c0-17.7-14.5-32.2-32.2-32.2h-17.8
				c-17.7,0-32.2,14.5-32.2,32.2l0,58h0.1c0,22.6,18.3,41,41,41h5.9c7.2,0.1,13.1,6,13.1,13.2c0,7.3-5.9,13.3-13.3,13.3l-5.3,0
				c-44.9,0-81.3,36.4-81.3,81.3v340.7h162.6V329.9v-3.2C358.7,303.6,349.1,282.8,333.7,268z"/>
			<path class="st0" d="M302.4,50.3c-0.1-6.1-1.3-22.7-9.8-36.9l-26.7-9.9c-10.1,14.8-11.5,33.2-11.6,39.6v22h48.1V50.3z"/>
		</g>
		<g>
			<g>
				<path class="st1" d="M286.5,164.2c-6.3,0-10.5-5.1-10.5-11.4v-32.9c0-6.3,4.2-11.4,10.5-11.4s10.5,5.1,10.5,11.4v32.9
					C297,159.1,292.8,164.2,286.5,164.2z"/>
			</g>
			<g>
				<path class="st1" d="M312,667.4V328.1c0-11.6-6.2-19.7-10.9-24.5c-5.4-5.4-5.7-14.3-0.3-19.7c5.4-5.4,13.7-5.4,19.1,0
					c12.1,12.1,18,27.4,18,44.2v339.3H312z"/>
			</g>
		</g>
	</g>
	<g>
		<path class="st3" d="M410.6,254.9l48,3c4.9,0.3,9.1-3.5,9.4-8.3l2.4-39.8c0.3-4.9-3.5-9.1-8.3-9.4l-48-3c-4.9-0.3-9.1,3.5-9.4,8.3
			l-2.4,39.8C402,250.3,405.7,254.6,410.6,254.9z"/>
		<path class="st3" d="M19.3,533.5c1,4.8,5.7,7.9,10.5,7l47.2-9.6c4.8-1,7.9-5.7,7-10.5L76,481.3c-1-4.8-5.7-7.9-10.5-7l-47.2,9.6
			c-4.8,1-7.9,5.7-7,10.5L19.3,533.5z"/>
		<path class="st3" d="M544.1,631.4h-34.3l26.5-173.6c0.3-2.2,0.5-6.1,0.3-8.3L526,313.8c0,0,0,0,0,0l-0.3-4l-28.6,70.9l-23.7,58.8
			c-0.8,2.1-1.8,5.6-2.1,7.8l-25.6,166.7L466,283.7c0.3-4.9-3.5-9.1-8.3-9.4l-48-3c-4.9-0.3-9.6,3-9.9,7.9L379,607.9v59.5h175v-26.1
			C554,635.3,550.2,631.4,544.1,631.4z"/>
		<path class="st3" d="M163.9,429c3.6-1.6,5.9-5.3,5.3-9.4l-15.4-101.1c-0.7-4.8-5.3-8.2-10.1-7.4l-0.6,0.1l-26.4-149
			c-0.9-4.8-5.5-8.2-10.4-7.4l-22,3.4c-4.8,0.7-8.3,5.3-7.7,10.2l19.2,150.1l-0.6,0.1c-4.8,0.7-8.2,5.3-7.5,10.1l10.8,70.7
			c-3.6,1.6-5.8,5.4-5,9.4L125,581.4L97.5,587l-6.7-33c-1-4.8-5.7-7.9-10.5-7l-47.1,9.6c-4.8,1-7.9,6.2-7,11L39,631.4H10.7
			c-6,0-10.7,3.9-10.7,9.9v26.1h175V496.7l-7.3-45.4L163.9,429z"/>
	</g>
</g>
</svg>
