<svg id="svg2" xmlns="http://www.w3.org/2000/svg" xmlns:xlink="http://www.w3.org/1999/xlink" width="960" height="480" viewBox="0 0 960 480"><defs><clipPath id="clip-path"><rect x="284.2" y="81.3" width="5.6" height="53" style="fill:none"/></clipPath><clipPath id="clip-path-2"><rect x="289.8" y="66.9" width="5.4" height="67.4" style="fill:none"/></clipPath><clipPath id="clip-path-3"><rect x="306" y="99.8" width="5.6" height="34.5" style="fill:none"/></clipPath><clipPath id="clip-path-4"><rect x="311.6" y="88.1" width="5.6" height="46.2" style="fill:none"/></clipPath><clipPath id="clip-path-5"><rect x="327.8" y="120.4" width="5.6" height="14" style="fill:none"/></clipPath><clipPath id="clip-path-6"><rect x="333.4" y="77" width="5.6" height="57.4" style="fill:none"/></clipPath><clipPath id="clip-path-7"><rect x="347.9" y="46" width="8.2" height="2.8" style="fill:none"/></clipPath><clipPath id="clip-path-8"><rect x="347.9" y="55.8" width="8.2" height="2.7" style="fill:none"/></clipPath><clipPath id="clip-path-9"><rect x="349.7" y="105" width="5.4" height="29.4" style="fill:none"/></clipPath><clipPath id="clip-path-10"><polygon points="355.2 97.4 360.8 97.4 360.8 134.4 355.2 134.4 355.2 97.3 355.2 97.4" style="fill:none"/></clipPath><clipPath id="clip-path-11"><rect x="359.1" y="47.1" width="23.3" height="0.6" style="fill:none"/></clipPath><clipPath id="clip-path-12"><rect x="359.1" y="52.2" width="23.3" height="0.6" style="fill:none"/></clipPath><clipPath id="clip-path-13"><rect x="359.1" y="56.9" width="23.3" height="0.5" style="fill:none"/></clipPath><clipPath id="clip-path-14"><rect x="359.1" y="62" width="23.3" height="0.6" style="fill:none"/></clipPath><linearGradient id="linear-gradient" x1="648.34" y1="439.43" x2="684.91" y2="439.43" gradientUnits="userSpaceOnUse"><stop offset="0" stop-color="#3f211c"/><stop offset="1" stop-color="#54332c"/></linearGradient><linearGradient id="linear-gradient-2" x1="619.45" y1="445.04" x2="656.02" y2="445.04" gradientTransform="matrix(-1, 0.1, 0.1, 1, 1332.52, -66.57)" xlink:href="#linear-gradient"/><linearGradient id="linear-gradient-3" x1="745.34" y1="113.45" x2="776.39" y2="177.11" gradientUnits="userSpaceOnUse"><stop offset="0" stop-color="#febfa3"/><stop offset="0.43" stop-color="#fabb9f"/><stop offset="0.85" stop-color="#eeaf94"/><stop offset="1" stop-color="#e8a98e"/></linearGradient><linearGradient id="linear-gradient-4" x1="746.56" y1="149.37" x2="749.02" y2="142.62" gradientUnits="userSpaceOnUse"><stop offset="0" stop-color="#f9ba9e"/><stop offset="0.54" stop-color="#eaa38a"/><stop offset="1" stop-color="#e0947c"/></linearGradient><linearGradient id="linear-gradient-5" x1="750.44" y1="154.59" x2="750.24" y2="165.82" gradientUnits="userSpaceOnUse"><stop offset="0" stop-color="#e8a68b"/><stop offset="0.14" stop-color="#e49d83"/><stop offset="0.37" stop-color="#e1967e"/><stop offset="1" stop-color="#e0947c"/></linearGradient><linearGradient id="linear-gradient-6" x1="738.79" y1="156.37" x2="761.76" y2="156.37" gradientUnits="userSpaceOnUse"><stop offset="0" stop-color="#efebea"/><stop offset="1" stop-color="#d6d3d0"/></linearGradient><linearGradient id="linear-gradient-7" x1="759.47" y1="170.92" x2="764.4" y2="178.8" gradientUnits="userSpaceOnUse"><stop offset="0" stop-color="#e0947c"/><stop offset="0.63" stop-color="#e1967e"/><stop offset="0.86" stop-color="#e49d83"/><stop offset="1" stop-color="#e8a68b"/></linearGradient><linearGradient id="linear-gradient-8" x1="749.92" y1="147.01" x2="749.47" y2="150.96" gradientTransform="translate(893.3 -584.9) rotate(90)" xlink:href="#linear-gradient-7"/><linearGradient id="linear-gradient-9" x1="785.58" y1="153.2" x2="788.87" y2="155.76" gradientUnits="userSpaceOnUse"><stop offset="0" stop-color="#e0947c"/><stop offset="1" stop-color="#eeaf93"/></linearGradient><linearGradient id="linear-gradient-10" x1="761" y1="123.57" x2="764.05" y2="123.57" xlink:href="#linear-gradient-7"/><linearGradient id="linear-gradient-11" x1="639.68" y1="119.21" x2="642.73" y2="119.21" gradientTransform="matrix(-1, 0, 0, 1, 1399.26, 0)" xlink:href="#linear-gradient-7"/><linearGradient id="linear-gradient-12" x1="850.86" y1="204.59" x2="826.69" y2="226.35" xlink:href="#linear-gradient-3"/><linearGradient id="linear-gradient-13" x1="758.4" y1="177.36" x2="768.62" y2="274.64" gradientUnits="userSpaceOnUse"><stop offset="0" stop-color="#d8d1c3"/><stop offset="0.22" stop-color="#e0dacd"/><stop offset="0.63" stop-color="#ebe6da"/><stop offset="1" stop-color="#efeadf"/></linearGradient><linearGradient id="linear-gradient-14" x1="751.71" y1="195.44" x2="757.28" y2="184.98" gradientUnits="userSpaceOnUse"><stop offset="0" stop-color="#d6d0c2"/><stop offset="0.38" stop-color="#c0b9a9"/><stop offset="0.72" stop-color="#b3aa99"/><stop offset="1" stop-color="#aea594"/></linearGradient><linearGradient id="linear-gradient-15" x1="712.47" y1="248.84" x2="719.09" y2="236.39" gradientUnits="userSpaceOnUse"><stop offset="0" stop-color="#d6d0c2"/><stop offset="1" stop-color="#aea594"/></linearGradient><linearGradient id="linear-gradient-16" x1="736.65" y1="186.66" x2="743.63" y2="253.09" gradientUnits="userSpaceOnUse"><stop offset="0" stop-color="#93261b"/><stop offset="1" stop-color="#ad3623"/></linearGradient><linearGradient id="linear-gradient-17" x1="784.91" y1="256.9" x2="807.23" y2="214.93" xlink:href="#linear-gradient-14"/><linearGradient id="linear-gradient-18" x1="844.39" y1="211.37" x2="835.88" y2="219.03" gradientUnits="userSpaceOnUse"><stop offset="0" stop-color="#e8a68b"/><stop offset="1" stop-color="#e0947c"/></linearGradient><linearGradient id="linear-gradient-19" x1="753.1" y1="253.2" x2="762.65" y2="248.12" gradientUnits="userSpaceOnUse"><stop offset="0" stop-color="#e0947c"/><stop offset="0.52" stop-color="#e6a187"/><stop offset="1" stop-color="#e8a68b"/></linearGradient><linearGradient id="linear-gradient-20" x1="744.66" y1="235.8" x2="755.81" y2="280.52" xlink:href="#linear-gradient-3"/><linearGradient id="linear-gradient-21" x1="763.32" y1="264.57" x2="767.09" y2="261.05" gradientUnits="userSpaceOnUse"><stop offset="0" stop-color="#e0947c"/><stop offset="0.48" stop-color="#e59f85"/><stop offset="1" stop-color="#e8a68b"/></linearGradient><linearGradient id="linear-gradient-22" x1="764.59" y1="265.04" x2="759.78" y2="268.66" xlink:href="#linear-gradient-18"/><linearGradient id="linear-gradient-23" x1="745.83" y1="244.63" x2="749.61" y2="259.79" xlink:href="#linear-gradient-5"/><linearGradient id="linear-gradient-24" x1="706.85" y1="182.77" x2="713.78" y2="248.69" gradientUnits="userSpaceOnUse"><stop offset="0" stop-color="#d8d1c3"/><stop offset="1" stop-color="#efeadf"/></linearGradient><linearGradient id="linear-gradient-25" x1="698.19" y1="213.84" x2="726.94" y2="199.82" xlink:href="#linear-gradient-15"/><linearGradient id="linear-gradient-26" x1="365.07" y1="340.46" x2="522.76" y2="340.46" gradientUnits="userSpaceOnUse"><stop offset="0" stop-color="#30262e"/><stop offset="1" stop-color="#1c151b"/></linearGradient><linearGradient id="linear-gradient-27" x1="424.44" y1="355.22" x2="425.87" y2="361.39" gradientUnits="userSpaceOnUse"><stop offset="0" stop-color="#161115"/><stop offset="1" stop-color="#292027"/></linearGradient><linearGradient id="linear-gradient-28" x1="372.36" y1="399.64" x2="374.02" y2="415.4" xlink:href="#linear-gradient-27"/><linearGradient id="linear-gradient-29" x1="409.99" y1="400.87" x2="412.92" y2="404" xlink:href="#linear-gradient-27"/><linearGradient id="linear-gradient-30" x1="406.74" y1="409.63" x2="407.04" y2="413.02" xlink:href="#linear-gradient-27"/><linearGradient id="linear-gradient-31" x1="499.27" y1="349.78" x2="498.56" y2="357.89" gradientUnits="userSpaceOnUse"><stop offset="0" stop-color="#161115"/><stop offset="1" stop-color="#1f181e"/></linearGradient><linearGradient id="linear-gradient-32" x1="486.84" y1="371.83" x2="501.13" y2="394.7" gradientUnits="userSpaceOnUse"><stop offset="0" stop-color="#161115"/><stop offset="1" stop-color="#221a21"/></linearGradient><linearGradient id="linear-gradient-33" x1="467" y1="349.25" x2="471.73" y2="359.86" xlink:href="#linear-gradient-32"/><linearGradient id="linear-gradient-34" x1="449.5" y1="414.7" x2="467.79" y2="414.7" xlink:href="#linear-gradient-32"/><linearGradient id="linear-gradient-35" x1="402.74" y1="352.64" x2="381.69" y2="370.3" gradientUnits="userSpaceOnUse"><stop offset="0" stop-color="#161115"/><stop offset="1" stop-color="#2d242b"/></linearGradient><linearGradient id="linear-gradient-36" x1="388.59" y1="418.73" x2="392.9" y2="449.44" gradientUnits="userSpaceOnUse"><stop offset="0" stop-color="#54332c"/><stop offset="1" stop-color="#3f211c"/></linearGradient><linearGradient id="linear-gradient-37" x1="448.01" y1="432.1" x2="525.59" y2="432.1" xlink:href="#linear-gradient"/><linearGradient id="linear-gradient-38" x1="565.62" y1="168.81" x2="649.13" y2="168.81" gradientUnits="userSpaceOnUse"><stop offset="0" stop-color="#e8a98e"/><stop offset="0.48" stop-color="#f5b69a"/><stop offset="1" stop-color="#febfa3"/></linearGradient><linearGradient id="linear-gradient-39" x1="387.01" y1="227.34" x2="388.34" y2="303.09" xlink:href="#linear-gradient-38"/><linearGradient id="linear-gradient-40" x1="363.3" y1="249.24" x2="377.79" y2="249.24" gradientUnits="userSpaceOnUse"><stop offset="0" stop-color="#934e37"/><stop offset="1" stop-color="#ac6345"/></linearGradient><linearGradient id="linear-gradient-41" x1="380.36" y1="239.77" x2="383.4" y2="232.6" xlink:href="#linear-gradient-5"/><linearGradient id="linear-gradient-42" x1="566.17" y1="197.35" x2="589.37" y2="197.35" xlink:href="#linear-gradient-5"/><linearGradient id="linear-gradient-43" x1="370.9" y1="201.44" x2="580.93" y2="201.44" gradientUnits="userSpaceOnUse"><stop offset="0" stop-color="#efeadf"/><stop offset="1" stop-color="#d8d1c3"/></linearGradient><linearGradient id="linear-gradient-44" x1="501.03" y1="183.46" x2="459.94" y2="189.97" gradientUnits="userSpaceOnUse"><stop offset="0" stop-color="#aea594"/><stop offset="1" stop-color="#e4dfd2"/></linearGradient><linearGradient id="linear-gradient-45" x1="498.02" y1="162.5" x2="511.44" y2="169.64" xlink:href="#linear-gradient-44"/><linearGradient id="linear-gradient-46" x1="421.86" y1="239.99" x2="426.56" y2="186.27" gradientUnits="userSpaceOnUse"><stop offset="0" stop-color="#e4dfd2"/><stop offset="1" stop-color="#aea594"/></linearGradient><linearGradient id="linear-gradient-47" x1="525.07" y1="210.08" x2="539.83" y2="203.2" gradientUnits="userSpaceOnUse"><stop offset="0" stop-color="#aea594"/><stop offset="1" stop-color="#ded7ca"/></linearGradient><linearGradient id="linear-gradient-48" x1="543.8" y1="202.33" x2="550.16" y2="205.29" xlink:href="#linear-gradient-46"/><linearGradient id="linear-gradient-49" x1="388.66" y1="196.44" x2="389.18" y2="226.28" xlink:href="#linear-gradient-46"/><linearGradient id="linear-gradient-50" x1="365.29" y1="226.04" x2="403.33" y2="226.04" gradientUnits="userSpaceOnUse"><stop offset="0" stop-color="#efeadf"/><stop offset="1" stop-color="#e3dccf"/></linearGradient><linearGradient id="linear-gradient-51" x1="554.62" y1="179.93" x2="596.66" y2="179.93" gradientTransform="matrix(0.89, 0.46, -0.46, 0.89, 142.82, -220.83)" xlink:href="#linear-gradient-50"/><linearGradient id="linear-gradient-52" x1="518.13" y1="164.22" x2="458.89" y2="240.04" xlink:href="#linear-gradient-16"/><linearGradient id="linear-gradient-53" x1="460.5" y1="125.48" x2="464.66" y2="129.64" xlink:href="#linear-gradient-46"/><linearGradient id="linear-gradient-54" x1="401.3" y1="137.19" x2="431.93" y2="137.19" gradientTransform="translate(200.9 -209.5) rotate(42.3)" gradientUnits="userSpaceOnUse"><stop offset="0" stop-color="#f9f3e8"/><stop offset="1" stop-color="#f1ebdf"/></linearGradient><linearGradient id="linear-gradient-55" x1="462.69" y1="107.29" x2="538.37" y2="107.29" gradientUnits="userSpaceOnUse"><stop offset="0" stop-color="#e8a98e"/><stop offset="0.15" stop-color="#eeaf94"/><stop offset="0.57" stop-color="#fabb9f"/><stop offset="1" stop-color="#febfa3"/></linearGradient><linearGradient id="linear-gradient-56" x1="505.62" y1="141.91" x2="503.5" y2="148.08" gradientUnits="userSpaceOnUse"><stop offset="0" stop-color="#e0947c"/><stop offset="0.85" stop-color="#f1ae93"/><stop offset="1" stop-color="#f4b398"/></linearGradient><linearGradient id="linear-gradient-57" x1="513.36" y1="122.73" x2="515.34" y2="119.01" gradientUnits="userSpaceOnUse"><stop offset="0" stop-color="#ac6345"/><stop offset="0.07" stop-color="#b86f52"/><stop offset="0.21" stop-color="#ca7f65"/><stop offset="0.38" stop-color="#d78b72"/><stop offset="0.59" stop-color="#de927a"/><stop offset="1" stop-color="#e0947c"/></linearGradient><linearGradient id="linear-gradient-58" x1="473.26" y1="93.61" x2="479.76" y2="90.58" gradientUnits="userSpaceOnUse"><stop offset="0" stop-color="#eeaf93"/><stop offset="1" stop-color="#e0947c"/></linearGradient><linearGradient id="linear-gradient-59" x1="510.78" y1="135.2" x2="508.88" y2="123.24" xlink:href="#linear-gradient-6"/><linearGradient id="linear-gradient-60" x1="511.96" y1="119.8" x2="506.87" y2="132.41" xlink:href="#linear-gradient-40"/><linearGradient id="linear-gradient-61" x1="504.01" y1="135.64" x2="501.59" y2="143.09" xlink:href="#linear-gradient-6"/><linearGradient id="linear-gradient-62" x1="501.61" y1="151.72" x2="504.93" y2="153.06" gradientUnits="userSpaceOnUse"><stop offset="0" stop-color="#e0947c"/><stop offset="0.69" stop-color="#f1ae93"/><stop offset="1" stop-color="#fabb9f"/></linearGradient><linearGradient id="linear-gradient-63" x1="467.18" y1="129.32" x2="489.01" y2="136.41" xlink:href="#linear-gradient-5"/><linearGradient id="linear-gradient-64" x1="461.75" y1="95.21" x2="494.98" y2="86.93" xlink:href="#linear-gradient-40"/></defs><title>hostile-work-environment-harassment-california</title><path id="path1682" d="M0,355v6.9H960V355Z" style="fill:#fff"/><path id="path1684" d="M0,362.3V480H960V362.3Z" style="fill:#b395dd"/><path id="path1690" d="M0,0V355.5H960V0Z" style="fill:#0093b1"/><g id="g6412"><path id="path1756" d="M388.6,40.3h-124V144.6h124V40.3Z" style="fill:#fff"/><path id="path1758" d="M394.6,37.8H258.7a1.2,1.2,0,0,0-1.2,1.2,1.2,1.2,0,0,0,1.2,1.2H394.6a1.2,1.2,0,0,0,1.2-1.2,1.3,1.3,0,0,0-1.2-1.2Zm0,105.6H258.7a1.2,1.2,0,0,0-1.2,1.2,1.2,1.2,0,0,0,1.2,1.2H394.6a1.2,1.2,0,0,0,1.2-1.2,1.3,1.3,0,0,0-1.2-1.2Z" style="fill:#9a7e66"/><g style="clip-path:url(#clip-path)"><path id="path1760" d="M289.8,134.4h-5.6v-53h5.6Z" style="fill:#7bb9c8"/></g><g style="clip-path:url(#clip-path-2)"><path id="path1762" d="M295.3,134.4h-5.5V67h5.4v67.4Z" style="fill:#d37272"/></g><g style="clip-path:url(#clip-path-3)"><path id="path1764" d="M311.6,134.4H306V99.9h5.6Z" style="fill:#7bb9c8"/></g><g style="clip-path:url(#clip-path-4)"><path id="path1766" d="M317.1,134.4h-5.5V88.2h5.6v46.2Z" style="fill:#d37272"/></g><g style="clip-path:url(#clip-path-5)"><path id="path1768" d="M333.4,134.4h-5.6V120.5h5.6Z" style="fill:#7bb9c8"/></g><g style="clip-path:url(#clip-path-6)"><path id="path1770" d="M339,134.4h-5.6V77H339Z" style="fill:#d37272"/></g><g style="clip-path:url(#clip-path-7)"><path id="path1772" d="M347.9,46h8.2v2.8h-8.2Z" style="fill:#d37272"/></g><g style="clip-path:url(#clip-path-8)"><path id="path1774" d="M347.9,55.8h8.2v2.7h-8.2Z" style="fill:#7bb9c8"/></g><g style="clip-path:url(#clip-path-9)"><path id="path1776" d="M355.2,134.4h-5.5V105.1h5.4v29.3Z" style="fill:#7bb9c8"/></g><g style="clip-path:url(#clip-path-10)"><path id="path1778" d="M360.8,134.4h-5.6v-37h5.6Z" style="fill:#d37272"/></g><g style="clip-path:url(#clip-path-11)"><path id="path1780" d="M382.4,47.7H359.1v-.6h23.3Z" style="fill:#505050"/></g><g style="clip-path:url(#clip-path-12)"><path id="path1782" d="M382.4,52.8H359.1v-.6h23.3Z" style="fill:#505050"/></g><g style="clip-path:url(#clip-path-13)"><path id="path1784" d="M382.4,57.4H359.1v-.5h23.3Z" style="fill:#505050"/></g><g style="clip-path:url(#clip-path-14)"><path id="path1786" d="M382.4,62.6H359.1V62h23.3Z" style="fill:#505050"/></g><path id="path1788" d="M376.6,134.8H279.7v-1h96.9v1Z" style="fill:#7d7d7d"/></g><path id="path1692" d="M55.2,328.3H3.9v24H55.1l.2-24Z" style="fill:#fff"/><path id="path1694" d="M6.8,331.2H52.4v18.4H6.8V331.2Z" style="fill:#e3f5ff"/><path id="path1696" d="M21,340.4a6.5,6.5,0,0,1-6.4,6.4,6.4,6.4,0,0,1-6.4-6.4,6.5,6.5,0,0,1,6.4-6.4,6.4,6.4,0,0,1,6.4,6.4" style="fill:#bccbd4"/><path id="path1698" d="M15.7,337.3a1.1,1.1,0,1,1-1.1-1.1c.6,0,1.3.5,1.1,1.1m0,6.4a1.1,1.1,0,1,1-1.1-1.1c.6,0,1.3.5,1.1,1.1" style="fill:#859096"/><path id="path1700" d="M35.9,340.4a6.4,6.4,0,1,1-6.4-6.4,6.4,6.4,0,0,1,6.4,6.4" style="fill:#bccbd4"/><path id="path1702" d="M30.6,337.3a1.1,1.1,0,1,1-1.1-1.1,1.1,1.1,0,0,1,1.1,1.1m0,6.4a1.1,1.1,0,1,1-1.1-1.1,1.1,1.1,0,0,1,1.1,1.1" style="fill:#859096"/><path id="path1704" d="M50.8,340.4a6.4,6.4,0,1,1-6.4-6.4,6.4,6.4,0,0,1,6.4,6.4" style="fill:#bccbd4"/><path id="path1706" d="M45.5,337.3a1.1,1.1,0,1,1-1.1-1.1,1.1,1.1,0,0,1,1.1,1.1m0,6.4a1.1,1.1,0,1,1-1.1-1.1,1.1,1.1,0,0,1,1.1,1.1" style="fill:#859096"/><path id="path1708" d="M50.8,340.4a6.4,6.4,0,1,1-6.4-6.4,6.4,6.4,0,0,1,6.4,6.4" style="fill:#4d4d4d"/><path id="path1710" d="M44.4,345.3h0a1.8,1.8,0,0,1-1.9-1.9v-6a1.8,1.8,0,0,1,1.9-1.9h0a1.8,1.8,0,0,1,1.9,1.9v6a1.8,1.8,0,0,1-1.9,1.9" style="fill:#666"/><path id="path1712" d="M70,342.1H44.4v-3.6H69.8l.2,3.6Z" style="fill:#666"/><g id="g2178"><path id="path2180" d="M66.2,251.1H184.1v123a2.8,2.8,0,0,1-2.8,2.8H69a2.8,2.8,0,0,1-2.8-2.8Z" style="fill:#f2f2f2"/><path id="path2182" d="M66.2,307.6H184.1V310H164.9V314a1.7,1.7,0,0,1-1.7,1.7H140.3a5.2,5.2,0,0,1-4.1-2l-3-3.8h-67v-2.4Zm0,25.7H184.1v2.4H164.9v4.1a1.7,1.7,0,0,1-1.7,1.7H140.3a5.2,5.2,0,0,1-4.1-2l-3-3.8h-67v-2.4Zm0,20.4H184.1v2.4H164.9v4.1a1.7,1.7,0,0,1-1.7,1.7H140.3a5.6,5.6,0,0,1-4.1-1.9l-3-3.8h-67v-2.5Z" style="fill:#4d4d4d"/><path id="path2184" d="M66.2,229.2v22H93.5V231.8a2.8,2.8,0,0,1,2.8-2.8h75.2a2.7,2.7,0,0,0,2.7-3l-.3-3-1.1-10.5a2.6,2.6,0,0,0-2.7-2.4H70.8a2.9,2.9,0,0,0-2.8,2.5l-1.7,16.2v.3" style="fill:#fff"/><path id="path2186" d="M89.3,227.7v20.9a2.5,2.5,0,0,0,2.5,2.5h1.7V231.8a2.8,2.8,0,0,1,2.8-2.8h75.2a2.7,2.7,0,0,0,2.7-3l-.3-3h-80a4.8,4.8,0,0,0-4.6,4.7" style="fill:#ccc"/><path id="path2188" d="M93.5,248.6h88a2.5,2.5,0,0,1,2.5,2.5H93.5v-2.5Z" style="fill:#fff"/><path id="path2190" d="M171.5,229v5.8l2,.8a5.6,5.6,0,0,1,3.6,5.2v2.8a4.6,4.6,0,0,1,4.6,4.6v.2h-10v.2H93.5V228.8h78Z" style="fill:#4d4d4d"/><path id="path2192" d="M77,204.5h88.5a2.6,2.6,0,0,1,2.7,2.7v3H74.4v-3a2.6,2.6,0,0,1,2.7-2.7" style="fill:#ccc"/><path id="path2194" d="M87.1,190.7l37.8,9.3.8-4.9L87.6,188Z" style="fill:#333"/><path id="path2196" d="M132.4,194.2h17.4a17.1,17.1,0,0,1,15.5,10l.2.3H104l.2-.2a44,44,0,0,1,28.2-10.2" style="fill:#ccc"/><path id="path2198" d="M102.3,222.1h46.3a1.8,1.8,0,0,0,1.9-1.9v-6.1a1.9,1.9,0,0,0-1.9-1.9H102.3a1.9,1.9,0,0,0-1.9,1.9v6.1a1.8,1.8,0,0,0,1.9,1.9" style="fill:#5d8cab"/><path id="path2200" d="M81.9,378.4h0a5.8,5.8,0,0,1,6,5.8v.5H76.1v-.5a5.8,5.8,0,0,1,5.8-5.8" style="fill:#333"/><path id="path2202" d="M79.9,376.8H84v3.3H79.9v-3.3Z" style="fill:#333"/><path id="path2204" d="M77.2,384.3a4.7,4.7,0,0,0,4.7,4.7,4.8,4.8,0,0,0,4.7-4.7,4.7,4.7,0,0,0-4.7-4.7,4.8,4.8,0,0,0-4.7,4.7" style="fill:#4d4d4d"/><path id="path2206" d="M174.3,378.5h0a5.8,5.8,0,0,1,6,5.8v.5H168.5v-.5a5.9,5.9,0,0,1,5.8-5.8" style="fill:#333"/><path id="path2208" d="M172.5,377h4.1v3.3h-4.1Z" style="fill:#333"/><path id="path2210" d="M169.8,384.5a4.7,4.7,0,0,0,4.7,4.7,4.8,4.8,0,0,0,4.7-4.7,4.7,4.7,0,1,0-9.4,0" style="fill:#4d4d4d"/></g><polygon points="551.4 105.1 575.4 84.8 575 98 609.2 77.1 570.6 107.3 570.9 93.8 551.4 105.1" style="fill:#fcd46e"/><polygon points="549.1 86.7 559 60.4 564.4 70.9 582.1 39.6 565 80.1 559.4 69.4 549.1 86.7" style="fill:#fcd46e"/><polygon points="412.9 44.1 433.2 58.9 432.4 46 455 79.9 436.5 58.9 438 69.9 412.9 44.1" style="fill:#fcd46e"/><g style="opacity:0.56"><path d="M460.6,99.7l-22.1-8.3a2.7,2.7,0,0,0,0-4.4,4.2,4.2,0,1,0-6.6-4.1,6.7,6.7,0,0,0-4-.5c-4.3.8-7,5.7-6,10.9a11.5,11.5,0,0,0,1.3,3.7,2.7,2.7,0,0,0,1,5.2,6.1,6.1,0,1,0,12,.9,3.6,3.6,0,0,0,.8-4.7Z" style="fill:#f8f8f6"/></g><path d="M651,427.9s-4.1,5.7-2,10.2l4.9,3.8,1.3-.3.2,1.4a55.1,55.1,0,0,0,19,7.9s6.6,1.6,10.2-3.6c0,0,4.4-9-12.6-12.6Z" style="fill:url(#linear-gradient)"/><path d="M653.8,441.8l1.3-.3.2,1.4s11.8,6.9,19.8,7.9c0,0,6.2,1.3,7.5-1.8,0,0-2.6,1.4-7.9.6a152.8,152.8,0,0,1-18.5-7.2l-.7-2.2-7.2-4.5v2.4Z" style="fill:#351510"/><ellipse cx="678.2" cy="442.6" rx="3.3" ry="2.7" style="fill:#634036"/><path d="M756,425.9s4.6,5.2,3,10l-4.5,4.2-1.3-.2v1.4a55.1,55.1,0,0,1-18.1,9.7s-6.4,2.2-10.5-2.6c0,0-5.3-8.5,11.3-13.7Z" style="fill:url(#linear-gradient-2)"/><path d="M754.6,440.1l-1.3-.2v1.4s-11.1,8-19,9.8c0,0-6.1,1.9-7.7-1,0,0,2.7,1.2,7.9-.2a152.8,152.8,0,0,0,17.7-9l.5-2.3,6.7-5.2.2,2.4Z" style="fill:#351510"/><ellipse cx="730.3" cy="443.3" rx="3.3" ry="2.7" transform="translate(-40 73.9) rotate(-5.6)" style="fill:#634036"/><path d="M697,261.2l-6,6a39.6,39.6,0,0,0-1.9,11.5l-1.7,65s-4.7.4-1.3,3.1c0,0-4.1,1.2-1.4,4.4l-3.3,1.9a2.7,2.7,0,0,0-2,1.8L661,393.4s.6,13.7-4.4,16.4c0,0-2.8.8-.8,1.9,0,0-5.7,4.2-3.1,4.9l-2.5,11s14.1,7.1,21.7,7.1l1.2-13,2.6-1.2.5-6.8,27.3-57.2s1.7-4.9,2.4-7.2l9.7-57,7.2,2.2-6.4,59s-.9,7.1.9,10.8a273.4,273.4,0,0,1,17,51.9l2.4,2.7-.4,7.2-.2,4.2,1.6,1.4-.2,1.9s8.1.2,18.4-6.2l1.6-1.6-1.2-4.8-3.4-2.7.5-3.8a3,3,0,0,0-1.3-2.5l-1.9-1.9-2-17.5a36.1,36.1,0,0,0-6.3-17.9l-6.6-11.1s1.8-2.7-.2-3.7a3,3,0,0,0,0-5.1l15.6-60.4s2.2-8.3,1.7-9.4l-1.4-4.4Z" style="fill:#332621"/><polygon points="727.1 275.1 720.5 291 716.7 282.4 719.5 271.6 727.1 275.1" style="fill:#261b18"/><path d="M698.9,253.8s-2.9,5.9-1.9,7.4c0,0,27.2,16.6,53.6,20.3,0,0,2.4-.9,2.7-6.3Z" style="fill:#542d18"/><rect x="716" y="264.9" width="15.2" height="9.11" rx="3.7" ry="3.7" transform="translate(146.4 -243.4) rotate(21.2)" style="fill:#89672b"/><path d="M664,431.9h-.2a.5.5,0,0,1-.3-.6l6.6-17,2.2-12.3,23-41.9c3-3.3,4-10,4-10.1L710,283.8a.5.5,0,1,1,.9.1l-10.7,66.3c0,.3-1,7-4.2,10.6l-22.9,41.7L671,414.6l-6.6,17A.5.5,0,0,1,664,431.9Z" style="fill:#261b18"/><path d="M743,431.5a.5.5,0,0,1-.5-.3l-2.4-8.6v-6.1c-2.8-12.4-17.1-53.3-17.2-53.7-1.9-3.8-.7-8.3-.6-8.5l8.5-65.9a.5.5,0,0,1,.9.1l-8.5,66c0,.1-1.2,4.3.6,7.9.2.5,14.5,41.5,17.3,53.9h0v6.1l2.3,8.4a.5.5,0,0,1-.3.6Z" style="fill:#261b18"/><polygon points="690.7 270.7 698.3 281.3 698.6 292.2 699.9 279.6 690.7 270.7" style="fill:#261b18"/><polygon points="752.2 287 741.9 295.1 738.7 305.6 740.9 293.1 752.2 287" style="fill:#261b18"/><path d="M766.2,110.2s-20.1-7.4-8.5-18.8c0,0-2.3,5.5,6.3,7.7,0,0-3.3-4.6,4.5-11,0,0-2.6,6.3,1.7,8.3,0,0-3.1-1.7,2.8-6.6,0,0-3.6,8.6,9.4,10.7,0,0,23.6,1.3,22.8,19.6l3.8-4.7-2.2,5.5,3.8,2.7-4.6-.8s8.5,14.4-5.9,30.1l-10.8,8.2s-10,13.5-16,7.1Z" style="fill:#2d0e0a"/><path d="M801.9,122.3s11.1,15.1-5.2,30.6C796.7,152.9,811,139.7,801.9,122.3Z" style="fill:#140504"/><path d="M800.2,122.7s4.2,13.2-8,25.4C792.2,148.2,805.4,139.2,800.2,122.7Z" style="fill:#140504"/><path d="M762.4,106.1s-13,.2-22.1,23.2c0,0-1.9,11.5-8.7,19.2l4.9,1,2.6.6-.3,4.8s-4.2,1.1-2.2,5.7a62.5,62.5,0,0,1-.3,6.8s-.5,2.4,2.7,3.5l14,4.1,1.4,10,11.9-3.1a51.8,51.8,0,0,1,14.3-19.3,3.3,3.3,0,0,0,4.5-.8s3.6-3.9,7.2-5.3c0,0,3-.7,1.1-4.8,0,0-4.5-5.9-8.6-2.5a26.7,26.7,0,0,0-3.5,5.6l-3.4-.6s9.2-11,9-25.1c0,0,.6-11.3-12.4-15.7C774.7,113.4,764.4,109.7,762.4,106.1Z" style="fill:url(#linear-gradient-3)"/><ellipse cx="763.9" cy="140.9" rx="9.9" ry="7.6" transform="translate(-7.9 229) rotate(-17)" style="fill:#e8a289"/><path d="M751.9,133.2c0,4.3-2.6,5.5-6.7,6.2s-6.4,1.3-6.4-2.9,3.7-10.9,7.2-10.9S751.9,128.9,751.9,133.2Z" style="fill:#e8a289"/><path d="M754.2,158.7a5,5,0,0,1,.8,4.8A3.5,3.5,0,0,0,754.2,158.7Z" style="fill:#e0947c"/><path d="M748.4,156.8a5,5,0,0,1,.8,4.8A3.5,3.5,0,0,0,748.4,156.8Z" style="fill:#e0947c"/><path d="M745.1,155.8a5,5,0,0,0-3.5,3.4A3.5,3.5,0,0,1,745.1,155.8Z" style="fill:#e0947c"/><path d="M765.8,120.8a4.7,4.7,0,0,0-.6,2,6.3,6.3,0,0,0,.3,3.3,11.8,11.8,0,0,0,2.2,3.5,23.6,23.6,0,0,0,10.4,7.2,40.4,40.4,0,0,1-5.3-6.3,14,14,0,0,1-1.8-3.4,6.5,6.5,0,0,1-.2-3.8,2.8,2.8,0,0,0,.2-1.8c-.2-.5-.8-.7-1.3-.9l-1.8-.4a2.5,2.5,0,0,0-1.7.2Z" style="fill:#421711"/><path d="M743.2,123.3c-.4,1.1,4.9.4,7.1.2s5.1-.8,6.5-2.8a4,4,0,0,0,.9-1.7c0-.8-.9-1-1.6-1.4a1.8,1.8,0,0,0-2.1,0,15.2,15.2,0,0,0-1.1,1.5,8,8,0,0,1-4.6,2.6C746.6,122.1,744.6,122.3,743.2,123.3Z" style="fill:#421711"/><path d="M770.8,139.6c0,4-3.9,7.9-8.1,7.9s-8.2-1.2-8.2-5.2,5.2-8.7,9.4-8.7S770.8,135.6,770.8,139.6Z" style="fill:#efebea"/><path d="M763.8,143.1c-1.8,2.5-5.9,4-7.9,2.5s-1.9-4.4-.3-7,5.3-3.6,7.3-2.1A4.5,4.5,0,0,1,763.8,143.1Z" style="fill:#49666b"/><ellipse cx="757.6" cy="139.8" rx="3.9" ry="2.3" transform="translate(169.5 637.4) rotate(-50.7)" style="fill:#1a2021"/><circle cx="760" cy="143.4" r="1.4" style="fill:#efebea"/><circle cx="762.4" cy="141.2" r="0.9" style="fill:#efebea"/><path d="M750.2,131.9c0,3.7-.9,6.8-4.8,7.2s-5.5-1.9-5.5-5.6,2.4-7.5,4.9-7.5A5.7,5.7,0,0,1,750.2,131.9Z" style="fill:#efebea"/><path d="M747,133.3c-.7,2.4-3.3,4.2-5,3.7s-2.4-2.7-1.9-5.2,2.9-4.4,4.7-3.9S747.7,130.9,747,133.3Z" style="fill:#49666b"/><ellipse cx="742.3" cy="132.2" rx="3.5" ry="2.1" transform="translate(375.7 791) rotate(-71)" style="fill:#1a2021"/><circle cx="744.4" cy="134.9" r="0.9" style="fill:#efebea"/><circle cx="745.6" cy="132.9" r="0.5" style="fill:#efebea"/><path d="M742.8,140.4a4.7,4.7,0,0,0-.3,3.9,3.1,3.1,0,0,0,2.3,1.7,24.5,24.5,0,0,0,3.7-.3,7.1,7.1,0,0,1,2.2.3,2.7,2.7,0,0,0,1.1,1.8,2,2,0,0,0,1.5,0,3.9,3.9,0,0,0,2.2-1.9,4.4,4.4,0,0,1-1.4,2.8,2.9,2.9,0,0,1-3,.5l-1.3-.9a5.3,5.3,0,0,0-3.5-.2,7,7,0,0,1-3.5.1,3.3,3.3,0,0,1-2-2,6.4,6.4,0,0,1,2-5.7Z" style="fill:url(#linear-gradient-4)"/><path d="M738.8,154.9a6.4,6.4,0,0,0,3.4,2.8s3.9,3.1,7.6,1.9c0,0,2.5,2.9,5.8,1.8,0,0,4.6,1.5,6.3,4.7l-.7-4.9-7.3-3.6-13.3-3.1Z" style="opacity:0.37;fill:url(#linear-gradient-5)"/><path d="M739,150.1l-.2,4.8a15.7,15.7,0,0,0,4.9,1.2s.9,1.7,5.4,1.7a8,8,0,0,0,5.5,1.5s2.5,1.5,4.1,1.3c0,0,1.9,2.2,3.1,2.1s.2-6.7-10.3-7l-2.1-3.1-4-.6Z" style="fill:url(#linear-gradient-6)"/><path d="M762.5,161.8a9,9,0,0,0-1.2-1.6c-3.1-4.6-8.8-4.7-9.8-4.7l-2-3-3.9-.6c-3.2-1.5-13.2-3.2-13.6-3.3s10.3,2.3,13.4,3.7l3.8.6,2.1,3.1h.1a12.2,12.2,0,0,1,7.6,2.4,7.7,7.7,0,0,1,2.3,5.1c0,.6,0,1.1.1,1.7a2.6,2.6,0,0,0,.7,1.5,1.4,1.4,0,0,0,1.5.3C764.6,166.5,763.4,163.3,762.5,161.8Z" style="fill:#e0947c"/><path d="M743.7,156.1l.3-3.1.4,3.8A1.8,1.8,0,0,1,743.7,156.1Z" style="fill:#c1b8b0"/><path d="M749.3,154.4l-.2,3.4,1,.6Z" style="fill:#c1b8b0"/><polygon points="754.6 159.3 754.7 156.9 755.3 159.6 754.6 159.3" style="fill:#c1b8b0"/><polygon points="758.7 160.5 758.8 158.6 759 160.9 758.7 160.5" style="fill:#c1b8b0"/><path d="M753,175l-1.4,3.7,3,6.3s10.2-7.2,17.4-15.9l-10.8,5.8S758.9,176.5,753,175Z" style="fill:url(#linear-gradient-7)"/><ellipse cx="744.3" cy="164.8" rx="2" ry="3.5" transform="translate(397.6 843.7) rotate(-75.4)" style="opacity:0.33;fill:url(#linear-gradient-8)"/><path d="M747.9,165.4h-.2c-2.7-3.7-6.1-2-6.2-1.9h-.3a.2.2,0,0,1,.1-.3,5.3,5.3,0,0,1,6.8,2.1.2.2,0,0,1-.1.3Z" style="fill:#e0947c"/><path d="M789.3,155.2s1.2-2.9-2.1-3.1a4.3,4.3,0,0,0-2.4,2.8s2.8.2,2,2.4Z" style="fill:url(#linear-gradient-9)"/><path d="M789.4,152.8a2.6,2.6,0,0,0-2.3-1c-.1,0-2.8.5-4.1,6.8a.2.2,0,0,0,.2.3h.1l.2-.2a16.6,16.6,0,0,1,1.1-3.5,2.5,2.5,0,0,1,1.8.7,1.7,1.7,0,0,1,0,1.6.2.2,0,0,0,.1.3h.1l.2-.2a2.1,2.1,0,0,0-.1-2.1,2.7,2.7,0,0,0-2-.9c1.2-2.2,2.3-2.4,2.3-2.4a2.1,2.1,0,0,1,1.9.7,2.7,2.7,0,0,1,0,2.2.2.2,0,0,0,.4.2A3.1,3.1,0,0,0,789.4,152.8Z" style="fill:#e0947c"/><path d="M764.1,119.2s-4.1,4.4-.8,8.7C763.2,127.9,757.7,123.7,764.1,119.2Z" style="opacity:0.44;fill:url(#linear-gradient-10)"/><path d="M756.5,114.9s4.1,4.4.8,8.7C757.3,123.6,762.9,119.3,756.5,114.9Z" style="opacity:0.44;fill:url(#linear-gradient-11)"/><path d="M740.4,158.9c0,1.1-1.2,1.3-1.8,1.3a2.2,2.2,0,0,1-1.6-2.1c0-1.1.9-1.3,1.6-1.3A2.4,2.4,0,0,1,740.4,158.9Z" style="fill:#f9d1b7"/><path d="M745.9,145.9c-1.8.2-2.9,0-3.6-1a4.5,4.5,0,0,1-.2-3.7c1.9-4.3,7.6-1.4,7.7-1.4h0c-.2-.1-5.4-2-7,1.7a3.9,3.9,0,0,0,.1,3,3.6,3.6,0,0,0,3,1.4Z" style="fill:#e0947c"/><path d="M752.4,148.1a1.5,1.5,0,0,1-1-.3c-.5-.4-.7-1.2-1.3-1.4h-1.6c-1.2-.4.6-1.6,1.2-1.6a1.7,1.7,0,0,1,1.5,1c.2.5.2,1.4.7,1.7a1.6,1.6,0,0,0,1,.1,3.3,3.3,0,0,0,2-1.7,1.9,1.9,0,0,0-.2-1.6,5.6,5.6,0,0,0-1-1.3,6.4,6.4,0,0,1,1.4,1,2.2,2.2,0,0,1,.7,1.5,2.1,2.1,0,0,1-.8,1.5,4.7,4.7,0,0,1-1.6.7Z" style="fill:#e0947c"/><path d="M744.9,142.6c0,1.1.1,2.1-.7,2.1s-1.3-.9-1.3-2,.6-2,1.3-2S744.9,141.5,744.9,142.6Z" style="fill:#f9d1b7"/><path d="M778.5,114.9s-31.4,1.9-29.4-15.4c0,0,1.7,4.2,8.3,3.6l17.3,3.8Z" style="fill:#2d0e0a"/><path d="M753.1,104.6s8.5,9.4,25.9,6.4C779,111,764.4,116.1,753.1,104.6Z" style="fill:#140504"/><path d="M756.4,97.1s.7,15.1,28,12.7C784.4,109.8,760.9,112.1,756.4,97.1Z" style="fill:#140504"/><path d="M766.5,92.6s-4.7,11.5,15.9,15.4C782.4,108,764,104.4,766.5,92.6Z" style="fill:#140504"/><path d="M800.3,121s1.6-13.6-14.6-16.5C785.7,104.5,800,106.9,800.3,121Z" style="fill:#140504"/><path d="M817.9,179.6s41,60,49.2,64l30.6-28.7s-33.4-34.3-45.9-61.9Z" style="fill:#f4f1e9"/><path d="M825.6,221.2l4.2-3.7a13.5,13.5,0,0,1,4.3-10.7l8.5-9a1.3,1.3,0,0,1,2.4.2,6.9,6.9,0,0,1-2.5,7.7l-1.1,2.2.4,5.2,6.2,8.4-6.1,4.6s-2.1,2.4-4.9,1.4l-5.5,4Z" style="fill:url(#linear-gradient-12)"/><path d="M743.8,181l-18.6-.2L718.9,203s-11.5,27.4-14.1,32.6c0,0-10.4,13.9-5.9,18.6,0,0,14.1,10.1,53.7,22.1,0,0,6.8-.7,6.1-9.7,0,0,2.1-30.6,13.7-47.1l13.7,35.3s2.4,5.4,6.7,5.7a14.4,14.4,0,0,0,6.9-1.9l32.8-27-7.2-11.9-27.8,23.1s-.3-1.5-1.3-.5l-12.4-38.1s-6.1-9.6-15.2-13L752.4,186Z" style="fill:url(#linear-gradient-13)"/><path d="M743.8,181l.6,10.2s-.2,1,1.9.2l3.8-.8,3.4,1.2,2,.8,2.3,5.3s.7,1.5,3.1-.3l8.6-6.2-9.3-4.5Z" style="fill:url(#linear-gradient-14)"/><polygon points="705.1 234.7 703.2 237.8 720 246 724.3 255.1 723.9 238.9 705.1 234.7" style="opacity:0.61;fill:url(#linear-gradient-15)"/><path d="M757.4,191.9l-2.5-6.8h-3.4l-3.3,2.7a19.6,19.6,0,0,0,2.4,1.6l-28.2,53.9,1.9,11.8,10.5-5.5,19.6-58.5A16.3,16.3,0,0,0,757.4,191.9Z" style="fill:url(#linear-gradient-16)"/><path d="M754.6,184.8l12.6-3.2s.5-.1.7.7l2.5,8.1a.6.6,0,0,1-.4.9l-10.7,4.6s-.4.4-.9-.2l-4-10.3-8.6,3.8s-.6.4-.8-.6l-1.3-7.6a.6.6,0,0,1,.5-.8l6.8-2a.5.5,0,0,1,.7.3Z" style="fill:#efeadf"/><path d="M772.4,219.6l13.7,35.3s3.7,9.7,13.6,3.8l32.8-27-2.8-4.9L799.3,253s-6.6,4.2-9.4-1.2l-14.4-41.5Z" style="opacity:0.39;fill:url(#linear-gradient-17)"/><path d="M841.3,208s.5,4.5.4,5.2l3.4,4.7s-5.2,1.2-7.4,3.2c0,0,4.1-7.9,1.8-12.5C839.5,208.6,841,209.2,841.3,208Z" style="fill:url(#linear-gradient-18)"/><path d="M843.5,198.3l-1.6,1.7a.5.5,0,0,1-.7,0h0a.5.5,0,0,1,0-.7l1.6-1.7a.5.5,0,0,1,.7,0h0A.5.5,0,0,1,843.5,198.3Z" style="fill:#f9d1b7"/><path d="M825.4,180.5h-.2a.2.2,0,0,1,0-.3l23.6-18.4h.3a.2.2,0,0,1,0,.3l-23.6,18.4Z" style="fill:#8e7e78;opacity:0.41000000000000003"/><path d="M827.8,183.9h-.2a.2.2,0,0,1,0-.3l23.6-18.4h.3a.2.2,0,0,1,0,.3l-23.6,18.4Z" style="fill:#8e7e78;opacity:0.41000000000000003"/><path d="M831.4,189.4h-.2a.2.2,0,0,1,0-.3l23.6-18.4h.3a.2.2,0,0,1,0,.3l-23.6,18.4Z" style="fill:#8e7e78;opacity:0.41000000000000003"/><path d="M835.1,193.5H835a.2.2,0,0,1,0-.3l23.6-18.4h.3a.2.2,0,0,1,0,.3l-23.6,18.4Z" style="fill:#8e7e78;opacity:0.41000000000000003"/><path d="M838.9,198.7h-.2a.2.2,0,0,1,0-.3l23.6-18.4h.3a.2.2,0,0,1,0,.3l-23.6,18.4Z" style="fill:#8e7e78;opacity:0.41000000000000003"/><path d="M844.9,205.9h-.2a.2.2,0,0,1,0-.3l23.6-18.4h.3a.2.2,0,0,1,0,.3L845,205.8Z" style="fill:#8e7e78;opacity:0.41000000000000003"/><path d="M848,211.1h-.2a.2.2,0,0,1,0-.3l23.6-18.4h.3a.2.2,0,0,1,0,.3L848.2,211Z" style="fill:#8e7e78;opacity:0.41000000000000003"/><path d="M852.1,217h-.2a.2.2,0,0,1,0-.3l23.6-18.4h.3a.2.2,0,0,1,0,.3L852.3,217Z" style="fill:#8e7e78;opacity:0.41000000000000003"/><path d="M856.3,222.5h-.2a.2.2,0,0,1,0-.3l23.6-18.4h.3a.2.2,0,0,1,0,.3l-23.6,18.4Z" style="fill:#8e7e78;opacity:0.41000000000000003"/><path d="M860.7,227.4h-.2a.2.2,0,0,1,0-.3l23.6-18.4h.3a.2.2,0,0,1,0,.3l-23.6,18.4Z" style="fill:#8e7e78;opacity:0.41000000000000003"/><path d="M865,233.8h-.2a.2.2,0,0,1,0-.3L888.4,215h.3a.2.2,0,0,1,0,.3l-23.6,18.4Z" style="fill:#8e7e78;opacity:0.41000000000000003"/><path d="M797.5,277.9s28.9,36.4,63.8,41.8c0,0,6.6-17,28.3-31.1,0,0-38.6-.9-56.5-35.5C833,253.1,816.9,273.8,797.5,277.9Z" style="fill:#f4f1e9"/><path d="M806.8,280.1l-.2-.2a.2.2,0,0,1,.1-.3c.2-.1,17.9-6.2,25.6-17.8h.3a.2.2,0,0,1,.1.3c-7.7,11.7-25.6,17.9-25.8,18Z" style="fill:#8e7e78;opacity:0.41000000000000003"/><path d="M810.7,283.7l-.2-.2a.2.2,0,0,1,.1-.3c.2-.1,17.9-6.2,25.6-17.8h.3a.2.2,0,0,1,.1.3c-7.7,11.7-25.6,17.9-25.8,18Z" style="fill:#8e7e78;opacity:0.41000000000000003"/><path d="M814.3,287.9l-.2-.2a.2.2,0,0,1,.1-.3c.2-.1,17.9-6.2,25.6-17.8h.3a.2.2,0,0,1,.1.3c-7.7,11.7-25.6,17.9-25.8,18Z" style="fill:#8e7e78;opacity:0.41000000000000003"/><path d="M819.5,292.2l-.2-.2a.2.2,0,0,1,.1-.3c.2-.1,17.9-6.2,25.6-17.8h.3a.2.2,0,0,1,.1.3c-7.7,11.7-25.6,17.9-25.8,18Z" style="fill:#8e7e78;opacity:0.41000000000000003"/><path d="M824.7,296.4l-.2-.2a.2.2,0,0,1,.1-.3c.2-.1,17.9-6.2,25.6-17.8h.3a.2.2,0,0,1,.1.3c-7.7,11.7-25.6,17.9-25.8,18Z" style="fill:#8e7e78;opacity:0.41000000000000003"/><path d="M830.5,300.2l-.2-.2a.2.2,0,0,1,.1-.3c.2-.1,17.9-6.2,25.6-17.8h.3a.2.2,0,0,1,.1.3c-7.7,11.7-25.6,17.9-25.8,18Z" style="fill:#8e7e78;opacity:0.41000000000000003"/><path d="M836.3,304.4l-.2-.2a.2.2,0,0,1,.1-.3c.2-.1,17.9-6.2,25.6-17.8h.3a.2.2,0,0,1,.1.3c-7.7,11.7-25.6,17.9-25.8,18Z" style="fill:#8e7e78;opacity:0.41000000000000003"/><path d="M870.7,288.6h.2a.2.2,0,0,1-.1.3c-.2.1-17.2,7.9-23.7,20.2h-.3a.2.2,0,0,1-.1-.3c6.6-12.4,23.8-20.3,23.9-20.4Z" style="fill:#8e7e78;opacity:0.41000000000000003"/><path d="M877.5,291.2h.2a.2.2,0,0,1-.1.3c-.2.1-17.2,7.9-23.7,20.2h-.3a.2.2,0,0,1-.1-.3c6.6-12.4,23.8-20.3,23.9-20.4Z" style="fill:#8e7e78;opacity:0.41000000000000003"/><path d="M823.1,351.2s48.5-16.5,71.1-36.7c0,0,7.5,12.7,27.3,26.4,0,0-34.9,27.8-67.4,36.7C854.2,377.6,839.1,361.1,823.1,351.2Z" style="fill:#f4f1e9"/><path d="M913.6,341.5c-9.4-5.6-21.1-20.4-21.3-20.5l.4-.3c.1.1,11.9,14.9,21.1,20.4Z" style="fill:#8e7e78;opacity:0.41000000000000003"/><path d="M909.6,344.1c-9.4-5.6-21.1-20.4-21.3-20.5l.4-.3c.1.1,11.9,14.9,21.1,20.4Z" style="fill:#8e7e78;opacity:0.41000000000000003"/><path d="M905.6,348.4c-9.4-5.6-21.1-20.4-21.3-20.5l.4-.3c.1.1,11.9,14.9,21.1,20.4Z" style="fill:#8e7e78;opacity:0.41000000000000003"/><path d="M900.2,351.9c-9.4-5.6-21.1-20.4-21.3-20.5l.4-.3c.1.1,11.9,14.9,21.1,20.4Z" style="fill:#8e7e78;opacity:0.41000000000000003"/><path d="M894.1,355.2c-9.4-5.6-21.1-20.4-21.3-20.5l.4-.3c.1.1,11.9,14.9,21.1,20.4Z" style="fill:#8e7e78;opacity:0.41000000000000003"/><path d="M887.9,358.3c-9.4-5.6-21.1-20.4-21.3-20.5l.4-.3c.1.1,11.9,14.9,21.1,20.4Z" style="fill:#8e7e78;opacity:0.41000000000000003"/><path d="M881.6,361.6c-9.4-5.6-21.1-20.4-21.3-20.5l.4-.3c.1.1,11.9,14.9,21.1,20.4Z" style="fill:#8e7e78;opacity:0.41000000000000003"/><path d="M874.5,364.1c-9.4-5.6-21.1-20.4-21.3-20.5l.4-.3c.1.1,11.9,14.9,21.1,20.4Z" style="fill:#8e7e78;opacity:0.41000000000000003"/><path d="M867.9,366.7c-9.4-5.6-21.1-20.4-21.3-20.5l.4-.3c.1.1,11.9,14.9,21.1,20.4Z" style="fill:#8e7e78;opacity:0.41000000000000003"/><path d="M862.5,370c-9.4-5.6-21.1-20.4-21.3-20.5l.4-.3c.1.1,11.9,14.9,21.1,20.4Z" style="fill:#8e7e78;opacity:0.41000000000000003"/><path d="M750.6,248.5s8.1,1.6,12.4,2c0,0,2,.6,1.5,2.4,0,0-1.6,2-5.4,1.2C759.1,254,750.9,249.6,750.6,248.5Z" style="fill:url(#linear-gradient-19)"/><path d="M735.4,238.1l5.8,3.9a7.8,7.8,0,0,1,4.1,2.6s9.2,7.1,15.4,9.7l3.7,2.1a6.2,6.2,0,0,1,2.3,2.9s3.1,7,4.1,8.8c0,0,.9,2.2-.9,2.5a9.9,9.9,0,0,1-3.9-4.6l1.4,7.7a1.6,1.6,0,0,1-1,2s-2,.2-2.7-2.7l.5,4.5a1.1,1.1,0,0,1-1.2,1.2s-2,.8-2.6-3.8l-1.1-5.8-5.3-5.9s-.7-.6-1.2-.3a1.4,1.4,0,0,0,.4,1.8l1.5,2.9a2.1,2.1,0,0,1,.4,1.6l-.4,7.9s-1.8,1.1-2.2-.2a19.5,19.5,0,0,1-1.3-6.6l-3.1-5.3-10.7-8.5a9,9,0,0,1-3.3-6.6s-3.3-2.9-5-4.2Z" style="fill:url(#linear-gradient-20)"/><path d="M758.6,256.8l5.7,3.9s1.6.6,1.6,5.4c0,0,1.8,4.7,3.9,4.6,0,0-3.7-5.5-3.9-10.4a1.6,1.6,0,0,0-1.6-1.4Z" style="fill:url(#linear-gradient-21)"/><path d="M756.3,259.2l5.5,6.4a3.1,3.1,0,0,1,.8,1.9l.9,5.5s.7,3.1,2.7,2.7a36.7,36.7,0,0,1-2.4-10.5,2.8,2.8,0,0,0-1.4-2.6S758.2,261,756.3,259.2Z" style="fill:url(#linear-gradient-22)"/><path d="M765.9,266s-.2-3.5-.9-4.7l-.7-.6-5.5-3.9,5.7,3.6s.9.4,1,1S766.2,265,765.9,266Z" style="fill:#e0947c"/><path d="M756.3,259.2l5.5,6.4s.9,1.1.8,1.9.8,5,.9,5.5-.5-5.5-.5-5.5a2.9,2.9,0,0,0-.9-2.2Z" style="fill:#e0947c"/><path d="M744.4,245l12.1,8.2-5.7,6.2s-7.7-2.6-11.9-8.1C739,251.3,741.8,245.9,744.4,245Z" style="opacity:0.16;fill:url(#linear-gradient-23)"/><path d="M754,277.2h0a.6.6,0,0,1-.6-.6v-1.4a.6.6,0,0,1,.6-.6h0a.6.6,0,0,1,.6.6v1.4A.6.6,0,0,1,754,277.2Z" style="fill:#f9d1b7"/><rect x="762.6" y="275.7" width="1.4" height="2.59" rx="0.7" ry="0.7" transform="translate(-34.6 126.2) rotate(-9.2)" style="fill:#f9d1b7"/><rect x="765.8" y="272.5" width="1.4" height="2.59" rx="0.7" ry="0.7" transform="translate(-37.6 147.7) rotate(-10.7)" style="fill:#f9d1b7"/><rect x="769.3" y="267.2" width="1.4" height="2.59" rx="0.7" ry="0.7" transform="translate(-45.1 291.8) rotate(-20.9)" style="fill:#f9d1b7"/><path d="M725.5,180.9s-2.8-.7-9.4,4c0,0-19.6,18.4-28.7,30.9,0,0-4.5,6.4.5,10.1l41,21.2,9.2-9.4-33.9-18.8s1.8-.4.5-1.9l15.2-12.8S727.2,184.2,725.5,180.9Z" style="fill:url(#linear-gradient-24)"/><path d="M717.8,205.9l6-12.5-23.4,20.9s1.5,2.1-.9,2.2l4.7,2.4s1.8-.6.5-1.9Z" style="opacity:0.59;fill:url(#linear-gradient-25)"/><path d="M409.5,250s-11.3,4.2-12.5,21.7c0,0-12.2,55.8-11.3,67.1,0,0-.7,4,1.2,4.9l-17.9,49.5s-1.2,4.5,1.6,6.6l-4.7,7.8s-1.6,20.3-.2,23.3c0,0,4.3-11.4,30.4-9.5,0,0,16.6,2.8,18.8,4.1l.3-13.2-3.1-3.1,3.8-5.3a2.9,2.9,0,0,0-.5-3.5l-1.6-2.8,15.9-33.8s.9-1.9.2-3.1l-1.9-5.3,2.4-1.3s2.5-.5,3-2.2l23.1-47s.9-3.1,6.4-3.1a4.5,4.5,0,0,1,4,5.4l-5.2,41.7s-.6,2.4,0,3l2.2,5.3-1.4,3.5-10.2,18.1s-2.4,2.1-1.6,4.7l1.2,23.1-2.1,3.8,1.4,6.6-3.3,3.5,1.6,4.7s25.7,1.4,39.1,3.1l8-10.1-2.1-6.4.7-1.4-1.6-10.6s7.8-25.9,9.9-31.3a4.8,4.8,0,0,0-.7-3.1l-1.2-7.1,4.7-6.6a6.4,6.4,0,0,0,1.2-2.6s6-39.3,14.8-63.8a10.3,10.3,0,0,0,.5-6.3L519.3,268Z" style="fill:url(#linear-gradient-26)"/><path d="M422.9,293.4h-.3c-11-10.3-17.9-24.5-18-24.6a.5.5,0,0,1,.8-.4c.1.1,6.9,14.2,17.8,24.4a.5.5,0,0,1,0,.7Z" style="fill:#161115"/><path d="M505.9,300.3l-.4-.2a.5.5,0,0,1,.1-.7c10.2-6.5,14.9-12.1,15-12.2a.5.5,0,0,1,.7.6c0,.1-4.9,5.8-15.2,12.3Z" style="fill:#161115"/><polygon points="468.8 271.4 463.2 297.8 474 293.4 482 269.1 468.8 271.4" style="fill:#161115"/><polygon points="427.9 355.1 429.8 360.5 420.5 356.1 427.9 355.1" style="opacity:0.65;fill:url(#linear-gradient-27)"/><polygon points="370.6 399.8 381.7 406 365.4 416.3 365.9 407.6 370.6 399.8" style="opacity:0.65;fill:url(#linear-gradient-28)"/><polygon points="413.7 397.5 416 401.2 406.3 404.3 413.7 397.5" style="opacity:0.65;fill:url(#linear-gradient-29)"/><polygon points="412 409.2 415.2 412.3 398.7 412 412 409.2" style="opacity:0.65;fill:url(#linear-gradient-30)"/><polygon points="501.3 358.1 506.7 350.4 495.1 350.4 491.2 356.6 501.3 358.1" style="fill:url(#linear-gradient-31)"/><polygon points="503.2 368.3 493.3 399.6 485.3 399.1 493.3 367.8 503.2 368.3" style="fill:url(#linear-gradient-32)"/><polygon points="461.5 351.7 463.7 357 477.4 357.3 472.2 351.4 461.5 351.7" style="fill:url(#linear-gradient-33)"/><polygon points="449.5 410.2 450.9 416.8 467.8 419.2 449.5 410.2" style="fill:url(#linear-gradient-34)"/><polygon points="487.4 425.7 482.7 404.3 482.7 404.1 492.6 367.5 491.2 356.6 495.9 346.6 505.3 293.4 505.3 293.4 497.8 347.1 492 356.7 494.5 367.6 494.5 367.8 484.6 404.3 488.4 428.1 487.4 425.7" style="fill:#161115"/><path d="M386.8,343.8s11.8,9,19.3,13l-5.7,20-21.9-10.1Z" style="opacity:0.55;fill:url(#linear-gradient-35)"/><polygon points="391.6 421.1 390.8 407 390.9 406.8 406.2 356.7 410 356.7 441.7 278.9 441.7 278.9 411.3 358.6 407.6 358.6 392 406.9 393.7 421.2 391.6 421.1" style="fill:#161115"/><path d="M419.8,439.5c-.8,9.9-8.3,11.8-25.7,11.8s-31.8.7-31.8-9.2,12.9-20.3,30.2-20.3S420.8,427.5,419.8,439.5Z" style="fill:#351510"/><path d="M419.8,436.3c-.8,9.9-8.3,11.8-25.7,11.8s-31.8.7-31.8-9.2,12.9-20.3,30.2-20.3S420.8,424.3,419.8,436.3Z" style="fill:url(#linear-gradient-36)"/><ellipse cx="384.4" cy="429.3" rx="11.3" ry="5.3" style="fill:#634036"/><path d="M449.3,425s-4.2,14.8,2.7,20.4l11,.6,4.9-4.1s2.9,4.2,5.5,4.5l44.3-.5s5.2.7,6.8-6.1c0,0,7.1-20.5-13.2-21.7,0,0-8-2.4-21.4,3.8C489.8,422,464.8,424.9,449.3,425Z" style="fill:url(#linear-gradient-37)"/><path d="M523,442.8s.9,2.9-5.4,3.2l-44.3.5a7.5,7.5,0,0,1-5.5-4.5l-4.9,4.1-11-.6-1.6-1.9,11.5.7,6.2-4.7s2.7,5.2,5.5,5.2Z" style="fill:#351510"/><path d="M449.3,425l40.5-3.1,4.9-2-5.7,5.5S457.4,430.2,449.3,425Z" style="fill:#351510"/><ellipse cx="512.8" cy="422.6" rx="7.6" ry="3.6" style="fill:#634036"/><path d="M410.2,238.6s-3.5,6.6-1.9,11c0,0,25.4,22.6,75.7,23.6,0,0,23.6,0,35.5-4.7,0,0,4.1-7.2,2.8-12.9Z" style="fill:#542d18"/><path d="M490.5,274.7l-21.2-.6a2.8,2.8,0,0,1-2.7-2.9l2.1-7.5c0-1.6-.5-2.8,1-2.7l21.2.6c1.6,0,4.7,1.4,4.6,2.9l-2.1,7.5A2.8,2.8,0,0,1,490.5,274.7Z" style="fill:#89672b"/><path d="M586.3,209.7s17.2-35.6,18.1-39.6c0,0,7.4,1.1,16-6.1,0,0,5.9-.6,7.7-2.7,0,0,1.9-2.4-.7-6.4,0,0,2.7-1.8,1.7-3.9,0,0-.7-2.3-2.1-2.7l1.4-1.1.4-.6s1.6-2.5-2.5-5.4l12.8-4.4s10.1-3.5,9.8-6.9c0,0-.4-2.7-7.2-1.5L610.6,136s-16.1,2.6-20.1,13.5l-3.4,10.6-21.4,27S571.5,207.6,586.3,209.7Z" style="fill:url(#linear-gradient-38)"/><path d="M395.4,237.7s-6,19.4-4.3,30.7c0,0,6.2.5,8.6,5.9a19.1,19.1,0,0,0,5.5,6s5.2,4-.2,10c0,0,.4,6.1-.7,8.7a3.5,3.5,0,0,1-3.1,2.5s-12.8,2.5-16.1,1.5c0,0-3.8,0-4.7-2.7l-9.5-16a24.1,24.1,0,0,1-1.6-8.8s-3.1-35.3.9-47.7Z" style="fill:url(#linear-gradient-39)"/><path d="M618.5,158.8a1.9,1.9,0,0,0,.8,3.7h1.3a1.9,1.9,0,0,0,1.9-1.9,1.9,1.9,0,0,0-.4-1.1A11.4,11.4,0,0,1,618.5,158.8Z" style="fill:#f9d1b7"/><path d="M364.8,259.7c3.8-1.9,7.6-3.8,10.7-6.6a1.6,1.6,0,0,0,.6-1,1.1,1.1,0,0,0-.7-1,3.5,3.5,0,0,0-1.3-.2,30.2,30.2,0,0,1-8.9-1.9,4.4,4.4,0,0,1-1.3-.7,1.6,1.6,0,0,1-.6-1.3c0-.9.9-1.5,1.7-1.8,3.7-1.6,7.9-2,11.3-4.1.2-.1.4-.3.4-.5s-.4-.6-.8-.6a69.9,69.9,0,0,0-8.8-.8,24.9,24.9,0,0,1,8.8,0c.7.1,1.5.4,1.7,1.1s-.6,1.4-1.3,1.8c-3.4,1.9-7.5,2.5-11.1,3.9-.5.2-1.1.6-1,1.1s.5.7.9.8a33,33,0,0,0,8.7,1.9,6.3,6.3,0,0,1,1.8.3,1.9,1.9,0,0,1,1.2,1.2c.2.9-.5,1.8-1.2,2.4C372.6,256.5,368.6,258.1,364.8,259.7Z" style="fill:url(#linear-gradient-40)"/><path d="M369.3,231.1s13.4,11.8,24.1,13.3l2-6.8-25.9-7.9Z" style="fill:url(#linear-gradient-41)"/><path d="M625.3,155.6a6,6,0,0,0-.9-2.5l-1.1-3.5c1.2-.3,5.2-1.5,5.6-3.1a15.5,15.5,0,0,1-5.8,2.6l-.4-1.2c-.8-3.9-3.5-4.2-3.5-4.2l20.2-7.1L618,143.4a60.1,60.1,0,0,0-16.4-1.5,80.6,80.6,0,0,1,17.1,2.2,3.9,3.9,0,0,1,3.4,3.7l1.8,5.4c2.1,4-.2,4.8-.2,4.8-4.5,4.2-8.8-4.2-8.8-4.2l-1.2-1.1-7.9-.6,5.6.8c0,4.3-8.7,8.2-8.7,8.2,7.7-2.7,10.3-5.8,11.1-7.1-1.4,4.4,1.4,4.6,2.4,4.4-3.5,5.7,4.2,5.5,4.2,5.5-5.5-1-3.9-4.9-3.4-6h.2c3.6,3.2,6.6.7,6.6.7a3.2,3.2,0,0,0,1.5-2.6,6,6,0,0,0,4-3.5C628.4,154.8,625.9,155.5,625.3,155.6Zm-11.4-1.6v-.2l.3.3a15.1,15.1,0,0,0,2.8,3.7h0C613.2,158,613.7,155,613.9,154.1Zm3.2,4h0Z" style="fill:#e0947c"/><rect x="619.8" y="152.2" width="4.2" height="5.26" rx="2.1" ry="2.1" transform="matrix(0.93, -0.36, 0.36, 0.93, -13.62, 237.52)" style="fill:#f9d1b7"/><path d="M566.2,186.3s4.1,17.2,20.4,23l2.8-5.9s-14.5-6.2-22.4-18Z" style="fill:url(#linear-gradient-42)"/><path d="M451.9,138.4l-16,3s-10-.8-20.7,6.6c0,0-25.4,24.7-36.7,45.1,0,0-6,13.8-7.5,21.4,0,0,13.2,11.9,30.1,11.6l6-12.9,7.2-5.3L408.5,226s-4,9,2.4,14.1c0,0,30.9,28.5,82.7,23.8,0,0,36.9-.8,38.5-17.1,0,0,2.5-12.9.9-19.8,0,0,12.9,7.2,23.6,9.7,0,0,7,2.2,10.5-2.3,0,0,13.2-10.6,13.9-16.5l-25-22.8-2.8,3.8-25.2-33.4s-5.5-5.5-16.8-9.5l-50.1-14Z" style="fill:url(#linear-gradient-43)"/><path d="M451.9,139.4s21.4,20.9,28.4,37.8c0,0,1.2,4.8,4.9,1.2l1.6.2s-2,24.2-14.9,60.6h4.1L496.2,184l1.6-21-28.3-16.3Z" style="opacity:0.56;fill:url(#linear-gradient-44)"/><path d="M512.7,156.3,508,175.8s-1.9,6.9-7.4,1.6l-2.8-14.4Z" style="fill:url(#linear-gradient-45)"/><path d="M414.2,207.9,408.5,226s-3.5,9,1.4,13c0,0,22.1-43.3,31.8-51.3C441.7,187.6,425.2,197,414.2,207.9Z" style="opacity:0.62;fill:url(#linear-gradient-46)"/><path d="M524.5,172s3.8,7.2,3.9,26.4c0,0-.3,6.4.9,10.2,0,0,3,11.6,3.6,18.4,0,0,11.8,6.4,19.8,8.5,0,0-14.9-12.6-17.3-28.3l-1.9-7.5S529.5,176.1,524.5,172Z" style="opacity:0.48;fill:url(#linear-gradient-47)"/><path d="M553.1,198.9s-5.9,7.9-8.6,15.5c0,0-.4-12.2,3.8-21.8Z" style="opacity:0.5;fill:url(#linear-gradient-48)"/><path d="M414.2,207.9s13.5-12.7,25.2-19.1l6.4-11.4-4.1,10.7,3.7.7-5.7,1.5S434.8,190.8,414.2,207.9Z" style="fill:#a39682"/><path d="M435.9,141.4s13.8,4.1,12.4,18.5C448.3,160,449.6,147.6,435.9,141.4Z" style="fill:#a39682"/><path d="M553.1,198.9a57.4,57.4,0,0,0-8.6,15.5s3.1-10.1,6.4-14a29,29,0,0,0-4.9,4.9S549,199.4,553.1,198.9Z" style="fill:#a39682"/><path d="M382.4,196.5s12.1,12.3,24.7,16.6l-6,12.9s-15.5.9-30.1-11.6C370.9,214.4,389.2,217.3,382.4,196.5Z" style="opacity:0.35000000000000003;fill:url(#linear-gradient-49)"/><path d="M372.6,214.8s9.4,10.5,28.4,11.3l1.1-2.4S393.4,228.7,372.6,214.8Z" style="fill:#a39682;opacity:0.41000000000000003"/><path d="M370,213h.4c1.4.6,2.9,2.6,4.1,3.5a45.7,45.7,0,0,0,4.6,3,46.2,46.2,0,0,0,20.4,6.1c1.5.1,3.3.3,3.7,1.8a3.4,3.4,0,0,1-.3,2c-.7,2.2-2.6,3.4-2.2,6.6a3,3,0,0,1-1.3,2.4c-1.2,1-3,.7-4.6.3-8.5-2.2-17.1-4.5-25-8.5-1.9-1-3.9-2.3-4.4-4.3a5,5,0,0,1,.4-3.9C367.3,220,367.3,212.7,370,213Z" style="fill:url(#linear-gradient-50)"/><path d="M555.1,196.2s12.6,25.1,21.4,28.9c0,0,3.1-2.9,4-5.5Z" style="fill:#a39682;opacity:0.27"/><path d="M564.5,183.6l.4.3c1.1,1.2,1.7,3.7,2.5,5.2a51.3,51.3,0,0,0,3.1,5,55.1,55.1,0,0,0,17.3,15.7c1.4.8,3.1,2,2.8,3.4a3.1,3.1,0,0,1-1.1,1.6c-1.7,1.6-4.1,1.7-5.2,4.7-.3.9-1.4,1.3-2.4,1.5s-3.3-.9-4.6-2.1c-7.4-6.3-14.8-12.7-20.7-20.2-1.4-1.8-2.8-4-2.4-6.1a4.6,4.6,0,0,1,2.2-3.2C558.6,188.3,561.9,181.8,564.5,183.6Z" style="fill:url(#linear-gradient-51)"/><path d="M495.6,167s4.4,74.7-13.8,97.4h.8S502.5,241.8,495.6,167Z" style="fill:#a39682"/><path d="M506.1,159.1a8.7,8.7,0,0,0-8.7-8.7h-2.8a8.7,8.7,0,0,0-1.8,17.2c-.7,6.2-4.6,36-21.4,72L478,255l16.6-11.3s8.8-50.7,6.1-76.5A8.7,8.7,0,0,0,506.1,159.1Z" style="fill:url(#linear-gradient-52)"/><path d="M465.9,127.1l-3-2s-3-1.9-4.4,2.2c0,0-2.8,6.8-7.2,9.6,0,0-1.4,1.6.9,3.1,0,0,18.5,14.1,30.9,31.8,0,0,.6,1.6,1.9-.1l12.7-16.2Z" style="fill:#efeadf"/><path d="M465.7,127.2l-2.9-2.1s-4.8-2.3.2,6.3Z" style="fill:url(#linear-gradient-53)"/><path d="M497.3,155.5l7.7,14.1s.7,1.6,1.8,0l6-12.8s.8-1.1-1.4-4.9l-10.1-2.1Z" style="fill:#efeadf"/><path d="M405,290a2.8,2.8,0,0,1-2.2-1.5,6.9,6.9,0,0,0-1.7-2.2,5,5,0,0,0-2.5-.5l-6.2-.2a2.7,2.7,0,0,0-2.1.5,2.3,2.3,0,0,0-.9,2.1,6.9,6.9,0,0,1,.3,1.9,3,3,0,0,1-.7,1.2,13.9,13.9,0,0,0-2.5,5.4,12.2,12.2,0,0,1,1.7-3.5,4.1,4.1,0,0,1,3.3-1.7,3.9,3.9,0,0,1,2.6,1.3,5.2,5.2,0,0,1,1.3,3.1c0,.3.1.6.4.6s.3-.3.4-.5a5.4,5.4,0,0,0-.3-2.6l3.8-.2c-2.9-.4-6-1-8.1-3.1a3.7,3.7,0,0,1-1.1-1.8,1.9,1.9,0,0,1,.6-1.9,3,3,0,0,1,1.9-.3l5.1.3a4.9,4.9,0,0,1,2.3.5,8.2,8.2,0,0,1,1.9,2.3C403.1,289.8,404.1,290.4,405,290Z" style="fill:#e0947c"/><path d="M433.7,176.3c-9.6,10.5-36.5,17-41.7,12.2s12.7-27.3,23.1-36.7,14.3-6,19.5-1.3S443.3,165.8,433.7,176.3Z" style="opacity:0.45;fill:url(#linear-gradient-54)"/><path d="M481.1,63.2a51.4,51.4,0,0,1,35-3s24.6,7.3,22,32.2v.4s1.5,22.8-8,22.8h0s5.3,2.6,2.8,8.1c0,0-2,4.9-6.4,5.5h0l-2.2,4.8s-4.1,5.7-5.2,10.2a4.8,4.8,0,0,1-2.6,3.8l-8.6,6.8a3.9,3.9,0,0,1-3.9.1h0l-3.3-1.4-2.6,1.8s-.6,1.4-3.7.4l-7.2-1.2a4.7,4.7,0,0,1-3.4-2.6h0s-17.4-12.6-21.3-21c0,0,5.1-6.6,6.2-10.1h0l3.9-10.5-2.8-8.6-4.5-9.7,10.1-21.8Z" style="fill:url(#linear-gradient-55)"/><path d="M515.2,145.2c.3,1.9-1.4,3.7-3.3,4.3a9.5,9.5,0,0,1-6.1-.7c-1.8-.9-3.4-2.3-5.2-3.2a33.2,33.2,0,0,0-6.4-2.4,58.6,58.6,0,0,1,12.5,3,14.5,14.5,0,0,0,4.6,1.2A4.2,4.2,0,0,0,515.2,145.2Z" style="fill:url(#linear-gradient-56)"/><path d="M515.6,123.4s1.5-3.8-1-4.8c0,0-3.4.4-2.2,2.3l1.1.8s1.4.7.7,1.5A1.7,1.7,0,0,0,515.6,123.4Z" style="fill:url(#linear-gradient-57)"/><path d="M472,89.8s6.1-5.3,7.9,1.2c0,0,.9,3.2,0,4.4s-3.2-2.6-5.6.4C474.3,95.8,473.9,90.3,472,89.8Z" style="fill:url(#linear-gradient-58)"/><path d="M511.2,147.8h-.5a17.4,17.4,0,0,1-4-1.3,58.2,58.2,0,0,0-13.3-3.4,48.5,48.5,0,0,1,12.9,2.6c2.1.7,4.2,1.6,6.4,1a2.6,2.6,0,0,0,1.9-1.5,2.3,2.3,0,0,0-.6-2.1,6.8,6.8,0,0,0-1.8-1.3l.2-.2a8.7,8.7,0,0,1,2,1,2.9,2.9,0,0,1,1.2,1.9,2.7,2.7,0,0,1-.9,2.3A4.6,4.6,0,0,1,511.2,147.8Z" style="fill:#e0947c"/><path d="M512.9,139.3s-3.8-9.2-5.6-10.9l-8.4-1.7,2-2-.5-.5s-10.7,8.9-8.4,15.4Z" style="fill:#6d302d"/><path d="M492,138.6s-1,1.9,2.2,2.5c0,0,13.1,1.6,16,2.5a1.4,1.4,0,0,0,1.9-1.1l-5.8-2Z" style="fill:#9b564b"/><path d="M519.2,133.5l-6.1,7.2s-3.1-8.4-5.7-11.2C507.4,129.5,518.2,128.7,519.2,133.5Z" style="fill:#351b17"/><path d="M536.5,108.3c-1.2,6.5-4.7,7.4-6.8,7.4s-3.9-.9-3.9-5.3,5.7-10.6,7.9-10.6S537.3,104,536.5,108.3Z" style="fill:#e8a289"/><path d="M514.7,102.2c0,7.2-2.8,10.4-9,10a11.6,11.6,0,0,1-10.6-11.8c0-7.2,5.8-14.4,10.6-14.4S514.7,94.9,514.7,102.2Z" style="fill:#e8a289"/><path d="M514.4,102.8c.3,5-1.7,8.8-6.2,8.8s-10.2-4-10.2-9.1,1.7-9.5,6.2-9.5S514.2,99.4,514.4,102.8Z" style="fill:#efebea"/><path d="M514.6,104.7c-.2,3.2-1.9,6.8-5.9,6.9-5.9.2-5.6-2.7-5.4-5.9s2.8-6.5,5.8-6.5A5.3,5.3,0,0,1,514.6,104.7Z" style="fill:#602e1d"/><ellipse cx="511" cy="106.6" rx="3.8" ry="3" transform="translate(267.9 568.5) rotate(-74)" style="fill:#351a12"/><path d="M515.8,105.9,501,85a1.1,1.1,0,0,1,.1-1.8l6.5-3.7s.9-.6,1.4.2l9,23.6a1,1,0,0,1-.2,1.5l-.9.9S516.1,106.3,515.8,105.9Z" style="fill:#ac6345"/><path d="M534.5,105.2c2.1,2.6-.6,8.6-3.3,10s-6.6,0-7.9-2.4,2.2-6.9,4.9-8.4S532.9,103.1,534.5,105.2Z" style="fill:#efebea"/><path d="M532.2,109.8c0,3.1-1.3,6-3.7,6s-5.8-1.9-5.5-4.2,3.2-6.9,5.6-6.9S532.2,106.7,532.2,109.8Z" style="fill:#602e1d"/><ellipse cx="529.2" cy="111.5" rx="3.9" ry="2.7" transform="translate(246.9 572.8) rotate(-70.4)" style="fill:#351a12"/><path d="M523.1,104.1l13.8-11.5s1.1-1.1,1.8-.2l.5,6.4a1.3,1.3,0,0,1-.9,1.5l-14.2,6.6a.8.8,0,0,1-1-.3l-.5-1.9S522.8,104,523.1,104.1Z" style="fill:#ac6345"/><path d="M499.8,125.4s-2.1,2.1-1.4,2.6a8.3,8.3,0,0,0,3.5,1.5s.9.3,1.2-.2.1.7,2.1.9c0,0,2,.4,2.6-.4s.2.8,2.5,1.1c0,0,2.7.6,3.2,0s.2.8,2.3,1.4a5.6,5.6,0,0,0,2.1.4s-.1.4.9.9,1,.3,1.2-.1l1.4-2.8-2.4-2.9-5.2-3.9h-5.2S501.3,123.6,499.8,125.4Z" style="fill:url(#linear-gradient-59)"/><path d="M503.2,129.3l1.6-3.2-1.3,3.6S503.2,129.5,503.2,129.3Z" style="fill:#c1b8b0"/><path d="M507.9,129.8l1.7-3.5-1.3,4A.8.8,0,0,1,507.9,129.8Z" style="fill:#c1b8b0"/><path d="M513.5,131l1.8-3.7-1.2,4.4A1.6,1.6,0,0,1,513.5,131Z" style="fill:#c1b8b0"/><path d="M517.9,132.8l1.1-2.6-1,3S517.9,133,517.9,132.8Z" style="fill:#c1b8b0"/><polygon points="500.8 124.7 499 127.2 506.3 125.8 504.8 127.3 511.1 125.5 510.6 126.9 512.9 126.2 513.1 126.9 514.7 126.5 515.3 127.2 516.2 127.6 516.5 128.8 517.8 128.5 520.1 131.6 520.4 130.8 521.3 131.2 520 128.7 516.9 126.5 514.5 125 510.1 123.9 507.2 123.1 503.1 123.9 500.8 124.7" style="fill:#c1b8b0;opacity:0.38"/><path d="M506.8,117.7s-11.3-2-19.8,6.7l6.9-1.3-2.6,2,7-1.6-1.9,2.5,4.4-1.4-1,1.8,7.7-2-2,2,6.4-1.8-.2,1.3,2.1-.6v.9l1.3-.5.5,1.4,1.2.3v.9l1.2-.5,2,2.8.2-1,3.3,5,.2-1,2.8,4,.2-3,1.3,2.5s1.4-6-1.4-7.9c0,0-3.1,1.2-7.4-1.4,0,0-3.9-2.5-3.7-4.5l-.8-.6s-.7,1.5-3.3-.3l-3.5-2.2A3.6,3.6,0,0,1,506.8,117.7Z" style="fill:url(#linear-gradient-60)"/><path d="M524.7,129.7l-1.8-.2a13.1,13.1,0,0,1-4.1-1.7,8.7,8.7,0,0,1-2.5-2.1,4.1,4.1,0,0,1-.9-3c.1-.9.7-1.9.3-2.8a1.9,1.9,0,0,0-2.1-.8c-.6.1-1.2.5-1.1,1.1s.7,1,1.2,1.3,1.2.7,1.1,1.3a1.1,1.1,0,0,1-1.1.8,3.1,3.1,0,0,1-1.4-.4l-4-1.9a3.8,3.8,0,0,1-1.6-1.1,3.1,3.1,0,0,1,.1-3.1,26.4,26.4,0,0,0,1.2-2.4,15.6,15.6,0,0,1,1.2-2.5,2.7,2.7,0,0,1,1.6-1.4,3,3,0,0,1,2.7,1.1,8,8,0,0,0,2.3,2,7.5,7.5,0,0,1-2.4-1.8,2.7,2.7,0,0,0-2.8-.7,3.2,3.2,0,0,0-1.3,2.1l-1.3,4a2.8,2.8,0,0,0-.1,2.1,2.8,2.8,0,0,0,1.2,1.1l3.9,2.2a1.8,1.8,0,0,0,.9.3c.3,0,.6-.3.6-.6a.7.7,0,0,0-.5-.5H513a1.9,1.9,0,0,1-1.2-2.6,2.3,2.3,0,0,1,2.9-1,2.9,2.9,0,0,1,1.7,2.7c0,.9-.4,1.7-.3,2.6a5.6,5.6,0,0,0,2.7,3.8,13.2,13.2,0,0,0,4,1.8,7.3,7.3,0,0,0,4.4-.1h0A4.8,4.8,0,0,1,524.7,129.7Z" style="fill:#e0947c"/><ellipse cx="524.9" cy="120.5" rx="3.2" ry="1.6" transform="translate(-10.8 175.5) rotate(-18.8)" style="fill:#f9d1b7"/><path d="M492,138.6s-.3,1.7,1.8,1.9c0,0,2.5.1,3.3-1.1s.4,1.3,2.5,1.5c0,0,1.6.2,2.1-.5a4.5,4.5,0,0,0,4.6.3s.9,1.7,4,1.3c0,0,1,1,1.8.5l1.5-2.3s.3-.7-.9-1.3-.7-.4-1.2,0,.4-.5-.9-1.1-2.1-.8-3-.3.1-.9-2.9-1c0,0-1.9-.1-2.5.4s-.3-.6-2.1-.6c0,0-1.9-.2-2.6.6a4.3,4.3,0,0,0-4-.2A3.2,3.2,0,0,0,492,138.6Z" style="fill:url(#linear-gradient-61)"/><path d="M511.5,138.8l-1,2.5,1.5-2.7A.7.7,0,0,0,511.5,138.8Z" style="fill:#c1b8b0"/><path d="M507.6,137.5l-1.1,2.6,1.5-2.7Z" style="fill:#c1b8b0"/><path d="M502.2,136.9l-.4,2.8.9-3.1A1.3,1.3,0,0,0,502.2,136.9Z" style="fill:#c1b8b0"/><path d="M497.5,136.9l-.3,1.8.8-2.1A1.3,1.3,0,0,0,497.5,136.9Z" style="fill:#c1b8b0"/><ellipse cx="500.4" cy="68.3" rx="4.3" ry="4.7" style="fill:#f9d1b7"/><ellipse cx="510" cy="69.5" rx="2.5" ry="2.7" style="fill:#f9d1b7"/><path d="M478.7,88.3c-3.1-2.4-6.9,1.5-7,1.5a.2.2,0,0,0,0,.3h.3s3.5-3.6,6.4-1.4c0,0,2.1,1.6,1.5,6.5a4.3,4.3,0,0,0-3-1.1,4.2,4.2,0,0,0-3,2.2.2.2,0,0,0,.1.3h.3a3.7,3.7,0,0,1,2.7-2,4.1,4.1,0,0,1,2.9,1.2,24.3,24.3,0,0,1-1.2,4.5.2.2,0,0,0,.1.3h.1l.2-.2C482.5,91,478.8,88.4,478.7,88.3Z" style="fill:#e0947c"/><polygon points="500.8 153.6 504.3 150.5 504.1 155 500.8 153.6" style="fill:url(#linear-gradient-62)"/><path d="M484,151.9s-8.1-14.1-11.4-23.7a5.3,5.3,0,0,1,.2-5.4l3.3-7.8-6.4,8s-2.2,2.7-1.4,5.1l1.2,11.4S480.3,150.5,484,151.9Z" style="fill:url(#linear-gradient-63)"/><path d="M492.9,82.4a179.6,179.6,0,0,1-8.4,22.8l1.1-5.3-1.6,3.1.7-4.1-2.8,4.7,1.9-11.2s.8-4.2-2.2-6.4l-5.1-2.7s-2.5-1.1-4.1.7l-4.4,6.4a5.4,5.4,0,0,0,.4,4.5s4.2,5.9,4.7,9.8c0,0-.1,3.5,2.1,3.3,0,0-3.4,10.1-6.7,13.8L470,116l-.6-1.4.5-2.2-2,.4,1.1-3.3.6-4.1-1.6.5-.5-1.8-1.4.4.2-2.7V96.9l-1.4.8,1.2-4.4-1.4.8v-4l-1.4.7.5-1.8-2.1,1.5,4-9.4-2.2.2,3.9-6-5.1.2S472.8,65.1,480,62.6c0,0,1.5-.7,1.9.4s4.4,9.9,10.1,15.7C492,78.7,494.3,79.5,492.9,82.4Z" style="fill:url(#linear-gradient-64)"/><polygon points="475.1 107.9 479 105.9 473.4 112.1 475.1 107.9" style="fill:#e0947c"/><path d="M507.6,94.1s-7.4-3.5-9.3,4.3c0,0,1.4-8.3,9.1-5.1Z" style="fill:#ac6345"/><path d="M531.2,103.5s4.9.7,3.9,5.7c0,0,2-4.9-3-6.3Z" style="fill:#ac6345"/><path d="M478.9,67s-8,3.8-14.1,20.3C464.8,87.3,469.8,73.6,478.9,67Z" style="fill:#89432e"/><path d="M482.2,67.2s-9,6.1-16,24C466.2,91.3,470.3,75.2,482.2,67.2Z" style="fill:#89432e"/><path d="M490.7,81.1,486,98.4S488,87.6,490.7,81.1Z" style="fill:#89432e"/><path d="M489.4,77.8l-5.6,20.1S486.7,84.3,489.4,77.8Z" style="fill:#89432e"/><path d="M505.6,120.2a32,32,0,0,0-14.4,2A25.4,25.4,0,0,1,505.6,120.2Z" style="fill:#89432e"/><path d="M507,121.7s-5.2-1.3-11.8,2A26.7,26.7,0,0,1,507,121.7Z" style="fill:#89432e"/><path d="M522.6,130.3a10.6,10.6,0,0,1,3.5,5.7A18.5,18.5,0,0,0,522.6,130.3Z" style="fill:#89432e"/><path d="M524.4,130.5a10.6,10.6,0,0,1,3.5,5.7A18.5,18.5,0,0,0,524.4,130.5Z" style="fill:#89432e"/><path d="M531.8,141.7a5.7,5.7,0,0,1-3-1.5,5.7,5.7,0,0,1,3.2-1.1c1.5.1,2.5.8,2.4,1.5S533.4,141.9,531.8,141.7Z" style="fill:#f8f8f6;opacity:0.61"/><path d="M524.8,145.2a5.7,5.7,0,0,1-1.9-2.8,5.7,5.7,0,0,1,3.3.6c1.3.8,1.8,1.9,1.4,2.5S526.1,146.1,524.8,145.2Z" style="fill:#f8f8f6;opacity:0.61"/><path d="M537.2,151.1a5.7,5.7,0,0,1-1.9-2.8,5.7,5.7,0,0,1,3.3.6c1.3.8,1.8,1.9,1.4,2.5S538.5,151.9,537.2,151.1Z" style="fill:#f8f8f6;opacity:0.61"/></svg>