<?xml version="1.0" encoding="UTF-8"?> <svg xmlns="http://www.w3.org/2000/svg" id="Layer_1" data-name="Layer 1" viewBox="0 0 1100 1000"> <defs> <style>.cls-1{fill:none;stroke:#1c3b4f;stroke-width:8px;}.cls-1,.cls-16{stroke-miterlimit:10;}.cls-2,.cls-8{fill:#1c3b4f;}.cls-3,.cls-9{fill:#d0eae0;}.cls-16,.cls-4{fill:#2d3f50;}.cls-10,.cls-5{fill:#7abc9f;}.cls-6{fill:#fff;}.cls-7{fill:#252e3c;}.cls-10,.cls-8,.cls-9{stroke:#fff;}.cls-10,.cls-8{stroke-width:3px;}.cls-9{stroke-width:2px;}.cls-11{fill:#eeedee;}.cls-12{fill:#79bfa3;}.cls-13{fill:#e3e2df;}.cls-14{fill:#365471;}.cls-15{fill:#f37451;}.cls-16{stroke:#2d3f50;}.cls-17{isolation:isolate;}.cls-18{fill:#1d3c4f;}.cls-19{fill:#8dd2cc;}</style> </defs> <title>insights-p</title> <path class="cls-1" d="M409.19,591.41a140.48,140.48,0,0,0,47,105C473,711.39,490,736.88,490,759.17V786a13.54,13.54,0,0,0,13.54,13.54h93A13.54,13.54,0,0,0,610,786V759.17c0-22.29,17-47.78,33.75-62.72a140.81,140.81,0,1,0-234.58-105Z"></path> <path class="cls-2" d="M585.23,432.26a3,3,0,0,1-.73-.08,3.5,3.5,0,0,1-2.7-4.15l4.26-20a3.5,3.5,0,0,1,6.84,1.46l-4.25,20A3.5,3.5,0,0,1,585.23,432.26Z"></path> <path class="cls-2" d="M618.91,443.21a3.4,3.4,0,0,1-1.42-.31,3.5,3.5,0,0,1-1.78-4.62L624,419.59a3.5,3.5,0,0,1,6.39,2.85l-8.32,18.69A3.51,3.51,0,0,1,618.91,443.21Z"></path> <path class="cls-2" d="M649.58,460.92a3.51,3.51,0,0,1-2.83-5.56l12-16.55a3.5,3.5,0,1,1,5.66,4.11l-12,16.55A3.49,3.49,0,0,1,649.58,460.92Z"></path> <path class="cls-2" d="M675.91,484.62a3.5,3.5,0,0,1-2.34-6.1l15.2-13.69a3.5,3.5,0,1,1,4.68,5.2l-15.2,13.69A3.51,3.51,0,0,1,675.91,484.62Z"></path> <path class="cls-2" d="M696.73,513.27a3.5,3.5,0,0,1-1.75-6.53l58.71-34.23a3.5,3.5,0,1,1,3.5,6.06L698.48,512.8A3.49,3.49,0,0,1,696.73,513.27Z"></path> <path class="cls-2" d="M711.13,545.63a3.5,3.5,0,0,1-1.08-6.83l19.46-6.32a3.5,3.5,0,0,1,2.16,6.66l-19.46,6.32A3.64,3.64,0,0,1,711.13,545.63Z"></path> <path class="cls-2" d="M361.15,617.83a3.5,3.5,0,0,1-.36-7l20.35-2.14a3.5,3.5,0,0,1,.73,7l-20.35,2.13A2.3,2.3,0,0,1,361.15,617.83Z"></path> <path class="cls-2" d="M718.49,580.27a3.5,3.5,0,0,1-.36-7l20.35-2.13a3.5,3.5,0,0,1,.73,7l-20.35,2.14Z"></path> <path class="cls-2" d="M381.51,580.27h-.37l-20.35-2.14a3.5,3.5,0,0,1,.73-7l20.35,2.13a3.5,3.5,0,0,1-.36,7Z"></path> <path class="cls-2" d="M738.85,617.83a2.3,2.3,0,0,1-.37,0l-20.35-2.13a3.5,3.5,0,0,1,.73-7l20.35,2.14a3.5,3.5,0,0,1-.36,7Z"></path> <path class="cls-2" d="M388.87,545.63a3.64,3.64,0,0,1-1.08-.17l-19.46-6.32a3.5,3.5,0,0,1,2.16-6.66L390,538.8a3.5,3.5,0,0,1-1.08,6.83Z"></path> <path class="cls-2" d="M403.27,513.27a3.49,3.49,0,0,1-1.75-.47l-57.71-35.23a3.5,3.5,0,1,1,3.5-6.06L405,506.74a3.5,3.5,0,0,1-1.75,6.53Z"></path> <path class="cls-2" d="M424.09,484.62a3.51,3.51,0,0,1-2.34-.9L406.55,470a3.5,3.5,0,0,1,4.68-5.2l15.2,13.69a3.5,3.5,0,0,1-2.34,6.1Z"></path> <path class="cls-2" d="M450.42,460.92a3.49,3.49,0,0,1-2.84-1.45l-12-16.55a3.5,3.5,0,1,1,5.66-4.11l12,16.55a3.51,3.51,0,0,1-2.83,5.56Z"></path> <path class="cls-2" d="M481.09,443.21a3.51,3.51,0,0,1-3.2-2.08l-8.32-18.69a3.5,3.5,0,1,1,6.39-2.85l8.33,18.69a3.5,3.5,0,0,1-1.78,4.62A3.4,3.4,0,0,1,481.09,443.21Z"></path> <path class="cls-2" d="M514.77,432.26a3.5,3.5,0,0,1-3.42-2.77l-4.25-20a3.5,3.5,0,1,1,6.84-1.46l4.26,20a3.5,3.5,0,0,1-2.7,4.15A3,3,0,0,1,514.77,432.26Z"></path> <path class="cls-2" d="M550,428.56a3.5,3.5,0,0,1-3.5-3.5V338.6a3.5,3.5,0,0,1,7,0v86.46A3.5,3.5,0,0,1,550,428.56Z"></path> <path class="cls-2" d="M545.68,537.27a42,42,0,0,0-83.87-3.61l-1.47.33A30.75,30.75,0,0,0,441,578.7a34.65,34.65,0,0,0,9.75,50.84,21.36,21.36,0,0,0,18.06,32.75,21.9,21.9,0,0,0,3.72-.34,36.62,36.62,0,0,0,35.83,34.52h.12c7.55,0,28.29,11.94,28.29,50v54.64h7V746.5c0-29.15-11.36-45.1-22.08-52.26a36.66,36.66,0,0,0,23.95-34.34V538a1.69,1.69,0,0,1,0-.73Zm-7,28.45,0,8.27v50.45l0,16.11,0,19.35A29.59,29.59,0,1,1,488.17,639a3.5,3.5,0,1,0-4.95-5,36.3,36.3,0,0,0-10.34,20.68,14.35,14.35,0,0,1-15.64-22.2,34.41,34.41,0,0,0,5.59,1.42,3.64,3.64,0,0,0,.57,0,3.5,3.5,0,0,0,.57-7,27.65,27.65,0,0,1-9.27-51.2,3.5,3.5,0,0,0-3.51-6.05,34.14,34.14,0,0,0-5,3.54,23.65,23.65,0,0,1,15.62-32.47,41.84,41.84,0,0,0,5.76,17.95,3.48,3.48,0,0,0,3,1.71,3.44,3.44,0,0,0,1.79-.5,3.5,3.5,0,0,0,1.21-4.8,35,35,0,1,1,65.1-17.93c0,.12,0,.24,0,.36s0,.24,0,.37v23.26Z"></path> <path class="cls-2" d="M666.11,599.76A34.76,34.76,0,0,0,659,578.7,30.75,30.75,0,0,0,639.66,534l-1.47-.33a42,42,0,0,0-83.87,3.61,1.69,1.69,0,0,1,0,.73V659.9a36.66,36.66,0,0,0,23.95,34.34c-10.72,7.16-22.08,23.11-22.08,52.26v54.64h7V746.5c0-38.08,20.74-50,28.29-50h.12A36.62,36.62,0,0,0,627.43,662a21.9,21.9,0,0,0,3.72.34,21.36,21.36,0,0,0,18.06-32.75A34.52,34.52,0,0,0,666.11,599.76ZM561.32,624.44m0,15.79,0-102.23c0-.13,0-.25,0-.37s0-.24,0-.36a35,35,0,1,1,65.1,17.93,3.5,3.5,0,0,0,1.21,4.8,3.44,3.44,0,0,0,1.79.5,3.48,3.48,0,0,0,3-1.71,41.84,41.84,0,0,0,5.76-17.95,23.65,23.65,0,0,1,15.62,32.47,34.14,34.14,0,0,0-5-3.54,3.5,3.5,0,1,0-3.51,6.05A27.65,27.65,0,0,1,636,627a3.5,3.5,0,0,0,.57,7,3.64,3.64,0,0,0,.57,0,34.41,34.41,0,0,0,5.59-1.42,14.34,14.34,0,0,1-15.64,22.2A36.3,36.3,0,0,0,616.78,634a3.5,3.5,0,0,0-4.95,5,29.59,29.59,0,1,1-50.51,20.92Z"></path> <path class="cls-2" d="M490.27,818.83a3.5,3.5,0,0,1,3.5-3.5H606.23a3.5,3.5,0,0,1,0,7H493.77A3.5,3.5,0,0,1,490.27,818.83Z"></path> <path class="cls-2" d="M493.77,835.86a3.5,3.5,0,0,1,3.5-3.5H602.73a3.5,3.5,0,0,1,0,7H497.27A3.5,3.5,0,0,1,493.77,835.86Z"></path> <path class="cls-2" d="M596.23,849.39H503.77a3.5,3.5,0,1,0,0,7h22.3a25.07,25.07,0,0,0,49.53,0h20.63a3.5,3.5,0,0,0,0-7Zm-45.4,21.15a18.1,18.1,0,0,1-17.63-14.15h35.27A18.11,18.11,0,0,1,550.83,870.54Z"></path> <g id="website"> <rect class="cls-3" x="419.59" y="138.49" width="39.46" height="30.25"></rect> <rect class="cls-4" x="425.98" y="144.87" width="26.69" height="2.5"></rect> <rect class="cls-4" x="425.98" y="149.86" width="26.69" height="2.5"></rect> <rect class="cls-4" x="425.98" y="154.88" width="26.69" height="2.5"></rect> <rect class="cls-4" x="425.98" y="159.87" width="13.34" height="2.5"></rect> <rect class="cls-3" x="468.61" y="140.48" width="171.58" height="120.39"></rect> <rect class="cls-5" x="479.26" y="151.13" width="85.12" height="65.98"></rect> <circle class="cls-6" cx="521.82" cy="184.11" r="13.29"></circle> <polygon class="cls-7" points="519.14 179.44 527.2 184.11 519.14 188.76 519.14 179.44"></polygon> <rect class="cls-4" x="468.61" y="119.2" width="171.58" height="21.28"></rect> <rect class="cls-4" x="575.03" y="151.13" width="17.48" height="17.48"></rect> <rect class="cls-4" x="599.27" y="151.13" width="23.6" height="2.5"></rect> <rect class="cls-4" x="599.27" y="156.13" width="30.29" height="2.5"></rect> <rect class="cls-4" x="599.27" y="161.12" width="30.29" height="2.5"></rect> <rect class="cls-4" x="599.27" y="166.12" width="15.15" height="2.5"></rect> <rect class="cls-4" x="575.03" y="175.37" width="17.48" height="17.5"></rect> <rect class="cls-4" x="599.27" y="175.37" width="23.6" height="2.5"></rect> <rect class="cls-4" x="599.27" y="180.36" width="30.29" height="2.5"></rect> <rect class="cls-4" x="599.27" y="185.36" width="30.29" height="2.5"></rect> <rect class="cls-4" x="599.27" y="190.36" width="15.15" height="2.5"></rect> <rect class="cls-4" x="575.03" y="199.61" width="17.48" height="17.5"></rect> <rect class="cls-4" x="599.27" y="199.61" width="23.6" height="2.5"></rect> <rect class="cls-4" x="599.27" y="204.6" width="30.29" height="2.5"></rect> <rect class="cls-4" x="599.27" y="209.6" width="30.29" height="2.5"></rect> <rect class="cls-4" x="599.27" y="214.59" width="15.15" height="2.5"></rect> <rect class="cls-4" x="479.26" y="227.74" width="29.27" height="2.5"></rect> <rect class="cls-4" x="493.89" y="232.74" width="135.67" height="2.5"></rect> <rect class="cls-4" x="493.89" y="237.73" width="135.67" height="2.5"></rect> <rect class="cls-4" x="493.89" y="242.73" width="135.67" height="2.5"></rect> <rect class="cls-4" x="493.89" y="247.72" width="70.5" height="2.5"></rect> <rect class="cls-2" x="411.49" y="189.14" width="16.66" height="2.5"></rect> <rect class="cls-2" x="411.49" y="194.15" width="44.42" height="2.5"></rect> <rect class="cls-2" x="411.49" y="199.15" width="44.42" height="2.5"></rect> <circle class="cls-5" cx="462.6" cy="257.75" r="19.87"></circle> <polygon class="cls-6" points="464.42 264.09 460.76 264.09 459.67 245.37 465.51 245.37 464.42 264.09"></polygon> <rect class="cls-6" x="460.77" y="266.47" width="3.65" height="3.65"></rect> <rect class="cls-5" x="623.18" y="105.22" width="55.33" height="35.27"></rect> <polygon class="cls-5" points="629.56 147.97 629.56 140.48 637.05 140.48 629.56 147.97"></polygon> <rect class="cls-6" x="629.56" y="111.61" width="21.28" height="2.5"></rect> <rect class="cls-6" x="629.56" y="116.6" width="42.56" height="2.5"></rect> <rect class="cls-6" x="629.56" y="121.6" width="42.56" height="2.5"></rect> <rect class="cls-6" x="629.56" y="126.6" width="42.56" height="2.5"></rect> <rect class="cls-6" x="629.56" y="131.59" width="42.56" height="2.5"></rect> </g> <path class="cls-2" d="M550,340.72c-88.28,0-160.11-71.83-160.11-160.11S461.72,20.5,550,20.5,710.11,92.32,710.11,180.61,638.28,340.72,550,340.72ZM550,27.5c-84.42,0-153.11,68.68-153.11,153.11S465.58,333.72,550,333.72,703.11,265,703.11,180.61,634.42,27.5,550,27.5Z"></path> <path class="cls-2" d="M894.2,560.11c-88.28,0-160.11-71.83-160.11-160.11S805.92,239.89,894.2,239.89,1054.31,311.72,1054.31,400,982.48,560.11,894.2,560.11Zm0-313.22c-84.42,0-153.11,68.69-153.11,153.11S809.78,553.11,894.2,553.11,1047.31,484.42,1047.31,400,978.62,246.89,894.2,246.89Z"></path> <path class="cls-2" d="M205.8,560.11c-88.28,0-160.11-71.83-160.11-160.11S117.52,239.89,205.8,239.89,365.91,311.72,365.91,400,294.08,560.11,205.8,560.11Zm0-313.22c-84.42,0-153.11,68.69-153.11,153.11S121.38,553.11,205.8,553.11,358.91,484.42,358.91,400,290.22,246.89,205.8,246.89Z"></path> <g id="email"> <path class="cls-8" d="M284.78,502.46H120.15V396.05L193,349.28s5.85-4.24,9.57-4.24,9.45,4.19,9.45,4.19l72.73,46.83Z"></path> <polygon class="cls-9" points="261.75 477.56 143.4 477.56 146.64 305 264.99 305 261.75 477.56"></polygon> <polygon class="cls-10" points="284.26 506.07 120.67 506.07 120.67 400.35 202.47 453.21 284.26 400.35 284.26 506.07"></polygon> <polygon class="cls-10" points="120.86 502.66 199.85 451.61 120.86 400.57 120.86 502.66"></polygon> <polygon class="cls-10" points="284.05 400.57 205.07 451.61 284.05 502.66 284.05 400.57"></polygon> <polygon class="cls-2" points="245.59 383.45 163.63 383.58 163.63 382.11 245.59 381.98 245.59 383.45"></polygon> <rect class="cls-2" x="186.03" y="365.88" width="33.49" height="2.99" transform="translate(-0.64 0.35) rotate(-0.1)"></rect> <polygon class="cls-2" points="252.38 330.03 218.87 330.09 218.87 328.68 252.36 328.63 252.38 330.03"></polygon> <rect class="cls-2" x="218.88" y="333.02" width="21.59" height="1.4" transform="translate(-0.64 0.44) rotate(-0.11)"></rect> <polygon class="cls-2" points="252.38 338.72 218.87 338.78 218.87 337.38 252.36 337.32 252.38 338.72"></polygon> <rect class="cls-2" x="218.87" y="341.69" width="25.94" height="1.4" transform="translate(-0.6 0.41) rotate(-0.1)"></rect> <polygon class="cls-2" points="252.38 347.4 218.87 347.46 218.87 346.06 252.36 346 252.38 347.4"></polygon> <rect class="cls-2" x="163.64" y="385.56" width="81.96" height="1.46" transform="translate(-0.61 0.32) rotate(-0.09)"></rect> <polygon class="cls-2" points="245.59 390.47 163.65 390.6 163.63 389.15 245.59 389.01 245.59 390.47"></polygon> <polygon class="cls-2" points="228.67 394.02 163.65 394.13 163.65 392.66 228.67 392.55 228.67 394.02"></polygon> <polygon class="cls-2" points="245.61 397.5 163.66 397.64 163.65 396.17 245.62 396.05 245.61 397.5"></polygon> <polygon class="cls-2" points="245.62 401.03 163.68 401.15 163.66 399.69 245.62 399.56 245.62 401.03"></polygon> <polygon class="cls-2" points="245.62 404.54 163.68 404.67 163.68 403.2 245.64 403.08 245.62 404.54"></polygon> <polygon class="cls-2" points="245.64 408.06 163.68 408.18 163.68 406.71 245.64 406.59 245.64 408.06"></polygon> <polygon class="cls-2" points="245.64 411.57 163.68 411.69 163.68 410.24 245.64 410.1 245.64 411.57"></polygon> <polygon class="cls-2" points="218.91 415.13 163.69 415.22 163.68 413.75 218.91 413.66 218.91 415.13"></polygon> <rect class="cls-2" x="163.69" y="417.2" width="81.96" height="1.47" transform="translate(-0.66 0.32) rotate(-0.09)"></rect> <polygon class="cls-2" points="245.65 422.12 163.71 422.25 163.71 420.78 245.64 420.65 245.65 422.12"></polygon> </g> <path class="cls-5" d="M896,335c40,0,72.51-5.32,72.51-11.89S936,311.23,896,311.23h-.19V335Z"></path> <path class="cls-11" d="M896,376.25h-.19V381H896c40,0,72.51-5.32,72.51-11.89,0-1.55-1.85-3-5.16-4.4v1.6C963.34,371.8,933.18,376.25,896,376.25Z"></path> <path class="cls-12" d="M954.88,362.18c-13.16,3-34.62,5-58.89,5h-.19v9.11H896c37.19,0,67.35-4.45,67.35-9.94v-6.66A56.23,56.23,0,0,1,954.88,362.18Z"></path> <path class="cls-13" d="M896,335h-.19v32.13H896c24.27,0,45.73-2,58.89-5a56.23,56.23,0,0,0,8.46-2.53c3.31-1.36,5.16-2.84,5.16-4.4V323.12C968.5,329.69,936,335,896,335Z"></path> <path class="cls-11" d="M896,422.25h-.19v4.42H896c40,0,72.51-5.33,72.51-11.89,0-1.56-1.85-3-5.16-4.41v1.94C963.34,417.8,933.18,422.25,896,422.25Z"></path> <path class="cls-12" d="M896,413.13h-.19v9.12H896c37.19,0,67.35-4.45,67.35-9.94v-6.66a52.48,52.48,0,0,1-7.75,2.36C942.51,411.1,920.7,413.13,896,413.13Z"></path> <path class="cls-13" d="M896,381h-.19v32.13H896c24.71,0,46.52-2,59.6-5.12a52.48,52.48,0,0,0,7.75-2.36c3.31-1.37,5.16-2.85,5.16-4.41V369.11C968.5,375.68,936,381,896,381Z"></path> <path class="cls-5" d="M823.48,323.12c0,6.56,32.36,11.87,72.32,11.89V311.23C855.84,311.25,823.48,316.56,823.48,323.12Z"></path> <path class="cls-13" d="M828.64,366.31v-1.6c-3.32,1.36-5.16,2.85-5.16,4.4,0,6.56,32.36,11.88,72.32,11.89v-4.75C858.69,376.24,828.64,371.8,828.64,366.31Z"></path> <path class="cls-12" d="M828.64,359.65v6.66c0,5.49,30.05,9.93,67.16,9.94v-9.11c-24.19,0-45.58-2-58.7-5A55.52,55.52,0,0,1,828.64,359.65Z"></path> <path class="cls-11" d="M823.48,323.12v32.13c0,1.56,1.84,3,5.16,4.4a55.52,55.52,0,0,0,8.46,2.53c13.12,3,34.51,4.95,58.7,5V335C855.84,335,823.48,329.68,823.48,323.12Z"></path> <path class="cls-14" d="M895.8,458.8h-2.87V481.3c.29-.09.57-.18.87-.25a10.13,10.13,0,0,1,2-.23H896a10.12,10.12,0,0,1,2.15.23,10.52,10.52,0,0,1,1,.29V458.79H895.8Z"></path> <path class="cls-12" d="M907.45,486.38a10.23,10.23,0,0,0-6.77-6.51,12.08,12.08,0,0,0-1.34-.38,13.3,13.3,0,0,0-2.78-.3,7.77,7.77,0,0,0-.07,1.47c-.07,4.45.07,17.56.07,17.56,5.26,0,9.66-3.06,10.89-7.2a8.09,8.09,0,0,0,.35-2.32A8.2,8.2,0,0,0,907.45,486.38Z"></path> <path class="cls-15" d="M895.8,480.82h0Z"></path> <path class="cls-12" d="M896.49,480.66a7.77,7.77,0,0,1,.07-1.47h-.2a12.82,12.82,0,0,0-2.58.29c-.38.09-.75.2-1.12.32a10.21,10.21,0,0,0-7,6.68,7.77,7.77,0,0,0-.32,2.21,8,8,0,0,0,.37,2.39c1.23,4,5.53,7,10.67,7.12h.2S896.42,485.11,896.49,480.66Z"></path> <path class="cls-13" d="M896,426.67h-.19V458.8h3.35c29.19-.21,53.88-3.24,64.19-7.48,3.31-1.36,5.16-2.85,5.16-4.4V414.78C968.5,421.34,936,426.67,896,426.67Z"></path> <path class="cls-11" d="M823.48,414.78v32.13c0,1.55,1.84,3,5.16,4.4,10.32,4.24,35.06,7.28,64.29,7.48h2.87V426.67C855.84,426.65,823.48,421.33,823.48,414.78Z"></path> <path class="cls-13" d="M828.64,412.31v-1.94c-3.32,1.37-5.16,2.85-5.16,4.41,0,6.55,32.36,11.87,72.32,11.89v-4.42C858.69,422.23,828.64,417.79,828.64,412.31Z"></path> <path class="cls-12" d="M828.64,405.65v6.66c0,5.48,30.05,9.92,67.16,9.94v-9.12c-24.63,0-46.36-2-59.41-5.12A52.48,52.48,0,0,1,828.64,405.65Z"></path> <path class="cls-11" d="M823.48,369.11v32.13c0,1.56,1.84,3,5.16,4.41a52.48,52.48,0,0,0,7.75,2.36c13.05,3.09,34.78,5.11,59.41,5.12V381C855.84,381,823.48,375.67,823.48,369.11Z"></path> <path class="cls-16" d="M873.58,481.86a3.8,3.8,0,0,0,5.33.27l1.8-1.62a3.77,3.77,0,0,0,.27-5.32l-.11-.13c-1.39-1.54-2-3.68-1.4-4.75s3.45-4,5.52-3.89h.16a3.78,3.78,0,0,0,4-3.57l.13-2.41a3.78,3.78,0,0,0-3.57-4h-.17c-2.07-.11-4-1.16-4.34-2.35s-.4-5.28,1.14-6.67l.13-.11a3.78,3.78,0,0,0,.27-5.32l-1.62-1.8a3.78,3.78,0,0,0-5.32-.28l-.13.12c-1.54,1.38-3.68,2-4.75,1.39s-4-3.44-3.88-5.51v-.16a3.78,3.78,0,0,0-3.57-4L861,431.7a3.78,3.78,0,0,0-4,3.57v.17c-.11,2.07-1.16,4-2.35,4.33s-5.28.41-6.67-1.13l-.11-.13a3.77,3.77,0,0,0-5.32-.27l-1.8,1.62a3.77,3.77,0,0,0-.28,5.32l.11.12c1.39,1.54,2,3.68,1.4,4.76s-3.44,4-5.51,3.88h-.16a3.78,3.78,0,0,0-4,3.57l-.13,2.42a3.78,3.78,0,0,0,3.57,4H836c2.07.11,4,1.16,4.34,2.34s.4,5.29-1.14,6.68l-.12.11a3.77,3.77,0,0,0-.27,5.32l1.62,1.8a3.77,3.77,0,0,0,5.32.27l.12-.11c1.54-1.38,3.68-2,4.76-1.4s4,3.45,3.88,5.52v.16a3.78,3.78,0,0,0,3.57,4l2.42.13a3.79,3.79,0,0,0,4-3.57v-.17c.11-2.07,1.16-4,2.34-4.34s5.29-.4,6.67,1.14Zm-23.39-12.15a14.22,14.22,0,1,1,20.09,1A14.21,14.21,0,0,1,850.19,469.71Z"></path> <path class="cls-16" d="M941.51,485.16c1.16,1.28,3.37,1.2,4.91-.19l.45-.41c1.54-1.38,1.85-3.57.69-4.86s-1.7-3.06-1.19-3.94,2.85-3.27,4.58-3.18,3.23-1.53,3.34-3.6l0-.61c.11-2.07-1.22-3.83-3-3.92s-3.36-1-3.62-1.93-.3-4.34,1-5.5,1.2-3.37-.19-4.91l-.41-.45c-1.38-1.54-3.57-1.85-4.86-.69s-3.06,1.69-3.94,1.19-3.26-2.85-3.17-4.58-1.54-3.24-3.61-3.34l-.61,0c-2.07-.11-3.83,1.22-3.92,3s-1,3.36-1.93,3.61-4.34.31-5.5-1-3.37-1.2-4.91.19l-.45.4c-1.54,1.39-1.85,3.58-.69,4.87s1.69,3.06,1.19,3.94-2.85,3.26-4.58,3.17-3.23,1.53-3.34,3.6l0,.61c-.11,2.07,1.22,3.84,3,3.93s3.36,1,3.61,1.92.31,4.35-1,5.51-1.2,3.37.19,4.91l.4.45c1.39,1.54,3.58,1.85,4.87.69s3.06-1.7,3.94-1.19,3.27,2.85,3.17,4.58,1.54,3.23,3.61,3.34l.61,0c2.07.11,3.83-1.22,3.92-2.95s1-3.36,1.92-3.62S940.35,483.87,941.51,485.16Zm-19.1-9.89a11.64,11.64,0,1,1,16.44.85A11.63,11.63,0,0,1,922.41,475.27Z"></path> <path class="cls-16" d="M904.6,501.91c.9,1,2.7.87,4-.3s1.62-2.94.72-3.94-1.32-2.38-.93-3.07,2.21-2.53,3.56-2.46,2.52-1.3,2.61-3-.94-3.22-2.28-3.29-2.61-.74-2.81-1.5-.24-3.37.76-4.28.87-2.7-.3-4-2.94-1.62-3.94-.71-2.39,1.31-3.07.92-2.54-2.21-2.47-3.56-1.29-2.52-3-2.61-3.22.94-3.29,2.28-.74,2.61-1.49,2.81-3.38.24-4.28-.76-2.7-.87-4,.3-1.61,2.94-.71,4,1.32,2.38.93,3.06-2.22,2.54-3.57,2.47-2.52,1.3-2.61,3,.94,3.22,2.29,3.29,2.61.74,2.81,1.49.24,3.38-.76,4.28-.87,2.7.3,4S886,501.9,887,501s2.38-1.32,3.06-.92,2.54,2.21,2.47,3.56,1.3,2.52,3,2.61,3.22-.94,3.29-2.29.74-2.61,1.5-2.81S903.69,500.91,904.6,501.91Zm-14.86-7.69a9.05,9.05,0,1,1,12.79.67A9,9,0,0,1,889.74,494.22Z"></path> <g class="cls-17"> <path class="cls-18" d="M315.53,962.22h-8.69V908.1h8.69Z"></path> <path class="cls-18" d="M390.15,908.1v55H387.2l-33-37.47v36.57h-8.69v-55h3l32.89,37.39V908.1Z"></path> <path class="cls-18" d="M446.89,909.86a19.45,19.45,0,0,1,7.14,7L448,921.55q-4.35-6.57-11.4-6.56a9.81,9.81,0,0,0-5.82,1.68,5.6,5.6,0,0,0-2.38,4.88,5.28,5.28,0,0,0,1.72,4.26,28.51,28.51,0,0,0,5.82,3.45L442,932q6.57,3,9.76,6.56a12.71,12.71,0,0,1,3.2,8.86,14.1,14.1,0,0,1-5.13,11.36c-3.41,2.87-7.75,4.3-13,4.3a23.39,23.39,0,0,1-12-3.11,22.88,22.88,0,0,1-8.44-8.61l6.15-4.68q6,8.61,14.18,8.61a10.55,10.55,0,0,0,6.77-2.05,6.65,6.65,0,0,0,2.58-5.49,5.71,5.71,0,0,0-1.84-4.51,25.78,25.78,0,0,0-6.11-3.61l-6-2.79a29,29,0,0,1-9.3-6.23,12.29,12.29,0,0,1-3.33-8.77,13.09,13.09,0,0,1,4.92-10.62,18.43,18.43,0,0,1,12.14-4.06A20.25,20.25,0,0,1,446.89,909.86Z"></path> <path class="cls-18" d="M491.17,962.22h-8.69V908.1h8.69Z"></path> <path class="cls-18" d="M568.83,918.51l-6.32,5.17q-6.06-8.53-16.15-8.53a18.53,18.53,0,0,0-14,5.66,21.58,21.58,0,0,0,.16,28.78,19.12,19.12,0,0,0,14.35,5.74q10.67,0,16.15-8.2v-5.82H546.36V933.6H571.7v15.25a27.12,27.12,0,0,1-10.34,10.38,29.26,29.26,0,0,1-14.92,3.89,28,28,0,0,1-20.3-8,28.17,28.17,0,0,1,0-39.82,27.9,27.9,0,0,1,20.3-8.07Q560.79,907.2,568.83,918.51Z"></path> <path class="cls-18" d="M643.36,962.22h-8.69V937.46H607.45v24.76h-8.7V908.1h8.7v21.57h27.22V908.1h8.69Z"></path> <path class="cls-18" d="M713.14,915.89H694.86v46.33h-8.69V915.89H668V908.1h45.18Z"></path> <path class="cls-18" d="M764.31,909.86a19.45,19.45,0,0,1,7.14,7l-6.07,4.68Q761,915,754,915a9.81,9.81,0,0,0-5.82,1.68,5.6,5.6,0,0,0-2.38,4.88,5.28,5.28,0,0,0,1.72,4.26,28.51,28.51,0,0,0,5.82,3.45l6.07,2.78q6.55,3,9.76,6.56a12.71,12.71,0,0,1,3.2,8.86,14.1,14.1,0,0,1-5.13,11.36q-5.12,4.3-13,4.3a23.38,23.38,0,0,1-12-3.11,22.81,22.81,0,0,1-8.44-8.61l6.15-4.68q6,8.61,14.18,8.61a10.55,10.55,0,0,0,6.77-2.05,6.65,6.65,0,0,0,2.58-5.49,5.71,5.71,0,0,0-1.84-4.51,25.78,25.78,0,0,0-6.11-3.61l-6-2.79a29.12,29.12,0,0,1-9.31-6.23,12.32,12.32,0,0,1-3.32-8.77,13.09,13.09,0,0,1,4.92-10.62A18.43,18.43,0,0,1,754,907.2,20.25,20.25,0,0,1,764.31,909.86Z"></path> </g> <path class="cls-19" d="M786.38,924.44a2,2,0,0,1-.51-3.94l17-4.45a2,2,0,1,1,1.15,3.83l-.15,0-17,4.45A2,2,0,0,1,786.38,924.44Z"></path> <path class="cls-19" d="M786.38,918.05a2,2,0,0,1-.51-3.94l17-4.45a2,2,0,1,1,1.15,3.83l-.15,0-17,4.45A2,2,0,0,1,786.38,918.05Z"></path> <path class="cls-19" d="M794.36,927.64a8.33,8.33,0,0,1-6.64-3.15,2,2,0,0,1,3.18-2.43,4.32,4.32,0,0,0,3.46,1.57c2.23,0,4-1.46,4-3.27a2,2,0,0,1,4,0C802.41,924.38,798.8,927.64,794.36,927.64Z"></path> <path class="cls-19" d="M777.58,885.68a13.65,13.65,0,0,1,3.73-8,18.24,18.24,0,0,1,25.77-.39l.38.39a13.5,13.5,0,0,1,3.68,8l1.82-2.12,2.2,2.13A17.41,17.41,0,0,0,810.38,875a22.21,22.21,0,0,0-31.42-.58l-.58.58a17.54,17.54,0,0,0-4.82,10.76l2,2.08Z"></path> <path class="cls-19" d="M806.14,898.49a13.11,13.11,0,0,0-4.31,5.06l-13.9,3.65c-.72-4.94-3.1-6.8-5.23-8.45s-4.23-3.3-5-9.06L776,891.8l-2.34-2.13c.89,7.83,4,10.25,6.55,12.22,2.07,1.61,3.57,2.77,3.85,7.12a2.07,2.07,0,0,0,.32.94v.21a2,2,0,0,0,2.44,1.43l16.77-4.4a1.72,1.72,0,0,0,.54-.18,2.61,2.61,0,0,0,.28-.17h0a2,2,0,0,0,.79-1.18,9,9,0,0,1,3.35-4c2.45-2,5.46-4.36,6.37-11.94l-1.8-2-2.23,2C810.22,895.22,808.23,896.82,806.14,898.49Z"></path> </svg> 