<?xml version="1.0" encoding="UTF-8"?>
<svg viewBox="0 0 243 92" version="1.1" xmlns="http://www.w3.org/2000/svg" xmlns:xlink="http://www.w3.org/1999/xlink">
    <!-- Generator: Sketch 42 (36781) - http://www.bohemiancoding.com/sketch -->
    <title>martins-opco-logo</title>
    <desc>Created with Sketch.</desc>
    <defs>
        <polygon id="path-1" points="118.4925 56 0.06 56 0.06 0.106 236.925 0.106 236.925 56 118.4925 56"></polygon>
    </defs>
    <g id="Page-1" stroke="none" stroke-width="1" fill="none" fill-rule="evenodd">
        <g id="Artboard" transform="translate(-72.000000, -53.000000)">
            <g id="MyMartins_WhiteMy" transform="translate(72.000000, 71.000000)">
                <g id="Group-4">
                    <mask id="mask-2" fill="white">
                        <use xlink:href="#path-1"></use>
                    </mask>
                    <g id="Clip-2"></g>
                    <path d="M69.17,37.798 L67.453,32.345 L65.704,37.789 L69.17,37.798 Z M94.665,11.049 L94.674,22.196 L99.751,22.21 C100.744,22.149 102.313,21.061 103.141,19.99 C104.343,18.135 104.638,16.277 103.654,14.214 C102.178,10.781 98.255,10.935 94.665,11.049 Z M69.991,4.113 C69.991,4.113 75.504,9.602 76.649,13.734 C79.224,22.243 85.161,39.721 85.161,39.721 L85.182,2.129 L101.808,2.132 C106.511,2.12 110.587,6.299 111.415,7.527 L111.396,2.111 L141.738,2.115 L143.913,4.93 L143.921,2.123 L154.903,2.11 L158.07,6.249 C159.975,3.53 163.245,1.642 166.997,2.229 C171.907,3.233 174.568,7.384 176.55,10.719 L180.244,17.741 L180.246,2.123 L191.474,2.134 L193.353,4.028 L193.371,2.11 L204.371,2.114 L207.897,7.137 C209.292,5.012 213.11,2.12 215.764,2.111 L228.756,2.123 L232.84,6.589 L232.795,17.759 L217.48,17.745 C216.102,17.833 216.34,18.701 216.585,19.608 C217.48,21.412 220.437,21.881 221.283,22.275 C228.333,23.636 233.462,29.334 234.759,35.982 L234.917,39.036 C234.405,45.228 227.144,53.666 222.246,53.66 C222.191,53.666 211.855,53.667 211.76,53.667 C211.669,53.666 207.4,49.03 207.4,49.03 L207.385,38.713 L218.027,38.7 C219.352,38.651 220.334,37.409 220.527,36.842 C220.64,36.621 221.221,35.353 220.396,34.168 C218.665,32.43 216.669,31.581 214.631,30.782 C210.05,28.99 205.849,24.27 204.914,19.437 L200.211,21.658 L196.097,19.728 C196.097,19.728 196.067,53.678 196.077,53.671 C196.081,53.666 184.683,53.666 184.683,53.666 L179.993,48.457 C177.815,43.827 172.891,34.404 172.891,34.404 C172.891,34.404 172.888,53.66 172.878,53.664 C172.863,53.666 163.383,53.662 163.383,53.662 L159.676,50.267 C159.676,50.267 159.548,53.666 159.47,53.666 C159.398,53.666 149.182,53.662 149.182,53.662 L143.955,47.209 L143.962,17.751 L136.657,17.747 L136.657,53.679 L126.398,53.669 L120.885,47.297 L120.887,17.741 L116.511,17.728 C116.727,21.058 115.743,25.941 112.682,29.028 C114.698,30.892 116.574,33.051 116.583,35.646 L116.574,53.671 L108.07,53.679 L102.287,47.215 L102.263,34.943 C102.017,33.954 101.361,32.671 100.207,32.132 C99.545,31.996 99.544,32.46 99.544,32.46 C99.544,32.46 99.517,53.647 99.558,53.656 C99.598,53.666 92.055,53.659 92.055,53.659 L87.69,49.348 C87.69,49.348 88.91,53.644 88.887,53.654 C88.866,53.666 66.029,53.661 66.029,53.661 L62.016,49.356 C62.016,49.356 60.447,53.685 60.519,53.676 C60.589,53.666 51.005,53.652 51.025,53.659 C51.044,53.666 48.302,50.885 48.302,50.885 L48.309,53.661 L38.476,53.654 L32.075,47.322 L32.068,42.532 C30.576,44.346 28.674,45.298 26.531,44.631 C23.646,42.931 18.213,37.26 18.213,37.26 L18.249,53.664 L9.085,53.662 L2.004,47.209 L2.023,9.825 C2.079,6.146 5.306,3.454 8.852,2.502 C12.397,1.554 16.525,2.895 18.225,5.285 L24.644,14.919 L28.543,5.676 C29.811,3.032 31.363,2.129 35.425,2.125 C39.486,2.12 47.536,7.848 47.435,13.672 L47.42,37.8 L57.135,6.668 C58.217,3.74 61.737,2.111 64.465,2.115 C67.442,2.122 68.054,2.498 69.991,4.113 L69.991,4.113 Z" id="Fill-1" fill="#FFFFFF" mask="url(#mask-2)"></path>
                    <path d="M96.675,20.197 L99.646,20.205 C99.97,20.13 100.931,19.535 101.507,18.825 C102.367,17.464 102.463,16.375 101.845,15.074 L101.813,15.006 C101.187,13.55 99.804,13.008 96.711,13.008 C96.697,13.008 96.682,13.008 96.67,13.009 L96.675,20.197 Z M99.81,24.214 L92.671,24.193 L92.659,9.107 L94.692,9.043 C95.36,9.022 96.039,9.001 96.711,9.001 C98.765,9.001 103.566,9.001 105.479,13.387 C106.689,15.953 106.468,18.54 104.822,21.079 L104.726,21.216 C103.666,22.586 101.606,24.103 99.876,24.21 L99.81,24.214 Z M71.905,39.809 L62.958,39.784 L65.545,31.73 L69.364,31.742 L71.905,39.809 Z M104.289,46.445 L108.965,51.675 L114.571,51.67 L114.579,35.645 C114.572,33.756 112.929,31.983 111.321,30.499 L109.795,29.091 L111.258,27.616 C113.779,25.078 114.708,20.886 114.513,17.857 L114.372,15.719 L122.891,15.742 L122.888,46.55 L127.316,51.665 L134.653,51.674 L134.652,15.741 L145.966,15.747 L145.958,46.499 L150.138,51.66 L157.611,51.662 C157.636,51.186 157.657,50.667 157.673,50.19 L161.03,48.788 L164.163,51.66 L170.879,51.662 C170.884,47.624 170.886,38.452 170.886,34.404 L174.666,33.475 C174.865,33.854 179.454,42.645 181.678,47.335 L185.576,51.662 C189.904,51.662 192.504,51.662 194.087,51.671 C194.067,48.194 194.076,39.901 194.094,19.727 L194.097,16.575 L200.21,19.444 L206.394,16.525 L206.882,19.059 C207.662,23.091 211.307,27.329 215.363,28.919 C217.635,29.808 219.842,30.771 221.818,32.753 L222.039,33.023 C223.146,34.61 222.943,36.423 222.369,37.636 C221.862,38.908 220.27,40.623 218.102,40.704 L218.029,40.704 L209.391,40.714 L209.402,48.248 C210.642,49.591 211.907,50.946 212.588,51.662 C215.034,51.662 221.375,51.662 222.143,51.657 L222.246,51.657 C225.788,51.657 232.363,44.499 232.91,38.996 L232.768,36.233 C231.529,30.187 226.777,25.376 220.905,24.243 L220.662,24.196 L220.44,24.091 C220.353,24.056 220.055,23.964 219.837,23.895 C218.352,23.435 215.863,22.663 214.789,20.501 L214.701,20.321 L214.65,20.128 C214.441,19.356 214.099,18.08 214.907,16.955 C215.268,16.45 215.986,15.832 217.352,15.745 L217.481,15.741 L230.8,15.753 L230.833,7.363 L227.871,4.127 L215.763,4.115 C214,4.121 210.725,6.479 209.574,8.235 L207.953,10.704 L203.331,4.118 L195.193,4.114 L191.933,5.44 L190.639,4.137 L182.249,4.129 L182.247,17.741 L178.47,18.673 L174.803,11.697 C172.807,8.347 170.529,5.019 166.642,4.202 C164.004,3.811 161.36,5.046 159.71,7.399 L158.142,9.637 L153.912,4.115 L145.918,4.125 L145.917,4.935 L142.329,6.156 L140.754,4.119 L113.407,4.116 L113.42,7.522 L109.756,8.65 C109.084,7.653 105.54,4.136 101.829,4.136 L87.186,4.132 L87.165,39.724 L83.263,40.366 C83.204,40.191 77.287,22.759 74.73,14.315 C73.909,11.351 70.114,7.078 68.639,5.592 C67.043,4.264 66.841,4.124 64.461,4.119 C62.43,4.119 59.792,5.341 59.031,7.319 L49.333,38.397 L45.417,37.799 L45.431,13.671 C45.46,11.944 44.468,9.986 42.638,8.124 C40.181,5.623 37.043,4.13 35.431,4.13 C31.889,4.132 31.182,4.819 30.371,6.501 L26.49,15.697 L22.977,16.029 L16.557,6.396 C15.651,5.123 13.454,4.199 11.25,4.199 C10.595,4.199 9.963,4.28 9.369,4.438 C6.741,5.143 4.068,7.092 4.027,9.856 L4.008,46.323 L9.862,51.66 L16.241,51.66 L16.21,37.265 L19.661,35.876 C21.073,37.348 25.113,41.361 27.336,42.774 C28.688,43.083 29.831,42.099 30.521,41.261 L34.072,42.53 L34.077,46.484 L39.3,51.651 L46.3,51.657 L46.298,50.891 L49.729,49.479 C50.714,50.477 51.391,51.163 51.86,51.652 L52.085,51.652 C52.146,51.652 56.604,51.657 59.065,51.664 C59.154,51.409 59.252,51.133 59.358,50.83 C59.743,49.749 60.131,48.675 60.131,48.675 L61.247,45.595 L66.901,51.657 L75.346,51.657 C80.997,51.657 84.324,51.657 86.26,51.656 C86.101,51.09 85.93,50.481 85.762,49.896 L89.098,47.923 L92.878,51.654 L97.143,51.657 L97.538,51.657 C97.537,51.265 97.536,50.823 97.535,50.344 C97.532,48.355 97.532,45.703 97.533,43.055 C97.535,37.756 97.541,32.457 97.541,32.457 C97.543,31.298 98.458,30.104 99.985,30.104 C100.188,30.104 100.398,30.124 100.612,30.169 L100.842,30.216 L101.056,30.316 C103.285,31.358 104.032,33.752 104.207,34.461 L104.267,34.697 L104.289,46.445 Z M49.429,56 L49.366,55.667 L37.652,55.657 L30.071,48.161 L30.069,46.457 C28.752,46.941 27.327,46.978 25.937,46.546 L25.714,46.476 L25.513,46.356 C23.999,45.465 21.961,43.692 20.229,42.066 L20.257,55.667 L8.309,55.667 L0,48.092 L0.02,9.824 C0.093,4.942 4.247,1.663 8.332,0.567 C9.264,0.318 10.244,0.191 11.25,0.191 C14.779,0.191 18.159,1.734 19.858,4.124 L24.246,10.707 L26.736,4.81 C28.373,1.397 30.726,0.126 35.423,0.122 C38.352,0.122 42.491,2.257 45.496,5.315 C47.329,7.179 49.5,10.147 49.438,13.707 L49.432,24.629 L55.256,5.974 C56.662,2.166 61.046,0.111 64.456,0.111 C68.029,0.118 69.048,0.718 71.274,2.573 L71.405,2.693 C72.008,3.293 77.329,8.687 78.579,13.198 C79.708,16.925 81.51,22.459 83.165,27.454 L83.18,0.124 L101.808,0.129 C104.747,0.129 107.393,1.429 109.395,2.871 L109.383,0.108 L142.727,0.12 L155.892,0.106 L158.182,3.099 C160.678,0.813 164.018,-0.264 167.306,0.25 L167.398,0.267 C173.361,1.486 176.415,6.567 178.243,9.642 L178.244,0.117 L191.387,0.13 L191.387,0.106 L205.414,0.111 L208.073,3.897 C210.121,1.962 213.115,0.116 215.759,0.108 L229.641,0.12 L234.848,5.814 L234.789,19.765 L220.067,19.751 C220.426,19.882 220.771,19.99 221.023,20.067 C221.336,20.163 221.619,20.252 221.871,20.35 C229.279,21.868 235.236,27.973 236.726,35.6 L236.761,35.88 L236.925,39.068 L236.915,39.203 C236.351,46.002 228.671,55.664 222.251,55.665 L222.251,55.662 C221.783,55.67 219.954,55.67 211.76,55.67 C210.784,55.665 210.784,55.665 205.926,50.388 L205.397,49.814 L205.38,36.712 L217.968,36.697 C218.189,36.672 218.531,36.351 218.647,36.145 L218.74,35.934 C218.755,35.901 218.878,35.637 218.802,35.411 C217.411,34.087 215.755,33.375 213.902,32.651 C209.396,30.885 205.397,26.734 203.655,22.248 L200.213,23.872 L198.097,22.88 C198.086,34.773 198.073,53.077 198.08,53.633 L197.34,53.643 L196.052,54.915 L196.038,55.675 C195.73,55.671 189.079,55.67 184.683,55.67 L183.79,55.67 L178.306,49.576 L178.179,49.311 C177.351,47.547 176.107,45.058 174.892,42.67 L174.886,52.84 C174.882,53.902 174.879,55.229 173.365,55.606 L173.223,55.638 C173.045,55.67 173.045,55.67 171.001,55.67 L162.604,55.667 L161.281,54.451 C161.012,55.185 160.501,55.67 159.47,55.67 L148.226,55.667 L141.952,47.919 L141.958,19.754 L138.659,19.751 L138.659,55.684 L125.483,55.671 L118.881,48.044 L118.882,19.74 L118.509,19.739 C118.329,22.627 117.442,26.091 115.407,28.901 C117.075,30.683 118.577,32.92 118.585,35.639 L118.577,55.675 L107.174,55.684 L101.54,49.386 C101.543,50.446 101.544,51.357 101.545,52.058 L101.779,52.111 L101.544,53.914 C101.318,55.659 99.654,55.662 98.855,55.664 L97.143,55.665 L91.231,55.66 L90.474,54.913 C90.316,55.107 90.101,55.284 89.812,55.433 C89.372,55.667 89.131,55.667 75.346,55.667 L65.158,55.665 L62.797,53.133 C62.65,53.556 62.539,53.883 62.487,54.049 C62.308,55.002 61.431,55.707 60.44,55.679 C59.947,55.671 54.574,55.661 52.085,55.661 C51.695,55.661 51.394,55.662 51.22,55.662 L49.429,56 L49.429,56 Z" id="Fill-3" fill="#FFFFFF" mask="url(#mask-2)"></path>
                </g>
                <path d="M102.721,19.781 C101.892,20.852 100.324,21.939 99.33,22 L94.253,21.986 L94.242,10.84 C97.835,10.728 101.757,10.572 103.232,14.004 C104.218,16.069 103.923,17.926 102.721,19.781 Z M106.829,25.529 C109.713,24.002 112.705,17.044 110.831,12.126 C109.35,8.231 105.972,3.726 100.876,3.735 L86.678,3.713 L86.544,46.916 L94.224,46.905 L94.23,30.448 C100.994,29.886 103.469,32.259 103.768,34.768 C103.777,34.838 103.799,46.903 103.799,46.903 L111.312,46.924 L111.319,29.63 C111.203,28.136 109.247,26.117 106.829,25.529 L106.829,25.529 Z" id="Fill-5" fill="#FFFFFF"></path>
                <path d="M96.254,19.986 L99.228,19.996 C99.548,19.921 100.508,19.327 101.087,18.616 C101.948,17.257 102.044,16.166 101.424,14.867 L101.392,14.796 C100.764,13.335 99.389,12.795 96.247,12.8 L96.254,19.986 Z M99.389,24.003 L92.251,23.984 L92.237,8.897 L94.272,8.835 C94.938,8.814 95.615,8.793 96.287,8.793 C98.341,8.793 103.146,8.793 105.058,13.176 C106.269,15.742 106.049,18.331 104.401,20.87 L104.305,21.007 C103.243,22.38 101.181,23.895 99.452,24.001 L99.389,24.003 Z M105.799,44.905 L109.308,44.914 L109.315,29.747 C109.204,29.222 108.037,27.886 106.357,27.478 L101.228,26.23 L105.892,23.76 C107.82,22.735 110.511,16.915 108.959,12.84 C107.654,9.406 104.849,5.739 100.893,5.739 L88.674,5.721 L88.555,44.908 L92.221,44.905 L92.227,28.604 L94.064,28.451 C94.785,28.393 95.484,28.36 96.143,28.36 C104.383,28.36 105.585,33.084 105.758,34.532 C105.775,34.683 105.779,34.714 105.799,44.905 Z M113.315,48.935 L101.8,48.902 L101.795,46.907 C101.788,42.468 101.773,35.849 101.766,34.917 C101.406,32.661 97.857,32.378 96.233,32.369 L96.226,48.907 L84.534,48.922 L84.68,1.707 L100.88,1.732 C106.886,1.732 110.924,6.733 112.705,11.415 C114.371,15.79 112.914,21.583 110.337,24.985 C112.007,26.174 113.19,27.855 113.316,29.474 L113.323,29.63 L113.315,48.935 L113.315,48.935 Z" id="Fill-6" fill="#FFFFFF"></path>
                <path d="M16.254,6.197 L23.194,22.192 C23.194,22.192 27.454,11.983 29.284,7.407 C29.99,5.883 30.388,4.201 33.443,3.885 C36.497,3.57 38.725,4.85 40.01,5.964 C41.294,7.08 42.133,9.071 42.153,10.836 C42.172,12.6 42.189,46.891 42.171,46.9 C42.151,46.912 33.728,46.907 33.708,46.909 C33.69,46.912 33.704,15.379 33.704,15.379 L26.64,36.403 C25.867,38.09 24.074,38.872 21.928,38.206 C20.937,38.122 20.115,37.087 19.622,36.384 C19.622,36.384 12.133,15.38 12.164,15.382 C12.194,15.387 12.163,46.913 12.163,46.913 L3.638,46.907 L3.638,9.267 C3.681,5.531 8.222,3.726 10.741,3.718 C13.381,3.708 15.496,4.963 16.254,6.197" id="Fill-7" fill="#FFFFFF"></path>
                <path d="M5.642,44.904 L10.161,44.908 C10.168,35.803 10.182,17.838 10.164,15.656 L9.978,14.938 L11.312,13.208 L14.034,13.663 L14.141,14.98 C14.718,16.641 18.687,27.792 21.413,35.441 C21.839,36.013 22.081,36.174 22.157,36.215 L22.314,36.23 L22.522,36.294 C23.567,36.618 24.393,36.397 24.779,35.648 L31.805,14.741 L35.708,15.38 C35.704,24.138 35.7,39.483 35.706,44.904 L36.383,44.904 L40.173,44.904 C40.181,37.607 40.166,12.381 40.149,10.856 C40.136,9.618 39.524,8.196 38.697,7.479 C37.835,6.731 36.388,5.84 34.376,5.84 C34.137,5.84 33.893,5.853 33.648,5.877 C32.072,6.041 31.885,6.468 31.332,7.732 C31.264,7.89 31.196,8.046 31.125,8.2 C29.3,12.761 25.085,22.863 25.042,22.966 L23.229,27.31 L14.487,7.156 C14.031,6.548 12.619,5.722 10.773,5.722 C9.028,5.727 5.668,6.991 5.642,9.289 L5.642,44.904 Z M33.051,48.991 L32.396,48.422 C31.699,47.818 31.699,47.818 31.696,41.977 L31.696,31.138 L31.697,27.644 L28.461,37.238 C27.541,39.247 25.65,40.447 23.406,40.447 C22.788,40.447 22.153,40.356 21.515,40.174 C19.833,39.919 18.698,38.559 17.981,37.534 L17.826,37.312 L17.735,37.057 C16.288,33 15.122,29.725 14.18,27.081 C14.178,31.671 14.175,38.048 14.166,46.916 L14.164,48.918 L1.634,48.911 L1.634,9.267 C1.691,4.348 6.957,1.724 10.735,1.714 C14.282,1.714 16.913,3.439 17.961,5.148 L18.092,5.399 L23.155,17.068 C24.541,13.73 26.385,9.263 27.423,6.664 L27.466,6.566 C27.532,6.422 27.597,6.276 27.66,6.129 C28.328,4.603 29.336,2.296 33.237,1.893 C33.618,1.853 34,1.833 34.376,1.833 C37.623,1.833 39.946,3.255 41.323,4.452 C43.018,5.921 44.131,8.418 44.157,10.813 C44.167,11.735 44.176,21.16 44.18,29.527 C44.182,33.923 44.183,38.268 44.183,41.511 L44.18,45.424 C44.178,47.462 44.176,48.148 43.055,48.7 C42.638,48.913 42.638,48.913 36.383,48.913 L35.043,48.913 L33.815,48.913 L33.051,48.991 L33.051,48.991 Z" id="Fill-8" fill="#FFFFFF"></path>
                <path d="M69.192,6.482 C70.139,7.475 70.968,9.343 70.968,9.343 C70.968,9.343 82.301,46.905 82.333,46.909 C82.365,46.912 60.622,46.903 60.622,46.903 L60.643,39.432 L71.293,39.422 L64.167,15.379 L54.594,46.927 C54.594,46.927 46.265,46.927 46.257,46.918 C46.248,46.912 58.564,6.946 58.564,6.946 C59.096,5.092 63.224,2.745 66.567,4.148 C67.763,4.732 68.412,5.364 69.192,6.482" id="Fill-9" fill="#FFFFFF"></path>
                <path d="M64.145,22.353 L59.571,37.429 L68.61,37.421 L64.145,22.353 Z M48.965,44.919 C50.207,44.921 51.716,44.922 53.109,44.922 L64.189,8.403 L73.976,41.424 L62.641,41.434 L62.632,44.899 C66.547,44.902 75.204,44.905 79.624,44.905 C79.348,43.997 79.009,42.884 78.626,41.618 C77.559,38.096 76.139,33.4 74.721,28.704 C72.076,19.954 69.437,11.205 69.088,10.051 C68.8,9.429 68.224,8.37 67.743,7.865 L67.55,7.63 C66.921,6.73 66.525,6.365 65.743,5.977 C65.327,5.81 64.866,5.726 64.369,5.726 C62.432,5.726 60.699,6.983 60.485,7.516 C57.056,18.642 51.096,37.988 48.965,44.919 Z M56.079,48.931 L50.428,48.929 C45.668,48.926 45.505,48.926 44.982,48.466 C43.935,47.647 44.16,46.913 44.867,44.61 L56.65,6.355 C57.353,3.904 60.964,1.718 64.369,1.718 C65.42,1.718 66.42,1.914 67.342,2.302 L67.444,2.348 C69.039,3.125 69.908,4.027 70.754,5.22 C71.854,6.436 72.704,8.314 72.799,8.53 L72.887,8.765 C76.239,19.88 82.286,39.901 83.856,45.048 L84.413,45.103 L84.336,46.99 C84.275,48.469 83.241,48.811 82.135,48.89 L82.133,48.902 C82.109,48.9 82.084,48.898 82.059,48.895 C81.751,48.913 81.439,48.913 81.142,48.913 C76.602,48.913 60.622,48.907 60.622,48.907 L58.613,48.907 L58.636,40.507 L56.079,48.931 L56.079,48.931 Z" id="Fill-10" fill="#FFFFFF"></path>
                <path d="M170.962,6.952 L181.787,29.222 L181.831,3.728 L190.728,3.726 L190.728,46.9 L181.318,46.903 L166.795,18.335 L166.79,46.918 L158.329,46.919 L158.314,8.867 C158.265,6.872 161.878,3.726 164.686,3.693 C166.735,3.672 169.872,4.448 170.962,6.952" id="Fill-11" fill="#FFFFFF"></path>
                <path d="M164.77,5.697 C162.89,5.718 160.428,7.973 160.316,8.849 L160.332,44.916 L164.786,44.913 L164.79,18.335 L168.581,17.429 L182.545,44.899 L188.725,44.898 L188.725,5.731 L183.831,5.731 L183.789,29.227 L179.985,30.099 L169.122,7.751 C168.418,6.126 165.967,5.697 164.77,5.697 Z M156.326,48.924 L156.31,8.867 C156.272,7.248 157.354,5.765 158.273,4.815 C159.712,3.324 162.149,1.718 164.664,1.689 L164.77,1.689 C167.566,1.689 171.334,2.849 172.781,6.111 L179.797,20.548 L179.831,1.726 L192.731,1.721 L192.731,48.904 L180.086,48.907 L168.797,26.697 L168.794,48.922 L156.326,48.924 L156.326,48.924 Z" id="Fill-12" fill="#FFFFFF"></path>
                <path d="M227.55,10.846 L217.746,10.849 C215.772,10.845 214.458,12.432 213.772,14.486 C213.113,16.47 213.558,19.702 214.914,21.231 C218.454,24.174 222.646,23.067 225.896,26.543 C229.807,30.89 230.513,35.339 228.725,39.955 C227.105,43.995 222.813,46.912 219.043,46.909 L208.932,46.917 L208.912,40.311 L218.537,40.291 C219.926,40.257 221.595,38.37 222.149,36.801 C223.587,32.723 219.05,30.28 215.596,29.093 C212.649,28.079 208.621,25.74 206.737,20.656 C205.351,15.7 205.985,10.335 210.409,6.551 C212.454,5.126 213.735,3.726 216.971,3.721 L227.569,3.726 L227.55,10.846" id="Fill-13" fill="#FFFFFF"></path>
                <path d="M210.919,42.31 L210.929,44.911 L219.041,44.905 C222.101,44.905 225.607,42.35 226.866,39.21 C228.449,35.117 227.671,31.511 224.406,27.884 C223.085,26.47 221.468,26.025 219.597,25.511 C217.732,25.001 215.617,24.42 213.634,22.772 L213.416,22.563 C211.421,20.313 211.061,16.292 211.87,13.854 C212.934,10.669 215.074,8.844 217.742,8.844 L225.551,8.844 L225.56,5.729 L216.969,5.726 C214.912,5.728 214.015,6.389 212.531,7.486 C212.246,7.698 211.95,7.916 211.641,8.134 C207.257,11.944 207.864,17.188 208.645,20.038 C210.275,24.354 213.675,26.313 216.247,27.198 C218.943,28.124 222.442,29.827 223.825,32.689 C224.542,34.175 224.617,35.827 224.037,37.466 C223.366,39.375 221.168,42.229 218.588,42.294 L210.919,42.31 Z M206.933,48.921 L206.903,38.311 L218.459,38.286 C218.856,38.174 219.884,37.194 220.257,36.134 C220.485,35.49 220.473,34.964 220.215,34.433 C219.615,33.189 217.693,31.933 214.946,30.987 C212.157,30.028 207.137,27.501 204.859,21.355 L204.807,21.195 C203.016,14.79 204.582,8.897 209.105,5.028 L209.263,4.907 C209.574,4.69 209.865,4.475 210.15,4.265 C211.841,3.014 213.588,1.722 216.968,1.717 L229.579,1.723 L229.547,12.849 L217.748,12.853 C216.6,12.853 215.954,14.273 215.671,15.12 C215.225,16.465 215.564,18.803 216.329,19.797 C217.612,20.813 219.027,21.202 220.659,21.648 C222.805,22.237 225.239,22.903 227.36,25.174 C231.654,29.947 232.732,35.154 230.594,40.68 C228.707,45.382 223.747,48.913 219.048,48.913 L206.933,48.921 L206.933,48.921 Z" id="Fill-14" fill="#FFFFFF"></path>
                <polyline id="Fill-15" fill="#FFFFFF" points="140.638 10.85 131.393 10.823 131.362 46.898 122.043 46.903 122.066 10.836 112.901 10.851 112.922 3.711 140.617 3.724 140.638 10.85"></polyline>
                <path d="M124.07,8.83 L124.048,44.898 L129.361,44.895 L129.391,8.814 L138.628,8.84 L138.621,5.728 L114.92,5.716 L114.911,8.844 L124.07,8.83 Z M120.038,48.909 L120.059,12.845 L110.891,12.859 L110.924,1.706 L142.615,1.722 L142.648,12.859 L133.395,12.832 L133.365,48.902 L120.038,48.909 L120.038,48.909 Z" id="Fill-16" fill="#FFFFFF"></path>
                <polyline id="Fill-17" fill="#FFFFFF" points="153.786 46.918 145.446 46.919 145.446 3.722 153.786 3.747 153.786 46.918"></polyline>
                <path d="M147.451,5.731 L147.451,44.916 L151.782,44.913 L151.782,5.744 L147.451,5.731 Z M143.443,48.924 L143.443,1.712 L155.789,1.748 L155.789,48.922 L143.443,48.924 L143.443,48.924 Z" id="Fill-18" fill="#FFFFFF"></path>
                <path d="M203.235,3.718 C203.309,7.08 203.25,12.081 200.682,15.171 C199.066,16.559 198.336,17.825 195.556,17.461 L197.159,10.85 L194.88,10.85 L194.899,3.735 L203.235,3.718" id="Fill-19" fill="#FFFFFF"></path>
                <path d="M196.889,8.848 L199.707,8.849 L198.305,14.624 C198.389,14.548 198.477,14.468 198.573,14.378 C198.783,14.182 199,13.981 199.236,13.773 C200.795,11.8 201.193,8.751 201.242,5.726 L196.896,5.735 L196.889,8.848 Z M196.463,19.528 C196.095,19.528 195.703,19.5 195.297,19.447 L193.083,19.156 L194.612,12.854 L192.871,12.853 L192.9,1.737 L205.196,1.71 L205.239,3.674 C205.336,8.082 205.053,13.048 202.222,16.452 L201.989,16.691 C201.741,16.902 201.517,17.111 201.303,17.311 C200.186,18.35 198.922,19.528 196.463,19.528 L196.463,19.528 Z" id="Fill-20" fill="#FFFFFF"></path>
                <path d="M102.571,48.759 L102.537,45.952 L105.056,45.956 C104.845,46.905 103.893,48.432 102.571,48.759" id="Fill-21" fill="#FFFFFF"></path>
                <path d="M69.147,38.203 L67.429,32.751 L65.678,38.193 L69.147,38.203 Z M94.64,11.454 L94.649,22.601 L99.725,22.615 C100.719,22.554 102.289,21.466 103.118,20.396 C104.318,18.54 104.614,16.685 103.631,14.618 C102.153,11.188 98.231,11.342 94.64,11.454 Z M69.967,4.519 C69.967,4.519 75.48,10.009 76.624,14.14 C79.2,22.65 85.137,40.128 85.137,40.128 L85.159,2.535 L101.783,2.538 C106.488,2.526 110.563,6.705 111.393,7.935 L111.371,2.519 L141.71,2.522 L143.892,5.336 L143.898,2.529 L154.877,2.517 L158.046,6.654 C159.951,3.936 163.219,2.047 166.974,2.636 C171.884,3.639 174.542,7.79 176.527,11.124 L180.218,18.147 L180.22,2.529 L191.449,2.538 L193.33,4.434 L193.347,2.516 L204.347,2.52 L207.874,7.542 C209.267,5.418 213.085,2.526 215.74,2.519 L228.733,2.529 L232.819,6.994 L232.771,18.165 L217.456,18.152 C216.076,18.238 216.316,19.106 216.56,20.015 C217.453,21.817 220.413,22.286 221.261,22.683 C228.307,24.043 233.435,29.74 234.739,36.388 L234.896,39.444 C234.379,45.634 227.121,54.072 222.219,54.067 C222.167,54.072 211.831,54.073 211.737,54.073 C211.641,54.072 207.374,49.437 207.374,49.437 L207.364,39.116 L218,39.107 C219.328,39.057 220.311,37.817 220.501,37.246 C220.614,37.026 221.195,35.76 220.369,34.573 C218.642,32.836 216.647,31.987 214.608,31.19 C210.027,29.396 205.825,24.676 204.89,19.844 L200.188,22.065 L196.072,20.134 C196.072,20.134 196.043,54.084 196.05,54.078 C196.059,54.072 184.656,54.072 184.656,54.072 L179.968,48.862 C177.791,44.233 172.868,34.81 172.868,34.81 C172.868,34.81 172.863,54.067 172.854,54.069 C172.839,54.072 163.357,54.067 163.357,54.067 L159.654,50.673 C159.654,50.673 159.525,54.072 159.448,54.072 C159.374,54.072 149.16,54.067 149.16,54.067 L143.933,47.615 L143.938,18.157 L136.63,18.152 L136.632,54.086 L126.374,54.075 L120.86,47.702 L120.862,18.147 L116.486,18.134 C116.703,21.463 115.721,26.347 112.657,29.433 C114.674,31.297 116.552,33.458 116.558,36.052 L116.552,54.078 L108.046,54.086 L102.263,47.62 L102.238,35.352 C101.992,34.359 101.336,33.077 100.183,32.536 C99.522,32.4 99.522,32.866 99.522,32.866 C99.522,32.866 99.494,54.054 99.533,54.062 C99.574,54.072 92.031,54.064 92.031,54.064 L87.666,49.755 C87.666,49.755 88.885,54.049 88.863,54.061 C88.841,54.072 66.004,54.067 66.004,54.067 L61.991,49.764 C61.991,49.764 60.423,54.093 60.495,54.081 C60.565,54.072 50.981,54.059 51.001,54.065 C51.021,54.072 48.278,51.292 48.278,51.292 L48.285,54.067 L38.452,54.061 L32.051,47.729 L32.044,42.939 C30.552,44.752 28.65,45.702 26.507,45.037 C23.622,43.336 18.19,37.667 18.19,37.667 L18.225,54.069 L9.061,54.067 L1.98,47.613 L1.999,10.231 C2.054,6.551 5.281,3.86 8.827,2.909 C12.374,1.96 16.501,3.3 18.201,5.691 L24.62,15.324 L28.519,6.083 C29.787,3.439 31.339,2.536 35.4,2.531 C39.461,2.526 47.512,8.254 47.411,14.079 L47.397,38.206 L57.111,7.073 C58.193,4.146 61.713,2.519 64.441,2.522 C67.417,2.526 68.031,2.904 69.967,4.519 L69.967,4.519 Z" id="Fill-22" fill="#1A1918"></path>
                <path d="M102.697,20.187 C101.869,21.258 100.297,22.346 99.304,22.406 L94.229,22.393 L94.22,11.245 C97.811,11.133 101.732,10.98 103.209,14.41 C104.192,16.476 103.899,18.334 102.697,20.187 Z M106.807,25.937 C109.688,24.409 112.682,17.45 110.808,12.532 C109.327,8.639 105.949,4.131 100.853,4.143 L86.653,4.119 L86.52,47.321 L94.199,47.313 L94.205,30.855 C100.969,30.29 103.445,32.665 103.744,35.175 C103.752,35.245 103.775,47.309 103.775,47.309 L111.288,47.331 L111.294,30.035 C111.179,28.541 109.224,26.522 106.807,25.937 L106.807,25.937 Z" id="Fill-23" fill="#DD3B41"></path>
                <path d="M94.908,21.714 L99.307,21.726 C100.009,21.682 101.415,20.73 102.159,19.77 C103.268,18.054 103.417,16.429 102.594,14.702 C101.345,11.797 98.013,11.814 94.899,11.904 L94.908,21.714 Z M99.347,23.086 L93.549,23.068 L93.538,10.588 L94.289,10.563 C94.941,10.542 95.604,10.522 96.261,10.522 C99.235,10.522 102.461,10.953 103.832,14.14 C104.854,16.282 104.673,18.388 103.267,20.557 C102.359,21.735 100.623,23.007 99.347,23.086 Z M104.454,46.633 L110.608,46.648 L110.615,30.035 C110.525,28.898 108.77,27.112 106.646,26.597 L104.907,26.174 L106.489,25.335 C109.139,23.931 111.907,17.326 110.174,12.772 C108.709,8.93 105.498,4.823 100.87,4.823 L87.331,4.8 L87.202,46.641 L93.519,46.634 L93.526,30.23 L94.149,30.177 C94.834,30.119 95.497,30.091 96.12,30.091 C103.073,30.091 104.239,33.59 104.418,35.096 C104.425,35.146 104.432,35.203 104.454,46.633 Z M111.967,48.013 L103.097,47.988 L103.094,47.313 C103.086,43.238 103.072,35.465 103.064,35.198 C102.754,32.611 99.765,31.203 94.885,31.487 L94.879,47.99 L85.838,48.002 L85.976,3.439 L100.853,3.462 C106.19,3.462 109.82,8.023 111.444,12.291 C113.217,16.948 110.896,23.176 108.233,25.715 C110.243,26.62 111.848,28.381 111.973,29.982 L111.967,48.013 L111.967,48.013 Z" id="Fill-24" fill="#DD3B41"></path>
                <path d="M16.231,6.604 L23.17,22.6 C23.17,22.6 27.43,12.391 29.26,7.814 C29.965,6.288 30.364,4.606 33.42,4.291 C36.472,3.977 38.702,5.255 39.986,6.37 C41.271,7.484 42.11,9.477 42.129,11.24 C42.148,13.007 42.166,47.299 42.146,47.308 C42.127,47.317 33.703,47.313 33.685,47.315 C33.667,47.317 33.681,15.784 33.681,15.784 L26.615,36.81 C25.843,38.494 24.048,39.279 21.903,38.611 C20.913,38.527 20.09,37.493 19.597,36.791 C19.597,36.791 12.109,15.786 12.14,15.79 C12.17,15.793 12.138,47.317 12.138,47.317 L3.615,47.313 L3.612,9.674 C3.657,5.936 8.197,4.131 10.716,4.123 C13.356,4.114 15.472,5.369 16.231,6.604" id="Fill-25" fill="#DD3B41"></path>
                <path d="M4.294,46.634 L11.459,46.639 C11.47,36.064 11.483,17.196 11.462,15.888 L11.398,15.639 L11.851,15.05 L12.774,15.204 L12.813,15.661 C13.124,16.591 17.736,29.546 20.206,36.475 C20.87,37.399 21.459,37.892 21.961,37.935 L22.104,37.964 C23.814,38.494 25.331,37.938 25.983,36.558 L33.036,15.569 L34.36,15.786 C34.356,25.452 34.352,43.02 34.36,46.635 L35.963,46.635 C37.672,46.635 40.267,46.635 41.47,46.634 C41.482,41.879 41.467,12.853 41.449,11.248 C41.432,9.637 40.647,7.843 39.541,6.885 C38.509,5.99 36.771,4.923 34.35,4.923 C34.066,4.923 33.777,4.938 33.488,4.967 C31.144,5.21 30.682,6.269 30.095,7.61 C30.024,7.774 29.952,7.939 29.876,8.101 C28.081,12.596 23.84,22.759 23.798,22.86 L23.182,24.335 L15.627,6.92 C14.948,5.861 13.068,4.803 10.745,4.803 C8.433,4.81 4.332,6.448 4.293,9.681 L4.294,46.634 Z M33.465,48.032 L33.23,47.822 C32.998,47.613 32.998,47.613 32.997,42.383 L32.996,31.544 L32.999,19.948 L27.233,37.092 C26.32,39.084 24.114,39.984 21.768,39.28 C20.543,39.135 19.628,38.016 19.041,37.181 L18.956,37.02 C17.75,33.632 14.637,24.897 12.831,19.805 C12.838,27.408 12.823,43.362 12.818,47.318 L12.818,47.999 L2.934,47.991 L2.933,9.674 C2.984,5.341 8.11,3.452 10.714,3.442 C13.728,3.442 15.98,4.897 16.81,6.248 L16.854,6.333 L23.158,20.86 C24.406,17.861 27.237,11.043 28.627,7.563 C28.714,7.375 28.782,7.221 28.849,7.065 C29.458,5.672 30.216,3.939 33.349,3.614 C33.685,3.58 34.021,3.563 34.35,3.563 C37.191,3.563 39.226,4.81 40.432,5.856 C41.832,7.07 42.788,9.231 42.809,11.234 C42.819,12.157 42.828,21.573 42.832,29.933 C42.834,34.331 42.836,38.674 42.834,41.916 L42.832,45.83 C42.829,47.739 42.829,47.739 42.434,47.925 C42.301,47.993 42.301,47.993 35.963,47.995 L33.734,47.995 L33.465,48.032 L33.465,48.032 Z" id="Fill-26" fill="#DD3B41"></path>
                <path d="M69.168,6.888 C70.115,7.881 70.944,9.751 70.944,9.751 C70.944,9.751 82.277,47.313 82.31,47.315 C82.343,47.317 60.598,47.309 60.598,47.309 L60.619,39.836 L71.269,39.827 L64.143,15.784 L54.571,47.332 C54.571,47.332 46.241,47.331 46.233,47.325 C46.224,47.317 58.541,7.352 58.541,7.352 C59.072,5.499 63.2,3.152 66.544,4.556 C67.739,5.137 68.387,5.77 69.168,6.888" id="Fill-27" fill="#DD3B41"></path>
                <path d="M47.15,46.647 C48.637,46.652 51.683,46.652 54.067,46.652 L64.151,13.419 L72.18,40.505 L61.297,40.517 L61.279,46.63 C64.449,46.633 77.753,46.639 81.387,46.635 C81.322,46.426 81.248,46.183 81.162,45.897 C80.849,44.871 80.403,43.403 79.87,41.641 C78.803,38.12 77.382,33.423 75.963,28.729 C73.238,19.707 70.516,10.687 70.306,9.99 C70.188,9.732 69.46,8.181 68.676,7.358 L68.609,7.279 C67.842,6.177 67.268,5.664 66.247,5.167 C65.688,4.934 65.038,4.808 64.345,4.808 C61.811,4.808 59.509,6.44 59.194,7.54 C59.079,7.913 48.926,40.856 47.15,46.647 Z M55.075,48.013 L54.571,48.013 C46.77,48.012 46.055,48.012 45.837,47.878 C45.834,47.875 45.832,47.874 45.828,47.87 C45.825,47.869 45.823,47.865 45.819,47.864 C45.438,47.592 45.447,47.557 46.109,45.405 L57.891,7.151 C58.39,5.411 61.258,3.447 64.345,3.447 C65.219,3.447 66.048,3.609 66.807,3.928 C68.219,4.614 68.936,5.376 69.695,6.459 C70.697,7.531 71.53,9.394 71.565,9.475 L71.595,9.554 C75.186,21.457 81.817,43.417 82.823,46.683 L83.015,46.703 L82.989,47.343 C82.97,47.799 82.862,47.936 82.242,47.979 L82.241,47.99 C82.211,47.989 82.183,47.985 82.157,47.981 C81.898,47.995 81.56,47.995 81.115,47.995 C76.57,47.995 60.597,47.989 60.597,47.989 L59.917,47.989 L59.94,39.158 L70.358,39.148 L64.136,18.152 L55.075,48.013 L55.075,48.013 Z" id="Fill-28" fill="#DD3B41"></path>
                <path d="M170.938,7.358 L181.761,29.63 L181.81,4.135 L190.704,4.131 L190.704,47.308 L181.293,47.309 L166.77,18.742 L166.766,47.325 L158.302,47.326 L158.29,9.274 C158.242,7.279 161.853,4.131 164.662,4.102 C166.712,4.079 169.851,4.854 170.938,7.358" id="Fill-29" fill="#DD3B41"></path>
                <path d="M164.746,4.781 L164.671,4.781 C163.3,4.797 161.497,5.722 160.181,7.085 C159.41,7.884 158.956,8.695 158.97,9.257 L158.982,46.647 L166.085,46.645 L166.092,18.742 L167.377,18.434 L181.712,46.63 L190.025,46.629 L190.025,4.812 L182.488,4.814 L182.442,29.63 L181.149,29.925 L170.326,7.655 C169.338,5.38 166.354,4.781 164.746,4.781 Z M157.622,48.007 L157.61,9.274 C157.587,8.345 158.154,7.227 159.202,6.14 C160.4,4.9 162.547,3.443 164.656,3.421 L164.746,3.421 C167.155,3.421 170.387,4.38 171.561,7.087 L181.086,26.687 L181.13,3.455 L191.384,3.451 L191.384,47.988 L180.877,47.99 L167.45,21.578 L167.447,48.003 L157.622,48.007 L157.622,48.007 Z" id="Fill-30" fill="#DD3B41"></path>
                <path d="M227.524,11.252 L217.722,11.255 C215.748,11.252 214.433,12.837 213.748,14.892 C213.089,16.877 213.532,20.107 214.89,21.638 C218.429,24.58 222.623,23.473 225.872,26.949 C229.782,31.296 230.492,35.743 228.704,40.363 C227.081,44.402 222.79,47.317 219.021,47.315 L208.909,47.322 L208.887,40.717 L218.515,40.698 C219.9,40.662 221.57,38.777 222.125,37.206 C223.564,33.131 219.029,30.686 215.573,29.499 C212.624,28.484 208.601,26.147 206.714,21.063 C205.327,16.106 205.961,10.741 210.384,6.956 C212.428,5.531 213.707,4.131 216.949,4.127 L227.547,4.131 L227.524,11.252" id="Fill-31" fill="#DD3B41"></path>
                <path d="M209.569,41.395 L209.586,46.643 L219.02,46.635 C222.63,46.635 226.604,43.77 228.074,40.109 C229.837,35.549 228.954,31.393 225.367,27.403 C223.773,25.698 221.903,25.186 219.925,24.642 C218.102,24.144 216.218,23.626 214.455,22.162 L214.381,22.089 C212.779,20.28 212.419,16.732 213.103,14.677 C213.973,12.069 215.653,10.574 217.714,10.574 L226.847,10.572 L226.864,4.812 L216.949,4.807 C214.452,4.81 213.247,5.7 211.723,6.826 C211.428,7.045 211.124,7.269 210.802,7.494 C205.766,11.824 206.488,17.736 207.369,20.88 C209.155,25.685 212.937,27.873 215.794,28.856 C218.249,29.7 221.422,31.221 222.609,33.671 C223.179,34.851 223.231,36.114 222.766,37.433 C222.119,39.266 220.22,41.334 218.531,41.376 L209.569,41.395 Z M208.231,48.002 L208.204,40.039 L218.512,40.018 C219.453,39.994 220.961,38.459 221.484,36.979 C221.829,36.003 221.795,35.114 221.384,34.263 C220.619,32.68 218.475,31.215 215.351,30.142 C212.786,29.26 208.169,26.938 206.078,21.3 C204.385,15.272 205.766,10.013 209.944,6.439 L209.996,6.397 C210.319,6.173 210.621,5.949 210.914,5.733 C212.502,4.561 214.003,3.451 216.948,3.447 L228.228,3.452 L228.203,11.932 L217.722,11.936 C215.746,11.936 214.788,13.921 214.393,15.106 C213.785,16.939 214.258,19.854 215.366,21.151 C216.89,22.401 218.539,22.854 220.285,23.33 C222.358,23.9 224.503,24.488 226.369,26.485 C230.285,30.838 231.282,35.586 229.338,40.607 C227.645,44.821 223.213,47.995 219.026,47.995 L208.231,48.002 L208.231,48.002 Z" id="Fill-32" fill="#DD3B41"></path>
                <polyline id="Fill-33" fill="#DD3B41" points="140.613 11.255 131.37 11.23 131.339 47.304 122.021 47.309 122.039 11.244 112.877 11.258 112.897 4.118 140.595 4.131 140.613 11.255"></polyline>
                <path d="M122.72,10.562 L122.701,46.63 L130.658,46.624 L130.69,10.547 L139.934,10.574 L139.917,4.81 L113.575,4.797 L113.559,10.577 L122.72,10.562 Z M121.339,47.99 L121.361,11.925 L112.196,11.939 L112.219,3.436 L141.274,3.451 L141.296,11.939 L132.049,11.912 L132.019,47.984 L121.339,47.99 L121.339,47.99 Z" id="Fill-34" fill="#DD3B41"></path>
                <polyline id="Fill-35" fill="#DD3B41" points="153.762 47.325 145.424 47.326 145.424 4.129 153.762 4.152 153.762 47.325"></polyline>
                <path d="M146.104,4.81 L146.104,46.647 L153.08,46.645 L153.08,4.83 L146.104,4.81 Z M144.745,48.007 L144.745,3.447 L154.44,3.475 L154.44,48.003 L144.745,48.007 L144.745,48.007 Z" id="Fill-36" fill="#DD3B41"></path>
                <path d="M203.21,4.125 C203.287,7.484 203.224,12.488 200.657,15.577 C199.041,16.967 198.314,18.231 195.533,17.866 L197.134,11.258 L194.856,11.258 L194.872,4.143 L203.21,4.125" id="Fill-37" fill="#DD3B41"></path>
                <path d="M196.382,17.25 C197.829,17.281 198.471,16.666 199.451,15.753 C199.675,15.543 199.911,15.323 200.167,15.101 C202.278,12.523 202.588,8.516 202.542,4.807 L195.553,4.821 L195.537,10.577 L197.997,10.577 L196.382,17.25 Z M196.438,18.609 C196.129,18.609 195.794,18.587 195.446,18.54 L194.695,18.442 L196.269,11.939 L194.173,11.939 L194.197,3.463 L203.874,3.443 L203.891,4.11 C203.985,8.271 203.734,12.939 201.179,16.013 L201.1,16.094 C200.838,16.316 200.603,16.536 200.376,16.747 C199.35,17.705 198.379,18.609 196.438,18.609 L196.438,18.609 Z" id="Fill-38" fill="#DD3B41"></path>
                <path d="M99.865,21.325 L99.832,18.518 L102.35,18.522 C102.142,19.474 101.187,20.998 99.865,21.325 Z M103.939,15.064 C102.463,11.634 98.541,11.787 94.948,11.899 L94.958,23.045 L100.036,23.061 C101.029,22.999 102.599,21.913 103.427,20.841 C104.629,18.988 104.922,17.132 103.939,15.064 L103.939,15.064 Z" id="Fill-39" fill="#1A1918"></path>
                <path d="M241.77,50.673 C241.77,53.251 239.678,55.341 237.102,55.341 C234.523,55.341 232.434,53.251 232.434,50.673 C232.434,48.096 234.523,46.005 237.102,46.005 C239.678,46.005 241.77,48.096 241.77,50.673" id="Fill-40" fill="#FFFFFF"></path>
                <path d="M237.102,46.597 C234.854,46.597 233.024,48.426 233.024,50.673 C233.024,52.922 234.854,54.751 237.102,54.751 C239.351,54.751 241.179,52.922 241.179,50.673 C241.179,48.426 239.351,46.597 237.102,46.597 Z M237.102,55.932 C234.203,55.932 231.843,53.572 231.843,50.673 C231.843,47.772 234.203,45.415 237.102,45.415 C240.001,45.415 242.36,47.772 242.36,50.673 C242.36,53.572 240.001,55.932 237.102,55.932 L237.102,55.932 Z" id="Fill-41" fill="#FFFFFF"></path>
                <path d="M236.373,50.62 L236.373,49.206 L237.315,49.206 C237.797,49.206 238.31,49.311 238.31,49.879 C238.31,50.579 237.788,50.62 237.201,50.62 L236.373,50.62 Z M236.373,51.207 L237.168,51.207 L238.373,53.187 L239.149,53.187 L237.849,51.175 C238.521,51.094 239.033,50.738 239.033,49.919 C239.033,49.019 238.499,48.622 237.422,48.622 L235.683,48.622 L235.683,53.187 L236.373,53.187 L236.373,51.207 Z M237.212,54.863 C239.368,54.863 241.214,53.187 241.214,50.895 C241.214,48.622 239.368,46.942 237.212,46.942 C235.032,46.942 233.189,48.622 233.189,50.895 C233.189,53.187 235.032,54.863 237.212,54.863 Z M233.985,50.895 C233.985,49.019 235.399,47.606 237.212,47.606 C239.001,47.606 240.415,49.019 240.415,50.895 C240.415,52.801 239.001,54.204 237.212,54.204 C235.399,54.204 233.985,52.801 233.985,50.895 L233.985,50.895 Z" id="Fill-42" fill="#1A1918"></path>
            </g>
        </g>
    </g>
</svg>
