<svg id="Layer_1" data-name="Layer 1" xmlns="http://www.w3.org/2000/svg" viewBox="0 0 340 128"><defs><style>.cls-1{fill:#0e553f;}.cls-2{fill:#f9ced7;}</style></defs><title>Artboard 1</title><rect class="cls-1" x="4.5" y="25.05" width="219.88" height="79.89" transform="translate(-2.89 5.37) rotate(-2.65)"/><polygon class="cls-2" points="44.72 46.24 20.74 47.42 21.07 54.16 28.87 53.77 30.59 88.65 38.78 88.25 37.06 53.37 45.05 52.97 44.72 46.24"/><path class="cls-2" d="M61.44,57.26a6.64,6.64,0,0,0-6.15,4.08l-.77-15.59-7.79.39,2.06,41.61,7.79-.39L55.67,69c-.13-2.71.62-4.86,2.73-5,1.72-.08,2.5,1.07,2.61,3.18L62,87.1l7.79-.39L68.7,64.65C68.51,60.82,66.66,57,61.44,57.26Z"/><path class="cls-2" d="M92.3,74.87l-7.13.35,0,.66c.15,3-.57,4.6-2.55,4.69-2.31.11-3.08-2.1-3.28-6l-.06-1.19,13.08-.65-.13-2.64c-.43-8.65-3.42-14.2-10.95-13.83S71,62.62,71.4,71.27l.07,1.39c.46,9.31,4.22,14.29,11.61,13.93,6.28-.31,9.57-4.65,9.25-11.18ZM81.62,62.29c2.18-.11,2.82,2.18,3,6.21l-5.55.27C78.89,64.74,79.44,62.4,81.62,62.29Z"/><rect class="cls-2" x="90.88" y="89.3" width="19.24" height="3.67" transform="translate(-4.37 5.07) rotate(-2.83)"/><path class="cls-2" d="M117.8,42.09c-9,.44-12.08,7.35-11.5,19.18l.27,5.55c.59,11.82,4.35,18.39,13.34,17.95s12-7.35,11.43-19.17L131.07,60C130.49,48.21,126.72,41.65,117.8,42.09Zm1.78,36c-3.17.16-4.05-3-4.29-7.8l-.66-13.34c-.24-4.82.33-8,3.5-8.19s4.05,3,4.29,7.8l.66,13.34C123.32,74.72,122.75,77.93,119.58,78.09Z"/><polygon class="cls-2" points="149.5 41.05 150.59 62.98 150.33 62.99 140.39 41.5 132.86 41.87 134.92 83.49 142.52 83.11 141.32 58.87 141.58 58.86 152.95 82.59 159.16 82.29 157.1 40.67 149.5 41.05"/><polygon class="cls-2" points="170.13 74.99 169.58 63.83 178.1 63.41 177.77 56.67 169.25 57.09 168.74 46.85 180.1 46.29 179.77 39.55 160.42 40.51 162.48 82.12 181.96 81.16 181.63 74.42 170.13 74.99"/><path class="cls-2" d="M197.14,57.1l-3.88-2.19c-2.18-1.22-3.5-2.54-3.64-5.32s.9-4.55,3.21-4.66c2.64-.13,3.93,1.79,4.12,5.56l.12,2.44,7.2-.36-.12-2.38c-.4-8-4.44-12.16-11.64-11.81-6.67.33-10.74,5.17-10.39,12.1s4.05,9.6,8.2,11.91l3.54,2c2.59,1.53,4.23,2.51,4.38,5.48.14,2.77-1,4.49-3.55,4.61-2.77.14-4.34-2-4.52-5.6L190,66.39l-7.27.36.12,2.38C183.31,77.45,188,81.39,195,81s11.16-4.72,10.79-12.19C205.48,62.45,202.1,59.7,197.14,57.1Z"/></svg>