<?xml version="1.0" encoding="utf-8"?>
<!-- Generator: Adobe Illustrator 19.2.1, SVG Export Plug-In . SVG Version: 6.00 Build 0)  -->
<svg version="1.1" id="artwork" xmlns="http://www.w3.org/2000/svg" xmlns:xlink="http://www.w3.org/1999/xlink" x="0px" y="0px"
	 viewBox="0 0 444 407.1" style="enable-background:new 0 0 444 407.1;" xml:space="preserve">
<style type="text/css">
	.st0{fill:url(#SVGID_1_);}
	.st1{fill:#FFFFFF;stroke:#FFFFFF;stroke-width:9.3819;stroke-miterlimit:10;}
</style>
<radialGradient id="SVGID_1_" cx="224.6079" cy="203.532" r="203.5744" gradientUnits="userSpaceOnUse">
	<stop  offset="0" style="stop-color:#EEC447"/>
	<stop  offset="0.384" style="stop-color:#EBC146"/>
	<stop  offset="0.6459" style="stop-color:#E2B844"/>
	<stop  offset="0.8707" style="stop-color:#D4A940"/>
	<stop  offset="1" style="stop-color:#C99D3E"/>
</radialGradient>
<path class="st0" d="M224.6,133.3c-1.1-10-1.6-20-2-29.9c-0.4-10-0.5-20-0.6-29.9l0.1-15c0.1-5,0.2-10,0.4-15c0.4-10,0.9-20,2-29.9
	c1.1,10,1.6,20,2,29.9c0.2,5,0.3,10,0.4,15l0.1,15c-0.1,10-0.2,20-0.6,29.9C226.2,113.4,225.7,123.3,224.6,133.3z M217.4,100
	c-0.6-11.2-1.5-22.3-2.5-33.5l-1.7-16.7c-0.6-5.6-1.2-11.1-1.9-16.7c-1.4-11.1-3-22.2-5-33.2c0,11.2,0.4,22.4,1.1,33.6
	c0.3,5.6,0.7,11.2,1.1,16.7l1.4,16.7c1.1,11.1,2.2,22.3,3.6,33.3c1.4,11.1,3,22.2,5,33.2C218.5,122.4,218.1,111.2,217.4,100z
	 M209.2,104.6c-1.3-9.9-3-19.7-4.6-29.6l-2.7-14.7c-1-4.9-1.9-9.8-3-14.7c-2.1-9.8-4.4-19.5-7.2-29.1c0.7,10,1.9,19.9,3.2,29.8
	c0.6,5,1.5,9.9,2.2,14.8l2.5,14.8c1.8,9.8,3.6,19.6,5.8,29.4c2.1,9.8,4.4,19.5,7.2,29.1C211.7,124.4,210.5,114.5,209.2,104.6z
	 M201.8,110.3c-1.8-8.4-3.8-16.8-6-25.1l-3.4-12.4c-1.2-4.1-2.4-8.3-3.7-12.4c-2.5-8.2-5.2-16.4-8.4-24.4c1.1,8.6,2.8,17,4.6,25.4
	c0.9,4.2,1.9,8.4,2.8,12.6l3.1,12.5c2.2,8.3,4.5,16.6,7.1,24.8c2.5,8.2,5.2,16.4,8.4,24.4C205.3,127.1,203.6,118.7,201.8,110.3z
	 M192.2,108.7c-3-9.5-6.3-18.9-9.7-28.3l-5.2-14c-1.8-4.6-3.6-9.3-5.5-13.9C168,43.2,164,34,159.6,25c2.4,9.7,5.3,19.3,8.4,28.8
	c1.5,4.8,3.1,9.5,4.7,14.2l5,14.1c3.5,9.4,7,18.7,10.8,27.9c3.8,9.3,7.7,18.4,12.1,27.5C198.2,127.8,195.3,118.3,192.2,108.7z
	 M182.4,108.7c-4.4-10.3-9.1-20.4-13.8-30.6L161.4,63c-2.5-5-4.9-10-7.5-15c-5.1-10-10.4-19.8-16.1-29.5
	c3.8,10.6,8.1,20.9,12.5,31.2c2.2,5.2,4.5,10.2,6.8,15.4l7,15.2c4.8,10.1,9.7,20.2,14.8,30.1c5.1,10,10.4,19.8,16.1,29.5
	C191.1,129.3,186.9,119,182.4,108.7z M176.3,115.8c-4.6-8.8-9.5-17.5-14.5-26.2l-7.6-12.9c-2.6-4.3-5.2-8.5-7.9-12.8
	c-5.3-8.5-10.8-16.8-16.7-24.9c4.1,9.2,8.6,18.1,13.2,26.9c2.3,4.4,4.7,8.8,7.1,13.2l7.4,13c5,8.6,10.1,17.2,15.5,25.6
	c5.3,8.5,10.8,16.8,16.7,24.9C185.4,133.6,180.9,124.6,176.3,115.8z M171.3,123.7c-4.6-7.3-9.3-14.4-14.2-21.5l-7.4-10.5
	c-2.6-3.5-5-7-7.7-10.4c-5.2-6.9-10.5-13.6-16.3-20.1c4,7.7,8.4,15.1,13,22.3c2.2,3.7,4.7,7.2,7,10.8l7.2,10.7
	c4.9,7,9.9,14,15.1,20.9c5.2,6.9,10.5,13.6,16.3,20.1C180.3,138.4,175.9,131,171.3,123.7z M161.8,125.5
	c-6.1-7.9-12.4-15.6-18.8-23.3l-9.7-11.4c-3.3-3.7-6.6-7.5-9.9-11.2c-6.7-7.4-13.5-14.7-20.8-21.7c5.6,8.3,11.6,16.3,17.7,24.2
	c3,4,6.2,7.8,9.3,11.7l9.5,11.6c6.5,7.6,13,15.2,19.7,22.6c6.7,7.4,13.5,14.7,20.8,21.7C173.9,141.4,167.9,133.4,161.8,125.5z
	 M152.6,128.9c-7.6-8.2-15.5-16.1-23.4-24l-12-11.7c-4.1-3.8-8.1-7.7-12.2-11.5C96.8,74,88.4,66.5,79.8,59.4
	c7.2,8.6,14.7,16.9,22.4,25c3.8,4.1,7.7,8.1,11.6,12.1l11.8,11.9c8,7.8,16,15.6,24.2,23.2c8.2,7.6,16.5,15.1,25.2,22.2
	C167.8,145.3,160.2,137,152.6,128.9z M149.2,137.6c-7.4-6.7-15-13.2-22.6-19.7l-11.6-9.5c-3.9-3.1-7.8-6.3-11.7-9.3
	C95.4,93,87.4,87,79.1,81.4c7,7.2,14.3,14.1,21.7,20.8c3.7,3.4,7.5,6.6,11.2,9.9l11.4,9.7c7.7,6.4,15.4,12.7,23.3,18.8
	c7.9,6.1,15.9,12.1,24.2,17.7C163.9,151.2,156.6,144.3,149.2,137.6z M147.2,146.7c-6.8-5.3-13.7-10.4-20.7-15.4l-10.6-7.3
	c-3.6-2.4-7.1-4.8-10.8-7.1c-7.2-4.7-14.6-9.2-22.2-13.3c6.4,5.8,13.1,11.3,19.9,16.5c3.4,2.7,6.8,5.2,10.3,7.8l10.4,7.6
	c7,4.9,14.1,9.8,21.3,14.4c7.2,4.7,14.6,9.2,22.2,13.3C160.7,157.4,154,152,147.2,146.7z M138.9,151.7c-8.4-5.3-17-10.4-25.6-15.5
	l-13-7.4c-4.4-2.4-8.7-4.8-13.2-7.1c-8.8-4.7-17.8-9.2-26.9-13.2c8.1,5.9,16.5,11.4,24.9,16.7c4.2,2.7,8.5,5.2,12.8,7.9l12.9,7.6
	c8.7,4.9,17.4,9.8,26.2,14.5c8.8,4.7,17.7,9.2,26.9,13.3C155.7,162.5,147.3,157.1,138.9,151.7z M131.4,158
	c-10-5.1-20.1-9.8-30.2-14.6l-15.3-6.9c-5.1-2.2-10.2-4.5-15.4-6.6c-10.3-4.3-20.7-8.5-31.3-12.3c9.7,5.7,19.6,10.8,29.6,15.9
	c5,2.6,10,4.9,15,7.4L99,148c10.2,4.6,20.4,9.2,30.7,13.6c10.3,4.3,20.7,8.5,31.3,12.3C151.3,168.2,141.3,163,131.4,158z
	 M131.2,167.4c-9.2-3.8-18.6-7.3-27.9-10.8l-14.1-5c-4.7-1.6-9.4-3.2-14.2-4.7c-9.5-3.1-19.1-6-28.8-8.4c9,4.4,18.2,8.3,27.5,12.1
	c4.6,1.9,9.3,3.7,13.9,5.5l14,5.2c9.4,3.4,18.8,6.7,28.3,9.7c9.5,3.1,19.1,6,28.8,8.4C149.6,175.1,140.4,171.2,131.2,167.4z
	 M132.5,176.6c-8.2-2.7-16.4-5-24.7-7.4L95.3,166c-4.2-1-8.3-2.1-12.5-3c-8.4-1.9-16.8-3.7-25.4-4.9c8,3.3,16.1,6.1,24.3,8.7
	c4.1,1.4,8.2,2.5,12.3,3.8l12.4,3.5c8.3,2.2,16.6,4.4,25,6.3c8.4,1.9,16.8,3.7,25.4,4.9C148.8,182.1,140.7,179.3,132.5,176.6z
	 M126.3,184.2c-9.8-2.1-19.6-4-29.4-5.8L82.2,176c-4.9-0.7-9.9-1.5-14.8-2.2c-9.9-1.4-19.8-2.6-29.8-3.2c9.6,2.8,19.4,5.1,29.1,7.2
	c4.9,1.1,9.8,2,14.7,3l14.7,2.7c9.8,1.7,19.7,3.3,29.6,4.6c9.9,1.4,19.8,2.6,29.8,3.2C145.8,188.6,136.1,186.3,126.3,184.2z
	 M121.4,192.6c-11.1-1.3-22.2-2.4-33.4-3.4L71.3,188c-5.6-0.3-11.2-0.7-16.7-1c-11.2-0.6-22.4-0.9-33.6-0.8
	c11.1,2,22.1,3.5,33.3,4.8c5.6,0.7,11.1,1.2,16.7,1.8l16.7,1.5c11.1,0.9,22.3,1.7,33.5,2.2c11.2,0.6,22.4,0.9,33.6,0.8
	C143.6,195.4,132.5,193.9,121.4,192.6z M124.5,201.6c-10-0.4-20-0.5-29.9-0.6l-15,0.1c-5,0.1-10,0.2-15,0.4c-10,0.4-20,0.9-29.9,2
	c10,1.1,20,1.6,29.9,2c5,0.2,10,0.3,15,0.4l15,0.1c10-0.1,20-0.2,29.9-0.6c10-0.4,20-0.9,29.9-2
	C144.4,202.5,134.4,201.9,124.5,201.6z M128.8,209.8c-8.6,0.3-17.2,0.9-25.7,1.5l-12.8,1.2c-4.3,0.5-8.5,0.9-12.8,1.5
	c-8.5,1.1-17,2.3-25.5,4.1c8.6,0.4,17.3,0.2,25.8-0.1c4.3-0.1,8.6-0.4,12.9-0.6l12.9-0.9c8.6-0.7,17.1-1.6,25.6-2.7
	c8.5-1.1,17-2.3,25.5-4.1C146,209.3,137.4,209.4,128.8,209.8z M125.6,219c-9.9,1.3-19.7,3-29.6,4.6l-14.7,2.7c-4.9,1-9.8,1.9-14.7,3
	c-9.8,2.1-19.5,4.4-29.1,7.2c10-0.7,19.9-1.9,29.8-3.2c5-0.6,9.9-1.5,14.8-2.2l14.8-2.5c9.8-1.8,19.6-3.6,29.4-5.8
	c9.8-2.1,19.5-4.4,29.1-7.2C145.5,216.4,135.5,217.6,125.6,219z M123.9,228.6c-10.9,2.5-21.7,5.4-32.5,8.2l-16.1,4.5
	c-5.4,1.6-10.7,3.1-16.1,4.8c-10.7,3.3-21.3,6.8-31.8,10.7c11.1-1.9,22-4.3,32.9-6.9c5.5-1.2,10.9-2.7,16.3-4l16.2-4.3
	c10.8-3,21.5-6,32.2-9.3c10.7-3.3,21.3-6.8,31.8-10.7C145.7,223.6,134.8,226,123.9,228.6z M129.8,235.9c-9.5,3-18.9,6.3-28.3,9.7
	l-14,5.2c-4.6,1.8-9.3,3.6-13.9,5.5c-9.3,3.8-18.4,7.7-27.5,12.1c9.7-2.4,19.3-5.3,28.8-8.4c4.8-1.5,9.5-3.1,14.2-4.7l14.1-5
	c9.4-3.5,18.7-7,27.9-10.8c9.2-3.8,18.4-7.7,27.5-12.1C148.9,230,139.3,232.9,129.8,235.9z M136.7,242.1c-8,3.2-15.8,6.7-23.7,10.2
	l-11.7,5.5c-3.8,1.9-7.7,3.8-11.5,5.8c-7.7,3.9-15.2,8-22.6,12.6c8.3-2.6,16.3-5.7,24.3-8.9c4-1.6,7.9-3.3,11.9-5l11.8-5.3
	c7.8-3.6,15.5-7.3,23.2-11.3c7.7-3.9,15.2-8,22.6-12.6C152.7,235.8,144.7,238.9,136.7,242.1z M136.9,251.9
	c-8.8,4.6-17.5,9.5-26.2,14.5L97.8,274c-4.3,2.6-8.5,5.2-12.8,7.9c-8.5,5.3-16.8,10.8-24.9,16.7c9.2-4.1,18.1-8.6,26.9-13.2
	c4.4-2.3,8.8-4.7,13.2-7.1l13-7.4c8.6-5,17.2-10.1,25.6-15.5c8.5-5.3,16.8-10.8,24.9-16.7C154.6,242.7,145.7,247.2,136.9,251.9z
	 M138.5,261.5c-9.4,6.1-18.6,12.5-27.7,18.9l-13.6,9.8c-4.5,3.3-9,6.6-13.5,10c-8.9,6.8-17.7,13.6-26.3,21
	c9.7-5.6,19.2-11.6,28.5-17.7c4.7-3,9.3-6.2,13.9-9.3l13.8-9.6c9.1-6.5,18.2-13,27.1-19.8c8.9-6.8,17.7-13.6,26.3-21
	C157.3,249.4,147.9,255.4,138.5,261.5z M146.6,266.4c-7.9,6.1-15.6,12.4-23.3,18.8l-11.4,9.7c-3.7,3.3-7.5,6.6-11.2,9.9
	c-7.4,6.7-14.7,13.5-21.7,20.8c8.3-5.6,16.3-11.6,24.2-17.7c4-3,7.8-6.2,11.7-9.3l11.6-9.5c7.6-6.5,15.2-13,22.6-19.7
	c7.4-6.7,14.7-13.5,21.7-20.8C162.5,254.3,154.5,260.3,146.6,266.4z M155.2,269.9c-6.4,5.7-12.6,11.7-18.7,17.7l-9.1,9.2
	c-3,3.1-6,6.2-8.9,9.4c-5.8,6.3-11.6,12.7-16.9,19.5c6.9-5.3,13.4-10.9,19.7-16.7c3.2-2.8,6.3-5.8,9.5-8.8l9.3-9
	c6.1-6.1,12.1-12.2,17.9-18.5c5.8-6.3,11.6-12.7,16.9-19.5C168.1,258.5,161.6,264.1,155.2,269.9z M158.7,279
	c-6.7,7.4-13.2,15-19.7,22.6l-9.5,11.6c-3.1,3.9-6.3,7.8-9.3,11.7c-6.1,7.9-12.1,15.9-17.7,24.2c7.2-7,14.1-14.2,20.8-21.7
	c3.4-3.7,6.6-7.5,9.9-11.2l9.7-11.4c6.4-7.7,12.7-15.4,18.8-23.3c6.1-7.9,12.1-15.9,17.7-24.2C172.3,264.3,165.4,271.6,158.7,279z
	 M163.6,287.5c-6.7,8.9-13.2,18.1-19.6,27.2l-9.5,13.8c-3.1,4.7-6.2,9.3-9.2,14c-6.1,9.4-12,18.9-17.5,28.7
	c7.3-8.6,14.1-17.4,20.8-26.4c3.4-4.5,6.6-9,9.9-13.5l9.7-13.7c6.3-9.2,12.6-18.4,18.7-27.9c6.1-9.4,12-18.9,17.5-28.7
	C177.1,269.6,170.3,278.5,163.6,287.5z M172.8,289.3c-5.3,8.4-10.4,17-15.5,25.6l-7.4,13c-2.4,4.4-4.8,8.7-7.1,13.2
	c-4.7,8.8-9.2,17.7-13.2,26.9c5.9-8.1,11.4-16.5,16.7-24.9c2.7-4.2,5.2-8.5,7.9-12.8l7.6-12.9c4.9-8.7,9.8-17.4,14.5-26.2
	c4.7-8.8,9.2-17.7,13.3-26.9C183.6,272.4,178.1,280.8,172.8,289.3z M182.1,289.6c-4,7.6-7.8,15.3-11.5,23l-5.4,11.7
	c-1.7,3.9-3.5,7.8-5.1,11.8c-3.3,7.9-6.5,15.9-9.2,24.1c4.6-7.3,8.8-14.8,12.8-22.4c2.1-3.8,3.9-7.6,5.9-11.5l5.6-11.6
	c3.6-7.8,7.2-15.6,10.5-23.5c3.3-7.9,6.5-15.9,9.2-24.1C190.3,274.5,186.1,282,182.1,289.6z M188.5,297c-3.8,9.2-7.3,18.6-10.8,27.9
	l-5,14.1c-1.6,4.7-3.2,9.4-4.7,14.2c-3.1,9.5-6,19.1-8.4,28.8c4.4-9,8.3-18.2,12.1-27.5c1.9-4.6,3.7-9.3,5.5-13.9l5.2-14
	c3.4-9.4,6.7-18.8,9.7-28.3c3.1-9.5,6-19.1,8.4-28.8C196.2,278.5,192.3,287.7,188.5,297z M196,303.3c-3.2,10.7-6.2,21.5-9.1,32.3
	l-4.2,16.2c-1.3,5.4-2.7,10.9-3.9,16.3c-2.5,10.9-4.8,21.9-6.6,32.9c3.9-10.5,7.3-21.2,10.5-31.9c1.7-5.3,3.1-10.7,4.7-16.1
	l4.4-16.2c2.8-10.8,5.6-21.7,8-32.6c2.5-10.9,4.8-21.9,6.6-32.9C202.6,281.9,199.2,292.6,196,303.3z M205.3,301.8
	c-2.1,9.8-4,19.6-5.8,29.4L197,346c-0.7,4.9-1.5,9.9-2.2,14.8c-1.4,9.9-2.6,19.8-3.2,29.8c2.8-9.6,5.1-19.4,7.2-29.1
	c1.1-4.9,2-9.8,3-14.7l2.7-14.7c1.7-9.8,3.3-19.7,4.6-29.6c1.4-9.9,2.6-19.8,3.2-29.8C209.6,282.3,207.4,292,205.3,301.8z
	 M214.1,298.9c-1.2,8.5-2.1,17.1-3,25.6l-1.1,12.8c-0.3,4.3-0.6,8.6-0.8,12.9c-0.4,8.6-0.7,17.2-0.4,25.8c1.9-8.5,3.2-17,4.4-25.5
	c0.6-4.3,1.1-8.5,1.6-12.8l1.3-12.8c0.8-8.6,1.4-17.1,1.8-25.7c0.4-8.6,0.7-17.2,0.4-25.8C216.6,281.9,215.3,290.4,214.1,298.9z
	 M222.6,303.7c-0.4,10-0.5,20-0.6,29.9l0.1,15c0.1,5,0.2,10,0.4,15c0.4,10,0.9,20,2,29.9c1.1-10,1.6-20,2-29.9c0.2-5,0.3-10,0.4-15
	l0.1-15c-0.1-10-0.2-20-0.6-29.9c-0.4-10-0.9-20-2-29.9C223.5,283.7,223,293.7,222.6,303.7z M231.8,307.1
	c0.6,11.2,1.5,22.3,2.5,33.5l1.7,16.7c0.6,5.6,1.2,11.1,1.9,16.7c1.4,11.1,3,22.2,5,33.2c0-11.2-0.4-22.4-1.1-33.6
	c-0.3-5.6-0.7-11.2-1.1-16.7l-1.4-16.7c-1.1-11.1-2.2-22.3-3.6-33.3c-1.4-11.1-3-22.2-5-33.2C230.7,284.7,231.2,295.9,231.8,307.1z
	 M240,302.5c1.3,9.9,3,19.7,4.6,29.6l2.7,14.7c1,4.9,1.9,9.8,3,14.7c2.1,9.8,4.4,19.5,7.2,29.1c-0.7-10-1.9-19.9-3.2-29.8
	c-0.6-5-1.5-9.9-2.2-14.8l-2.5-14.8c-1.8-9.8-3.6-19.6-5.8-29.4c-2.1-9.8-4.4-19.5-7.2-29.1C237.5,282.7,238.7,292.6,240,302.5z
	 M247.4,296.8c1.8,8.4,3.8,16.8,6,25.1l3.4,12.4c1.2,4.1,2.4,8.3,3.7,12.4c2.5,8.2,5.2,16.4,8.4,24.4c-1.1-8.6-2.8-17-4.6-25.4
	c-0.9-4.2-1.9-8.4-2.8-12.6l-3.1-12.5c-2.2-8.3-4.5-16.6-7.1-24.8c-2.5-8.2-5.2-16.4-8.4-24.4C243.9,279.9,245.6,288.4,247.4,296.8z
	 M257,298.3c3,9.5,6.3,18.9,9.7,28.3l5.2,14c1.8,4.6,3.6,9.3,5.5,13.9c3.8,9.3,7.7,18.4,12.1,27.5c-2.4-9.7-5.3-19.3-8.4-28.8
	c-1.5-4.8-3.1-9.5-4.7-14.2l-5-14.1c-3.5-9.4-7-18.7-10.8-27.9c-3.8-9.2-7.7-18.4-12.1-27.5C251,279.2,253.9,288.8,257,298.3z
	 M266.8,298.4c4.4,10.3,9.1,20.4,13.8,30.6l7.3,15.1c2.5,5,4.9,10,7.5,15c5.1,10,10.4,19.8,16.1,29.5c-3.8-10.6-8.1-20.9-12.5-31.2
	c-2.2-5.2-4.5-10.2-6.8-15.4l-7-15.2c-4.8-10.1-9.7-20.2-14.8-30.1c-5.1-10-10.4-19.8-16.1-29.5
	C258.1,277.7,262.3,288.1,266.8,298.4z M273,291.2c4.6,8.8,9.5,17.5,14.5,26.2l7.6,12.9c2.6,4.2,5.2,8.5,7.9,12.7
	c5.3,8.5,10.8,16.8,16.7,24.9c-4.1-9.2-8.6-18.1-13.2-26.9c-2.3-4.4-4.7-8.8-7.1-13.2l-7.4-13c-5-8.6-10.1-17.2-15.5-25.6
	c-5.3-8.5-10.8-16.8-16.7-24.9C263.8,273.5,268.3,282.4,273,291.2z M277.9,283.4c4.6,7.3,9.3,14.4,14.2,21.5l7.4,10.5
	c2.6,3.5,5,7,7.7,10.4c5.2,6.9,10.5,13.6,16.3,20.1c-4-7.7-8.4-15.1-13-22.3c-2.2-3.7-4.7-7.2-7-10.8l-7.2-10.7
	c-4.9-7-9.9-14-15.1-20.9c-5.2-6.9-10.5-13.6-16.3-20.1C268.9,268.7,273.3,276.1,277.9,283.4z M287.5,281.5
	c6.1,7.9,12.4,15.6,18.8,23.3l9.7,11.4c3.3,3.7,6.6,7.5,9.9,11.2c6.7,7.4,13.5,14.7,20.8,21.7c-5.6-8.3-11.6-16.3-17.7-24.2
	c-3-4-6.2-7.8-9.3-11.7l-9.5-11.6c-6.5-7.6-13-15.2-19.7-22.6c-6.7-7.4-13.5-14.7-20.8-21.7C275.3,265.6,281.3,273.6,287.5,281.5z
	 M296.7,278.2c7.6,8.2,15.5,16.1,23.4,24l12,11.7c4.1,3.8,8.1,7.7,12.2,11.5c8.2,7.6,16.5,15.1,25.2,22.2
	c-7.2-8.6-14.7-16.9-22.4-25c-3.8-4.1-7.7-8.1-11.6-12.1l-11.8-11.9c-8-7.8-16-15.6-24.2-23.2c-8.2-7.6-16.5-15.1-25.2-22.2
	C281.4,261.8,289,270.1,296.7,278.2z M300,269.4c7.4,6.7,15,13.2,22.6,19.7l11.6,9.5c3.9,3.1,7.8,6.3,11.7,9.3
	c7.9,6.1,15.9,12.1,24.2,17.7c-7-7.2-14.3-14.1-21.7-20.8c-3.7-3.4-7.5-6.6-11.2-9.9l-11.4-9.7c-7.7-6.4-15.4-12.7-23.3-18.8
	c-7.9-6.1-15.9-12.1-24.2-17.7C285.4,255.9,292.6,262.7,300,269.4z M302,260.3c6.8,5.3,13.7,10.4,20.7,15.4l10.6,7.3
	c3.6,2.4,7.1,4.8,10.8,7.1c7.2,4.7,14.6,9.2,22.2,13.3c-6.4-5.8-13.1-11.3-19.9-16.5c-3.4-2.7-6.8-5.2-10.3-7.8l-10.4-7.6
	c-7-4.9-14.1-9.8-21.3-14.4c-7.2-4.7-14.6-9.2-22.2-13.3C288.5,249.6,295.2,255.1,302,260.3z M310.3,255.3
	c8.4,5.3,17,10.4,25.6,15.5l13,7.4c4.4,2.4,8.7,4.8,13.2,7.1c8.8,4.7,17.8,9.2,26.9,13.2c-8.1-5.9-16.5-11.4-24.9-16.7
	c-4.2-2.7-8.5-5.2-12.8-7.9l-12.9-7.6c-8.7-4.9-17.4-9.8-26.2-14.5c-8.8-4.7-17.7-9.2-26.9-13.3C293.5,244.5,301.9,250,310.3,255.3z
	 M317.8,249.1c10,5.1,20.1,9.8,30.2,14.6l15.3,6.9c5.1,2.2,10.2,4.5,15.4,6.6c10.3,4.3,20.7,8.5,31.3,12.3
	c-9.7-5.7-19.6-10.8-29.6-15.9c-5-2.6-10-4.9-15-7.4l-15.2-7.2c-10.2-4.6-20.4-9.2-30.7-13.6c-10.3-4.3-20.7-8.5-31.3-12.3
	C297.9,238.9,307.9,244,317.8,249.1z M318,239.6c9.2,3.8,18.6,7.3,27.9,10.8l14.1,5c4.7,1.6,9.4,3.2,14.2,4.7
	c9.5,3.1,19.1,6,28.8,8.4c-9-4.4-18.2-8.3-27.5-12.1c-4.6-1.9-9.3-3.7-13.9-5.5l-14-5.2c-9.4-3.4-18.8-6.7-28.3-9.7
	c-9.5-3.1-19.1-6-28.8-8.4C299.6,231.9,308.8,235.9,318,239.6z M316.7,230.4c8.2,2.7,16.4,5,24.7,7.4l12.5,3.3c4.2,1,8.3,2.1,12.5,3
	c8.4,1.9,16.8,3.7,25.4,4.9c-8-3.3-16.1-6.1-24.3-8.7c-4.1-1.4-8.2-2.5-12.3-3.8l-12.4-3.5c-8.3-2.2-16.6-4.4-25-6.3
	c-8.4-1.9-16.8-3.7-25.4-4.9C300.4,225,308.6,227.8,316.7,230.4z M322.9,222.9c9.8,2.1,19.6,4,29.4,5.8l14.8,2.5
	c4.9,0.7,9.9,1.5,14.8,2.2c9.9,1.4,19.8,2.6,29.8,3.2c-9.6-2.8-19.4-5.1-29.1-7.2c-4.9-1.1-9.8-2-14.7-3l-14.7-2.7
	c-9.8-1.7-19.7-3.3-29.6-4.6c-9.9-1.4-19.8-2.6-29.8-3.2C303.4,218.5,313.1,220.8,322.9,222.9z M327.8,214.4
	c11.1,1.3,22.2,2.4,33.4,3.4l16.7,1.3c5.6,0.3,11.2,0.7,16.7,1c11.2,0.6,22.4,0.9,33.6,0.8c-11.1-2-22.1-3.5-33.3-4.8
	c-5.6-0.7-11.1-1.2-16.7-1.8l-16.7-1.5c-11.1-0.9-22.3-1.7-33.5-2.2c-11.2-0.6-22.4-0.9-33.6-0.8
	C305.6,211.6,316.7,213.1,327.8,214.4z M324.7,205.5c10,0.4,20,0.5,29.9,0.6l15-0.1c5-0.1,10-0.2,15-0.4c10-0.4,20-0.9,29.9-2
	c-10-1.1-20-1.6-29.9-2c-5-0.2-10-0.3-15-0.4l-15-0.1c-10,0.1-20,0.2-29.9,0.6c-10,0.4-20,0.9-29.9,2
	C304.8,204.6,314.8,205.1,324.7,205.5z M320.4,197.3c8.6-0.3,17.2-0.9,25.7-1.5l12.8-1.2c4.3-0.5,8.5-0.9,12.8-1.5
	c8.5-1.1,17.1-2.3,25.5-4.1c-8.6-0.4-17.3-0.2-25.8,0.1c-4.3,0.1-8.6,0.4-12.9,0.6l-12.9,0.9c-8.6,0.7-17.1,1.6-25.6,2.7
	c-8.5,1.1-17,2.3-25.5,4.1C303.2,197.8,311.8,197.6,320.4,197.3z M323.6,188.1c9.9-1.3,19.7-3,29.6-4.6l14.7-2.7
	c4.9-1,9.8-1.9,14.7-3c9.8-2.1,19.5-4.4,29.1-7.2c-10,0.7-19.9,1.9-29.8,3.2c-5,0.6-9.9,1.5-14.8,2.2l-14.8,2.5
	c-9.8,1.8-19.6,3.6-29.4,5.8c-9.8,2.1-19.5,4.4-29.1,7.2C303.8,190.7,313.7,189.5,323.6,188.1z M325.3,178.5
	c10.9-2.5,21.7-5.4,32.5-8.2l16.1-4.5c5.4-1.6,10.7-3.1,16.1-4.8c10.7-3.3,21.3-6.8,31.8-10.7c-11.1,1.9-22,4.3-32.9,6.9
	c-5.5,1.2-10.9,2.7-16.3,4l-16.2,4.3c-10.8,3-21.5,6-32.2,9.3c-10.7,3.3-21.3,6.8-31.8,10.7C303.5,183.4,314.4,181.1,325.3,178.5z
	 M319.4,171.1c9.5-3,18.9-6.3,28.3-9.7l14-5.2c4.6-1.8,9.3-3.6,13.9-5.5c9.3-3.8,18.4-7.7,27.5-12.1c-9.7,2.4-19.3,5.3-28.8,8.4
	c-4.8,1.5-9.5,3.1-14.2,4.7l-14.1,5c-9.4,3.5-18.7,7-27.9,10.8c-9.3,3.8-18.4,7.7-27.5,12.1C300.3,177.1,309.9,174.2,319.4,171.1z
	 M312.5,164.9c8-3.2,15.8-6.7,23.7-10.2l11.7-5.5c3.8-1.9,7.7-3.8,11.5-5.8c7.7-3.9,15.2-8,22.6-12.6c-8.3,2.6-16.3,5.7-24.3,8.9
	c-4,1.6-7.9,3.3-11.9,5L334,150c-7.8,3.6-15.5,7.3-23.2,11.3c-7.7,3.9-15.2,8-22.6,12.6C296.5,171.2,304.5,168.2,312.5,164.9z
	 M312.3,155.2c8.8-4.6,17.5-9.5,26.2-14.5l12.9-7.6c4.3-2.6,8.5-5.2,12.8-7.9c8.5-5.3,16.8-10.8,24.9-16.7
	c-9.2,4.1-18.1,8.6-26.9,13.2c-4.4,2.3-8.8,4.7-13.2,7.1l-13,7.4c-8.6,5-17.2,10.1-25.6,15.5c-8.5,5.3-16.8,10.8-24.9,16.7
	C294.6,164.4,303.5,159.8,312.3,155.2z M310.7,145.6c9.4-6.1,18.6-12.5,27.7-18.9l13.6-9.8c4.5-3.3,9-6.6,13.5-10
	c8.9-6.8,17.7-13.6,26.3-21c-9.7,5.6-19.2,11.6-28.5,17.7c-4.7,3-9.3,6.2-13.9,9.3l-13.8,9.6c-9.1,6.5-18.2,13-27.1,19.8
	c-8.9,6.8-17.7,13.6-26.3,21C291.9,157.7,301.3,151.7,310.7,145.6z M302.6,140.7c7.9-6.1,15.6-12.4,23.3-18.8l11.4-9.7
	c3.7-3.3,7.5-6.6,11.2-9.9c7.4-6.7,14.7-13.5,21.7-20.8c-8.3,5.6-16.3,11.6-24.2,17.7c-4,3-7.8,6.2-11.7,9.3l-11.6,9.5
	c-7.6,6.5-15.2,13-22.6,19.7c-7.4,6.7-14.7,13.5-21.7,20.8C286.7,152.8,294.7,146.8,302.6,140.7z M294,137.2
	c6.4-5.7,12.6-11.7,18.7-17.7l9.1-9.2c3-3.1,6-6.2,8.9-9.4c5.8-6.3,11.6-12.7,16.9-19.5c-6.9,5.3-13.4,10.9-19.7,16.7
	c-3.2,2.9-6.3,5.8-9.5,8.8l-9.3,9c-6.1,6.1-12.1,12.2-17.9,18.5c-5.9,6.3-11.6,12.7-16.9,19.5C281.1,148.6,287.6,143,294,137.2z
	 M290.5,128.1c6.7-7.4,13.2-15,19.7-22.6l9.5-11.6c3.1-3.9,6.3-7.8,9.3-11.7c6.1-7.9,12.1-15.9,17.7-24.2
	c-7.2,7-14.1,14.3-20.8,21.7c-3.4,3.7-6.6,7.5-9.9,11.2l-9.7,11.4c-6.4,7.7-12.7,15.4-18.8,23.3c-6.1,7.9-12.1,15.9-17.7,24.2
	C277,142.8,283.8,135.5,290.5,128.1z M285.6,119.6c6.7-8.9,13.2-18.1,19.6-27.2l9.5-13.8c3.1-4.7,6.2-9.3,9.2-14
	c6.1-9.4,12-18.9,17.5-28.7c-7.3,8.6-14.1,17.4-20.8,26.4c-3.4,4.5-6.6,9-9.9,13.5l-9.7,13.7c-6.3,9.2-12.6,18.5-18.7,27.9
	c-6.1,9.4-12,18.9-17.5,28.7C272.1,137.4,279,128.6,285.6,119.6z M276.4,117.8c5.3-8.4,10.4-17,15.5-25.6l7.4-13
	c2.4-4.4,4.8-8.7,7.1-13.2c4.7-8.8,9.2-17.8,13.2-26.9c-5.9,8.1-11.4,16.5-16.7,24.9c-2.7,4.2-5.2,8.5-7.9,12.8l-7.6,12.9
	c-4.9,8.7-9.8,17.4-14.5,26.2c-4.7,8.8-9.2,17.7-13.3,26.9C265.6,134.6,271.1,126.3,276.4,117.8z M267.1,117.5
	c4-7.6,7.8-15.3,11.5-23l5.4-11.7c1.7-3.9,3.5-7.8,5.1-11.8c3.3-7.9,6.5-15.9,9.2-24.1c-4.6,7.3-8.8,14.8-12.8,22.4
	c-2.1,3.8-3.9,7.6-5.9,11.5L274,92.2c-3.6,7.8-7.2,15.6-10.5,23.5c-3.3,7.9-6.5,15.9-9.2,24.1C258.9,132.6,263.1,125.1,267.1,117.5z
	 M260.7,110.1c3.8-9.2,7.3-18.6,10.8-27.9l5-14.1c1.6-4.7,3.2-9.4,4.7-14.2c3.1-9.5,6-19.1,8.4-28.8c-4.4,9-8.3,18.2-12.1,27.5
	c-1.9,4.6-3.7,9.3-5.5,13.9l-5.2,14c-3.4,9.4-6.7,18.8-9.7,28.3c-3.1,9.5-6,19.1-8.4,28.8C253,128.5,257,119.4,260.7,110.1z
	 M253.3,103.8c3.2-10.7,6.2-21.5,9.1-32.3l4.2-16.2c1.3-5.4,2.7-10.9,3.9-16.3c2.5-10.9,4.8-21.9,6.6-32.9
	c-3.9,10.5-7.3,21.2-10.5,31.9c-1.7,5.3-3.1,10.7-4.7,16.1l-4.4,16.2c-2.8,10.8-5.6,21.7-8,32.6c-2.5,10.9-4.8,21.9-6.6,32.9
	C246.6,125.2,250,114.5,253.3,103.8z M243.9,105.3c2.1-9.8,4-19.6,5.8-29.4l2.5-14.8c0.7-4.9,1.5-9.9,2.2-14.8
	c1.4-9.9,2.6-19.8,3.2-29.8c-2.8,9.6-5.1,19.4-7.2,29.1c-1.1,4.9-2,9.8-3,14.7L244.7,75c-1.7,9.8-3.3,19.7-4.6,29.6
	c-1.4,9.9-2.6,19.8-3.2,29.8C239.6,124.8,241.8,115,243.9,105.3z M235.1,108.1c1.2-8.5,2.1-17.1,3-25.6l1.1-12.8
	c0.3-4.3,0.6-8.6,0.8-12.9c0.4-8.6,0.7-17.2,0.4-25.8c-1.9,8.5-3.2,17-4.4,25.5c-0.6,4.3-1.1,8.5-1.6,12.8L233,82
	c-0.8,8.6-1.4,17.1-1.8,25.7c-0.4,8.6-0.7,17.2-0.4,25.8C232.6,125.1,233.9,116.6,235.1,108.1z"/>
<g>
	<path class="st1" d="M8.7,252h17.6V143.5H8.7v-2.2h30.1c1.3,0,2.5,0,3.8-0.1c1.3,0,2.5-0.1,3.8-0.2c1.3,0,2.5,0,3.8-0.1
		c1.3-0.1,2.5-0.1,3.8-0.1c6.2,0,11.7,0.3,16.5,1c4.8,0.7,9.2,2.7,13.3,5.9c3.7,2.9,6.3,6.1,7.8,9.7c1.5,3.6,2.3,7,2.3,10.1
		c0,1.6-0.3,3.6-0.9,6.1c-0.6,2.5-1.9,5-3.8,7.6c-2,2.6-4.8,5-8.5,7.1c-3.7,2.2-8.6,3.6-14.7,4.4v0.3c1.7,0.2,4,0.6,6.9,1.2
		c2.9,0.6,5.9,1.6,8.9,2.9c3,1.4,5.8,3.2,8.3,5.5c2.5,2.3,4.3,5.2,5.4,8.8c0.6,2.1,1.1,4.5,1.3,7.2c0.3,2.7,0.5,5.5,0.6,8.3
		c0.2,2.9,0.3,5.6,0.5,8.2c0.2,2.6,0.4,4.9,0.9,6.7c0.6,2.7,1.6,5.2,3,7.5c1.4,2.2,3.6,3.3,6.7,3.3c1.4,0,2.8-0.3,4.3-0.8
		c1.5-0.5,2.8-1.4,4-2.5l1.4,1.7c-0.5,0.4-1.1,0.9-1.8,1.3c-0.7,0.5-1.6,0.9-2.6,1.3c-1.1,0.4-2.4,0.8-3.9,1
		c-1.5,0.3-3.4,0.4-5.6,0.4c-4.2,0-7.7-0.5-10.5-1.6c-2.8-1.1-5-2.6-6.7-4.7c-1.7-2.1-2.9-4.6-3.7-7.6c-0.8-3-1.3-6.5-1.7-10.5
		l-1.1-14.4c-0.4-5.3-1.5-9.4-3.2-12.4c-1.7-3-3.7-5.1-5.9-6.5c-2.3-1.4-4.6-2.2-7.1-2.5c-2.4-0.3-4.5-0.4-6.3-0.4H42.1V252h17.6
		v2.2h-51V252z M42.1,192.5h14.6c3,0,5.7-0.4,8.1-1.1c2.4-0.7,4.5-2,6.3-3.9c1.7-1.8,3.1-4.4,4-7.5c1-3.2,1.4-7.2,1.4-12.1
		c0-5.5-0.7-9.9-2.1-13.2c-1.4-3.3-3.3-5.8-5.5-7.5c-2.3-1.7-4.8-2.8-7.6-3.3c-2.8-0.5-5.6-0.8-8.3-0.8c-1.9,0-3.8,0-5.8,0.1
		c-2,0.1-3.6,0.2-5,0.4V192.5z"/>
	<path class="st1" d="M121.4,252h14l42.8-113.5h3.8L225.1,252h14.1v2.2h-48.8V252H208l-16.6-44.1h-36.8L137.9,252h17.6v2.2h-34.1
		V252z M172.9,159.6l-17.4,46.1h34.9L172.9,159.6z"/>
	<path class="st1" d="M262.5,252h17.6v-45.5l-35.7-62.9H230v-2.2h48.5v2.2h-15.9l31.7,55.8l30-55.8h-16v-2.2h33.9v2.2h-15.4
		L296,201.4V252h17.6v2.2h-51V252z"/>
	<path class="st1" d="M353,220.1h1.7c1.2,5.7,2.7,10.5,4.5,14.4c1.9,3.9,3.9,7.1,6.1,9.7c2.2,2.5,4.5,4.5,7,5.9
		c2.4,1.4,4.9,2.4,7.4,3c2.5,0.6,4.9,1,7.1,1.1c2.3,0.1,4.4,0.2,6.4,0.2c5.6,0,10.2-0.8,13.8-2.5c3.6-1.7,6.4-3.8,8.6-6.4
		c2.1-2.6,3.6-5.4,4.4-8.4c0.8-3,1.3-5.8,1.3-8.3c0-3.7-0.7-6.9-2.1-9.5c-1.4-2.6-3.1-4.9-5.2-6.7c-2.1-1.8-4.4-3.4-6.9-4.5
		c-2.5-1.2-4.8-2.1-7.1-2.7l-18.2-5.5c-8.6-2.6-15-6.1-19.4-10.5c-4.4-4.3-6.6-10.1-6.6-17.4c0-4.8,0.8-9.2,2.5-13.2
		c1.7-4.1,4.1-7.6,7.1-10.5c3.1-3,6.7-5.3,11-7c4.3-1.7,9-2.5,14-2.5c3.7,0,6.8,0.3,9.3,0.9c2.5,0.6,4.6,1.3,6.4,2.1
		c1.8,0.8,3.4,1.5,4.8,2.1c1.4,0.6,2.9,0.9,4.4,0.9c1.4,0,2.3-0.2,2.8-0.6c0.5-0.4,1.1-1.3,2-2.8h2.2V170h-1.9
		c-0.6-3.8-1.7-7.5-3.2-11c-1.5-3.5-3.5-6.7-5.9-9.4c-2.4-2.7-5.4-4.9-8.8-6.5c-3.4-1.6-7.4-2.5-12-2.5c-2.5,0-5.3,0.3-8.4,1
		c-3.1,0.7-5.9,1.9-8.6,3.6c-2.6,1.7-4.8,3.9-6.6,6.7c-1.7,2.8-2.6,6.2-2.6,10.5c0,3.4,0.7,6.3,2.1,8.6c1.4,2.4,3.1,4.4,5.3,6
		c2.2,1.6,4.6,3,7.3,4.1c2.7,1.1,5.4,2.1,8.2,2.9l19.2,6c2,0.6,4.5,1.5,7.6,2.5c3.1,1.1,6,2.6,9,4.8c2.9,2.1,5.4,4.9,7.5,8.4
		c2.1,3.5,3.1,7.9,3.1,13.3c0,5-0.9,9.7-2.8,14.2c-1.9,4.5-4.5,8.5-8,11.9c-3.5,3.4-7.7,6.2-12.7,8.2c-5,2.1-10.6,3.1-16.8,3.1
		c-2.2,0-4.2,0-5.9-0.1c-1.7-0.1-3.3-0.2-4.8-0.4c-1.5-0.2-3-0.4-4.4-0.7c-1.5-0.3-3.1-0.7-4.9-1.2c-2.1-0.6-4.4-1.4-6.8-2.2
		c-2.4-0.8-4.5-1.3-6.3-1.3c-1.6,0-2.7,0.3-3.2,1c-0.6,0.6-1.1,1.5-1.5,2.5H353V220.1z"/>
</g>
<g>
	<path d="M8.7,252h17.6V143.5H8.7v-2.2h30.1c1.3,0,2.5,0,3.8-0.1c1.3,0,2.5-0.1,3.8-0.2c1.3,0,2.5,0,3.8-0.1
		c1.3-0.1,2.5-0.1,3.8-0.1c6.2,0,11.7,0.3,16.5,1c4.8,0.7,9.2,2.7,13.3,5.9c3.7,2.9,6.3,6.1,7.8,9.7c1.5,3.6,2.3,7,2.3,10.1
		c0,1.6-0.3,3.6-0.9,6.1c-0.6,2.5-1.9,5-3.8,7.6c-2,2.6-4.8,5-8.5,7.1c-3.7,2.2-8.6,3.6-14.7,4.4v0.3c1.7,0.2,4,0.6,6.9,1.2
		c2.9,0.6,5.9,1.6,8.9,2.9c3,1.4,5.8,3.2,8.3,5.5c2.5,2.3,4.3,5.2,5.4,8.8c0.6,2.1,1.1,4.5,1.3,7.2c0.3,2.7,0.5,5.5,0.6,8.3
		c0.2,2.9,0.3,5.6,0.5,8.2c0.2,2.6,0.4,4.9,0.9,6.7c0.6,2.7,1.6,5.2,3,7.5c1.4,2.2,3.6,3.3,6.7,3.3c1.4,0,2.8-0.3,4.3-0.8
		c1.5-0.5,2.8-1.4,4-2.5l1.4,1.7c-0.5,0.4-1.1,0.9-1.8,1.3c-0.7,0.5-1.6,0.9-2.6,1.3c-1.1,0.4-2.4,0.8-3.9,1
		c-1.5,0.3-3.4,0.4-5.6,0.4c-4.2,0-7.7-0.5-10.5-1.6c-2.8-1.1-5-2.6-6.7-4.7c-1.7-2.1-2.9-4.6-3.7-7.6c-0.8-3-1.3-6.5-1.7-10.5
		l-1.1-14.4c-0.4-5.3-1.5-9.4-3.2-12.4c-1.7-3-3.7-5.1-5.9-6.5c-2.3-1.4-4.6-2.2-7.1-2.5c-2.4-0.3-4.5-0.4-6.3-0.4H42.1V252h17.6
		v2.2h-51V252z M42.1,192.5h14.6c3,0,5.7-0.4,8.1-1.1c2.4-0.7,4.5-2,6.3-3.9c1.7-1.8,3.1-4.4,4-7.5c1-3.2,1.4-7.2,1.4-12.1
		c0-5.5-0.7-9.9-2.1-13.2c-1.4-3.3-3.3-5.8-5.5-7.5c-2.3-1.7-4.8-2.8-7.6-3.3c-2.8-0.5-5.6-0.8-8.3-0.8c-1.9,0-3.8,0-5.8,0.1
		c-2,0.1-3.6,0.2-5,0.4V192.5z"/>
	<path d="M121.4,252h14l42.8-113.5h3.8L225.1,252h14.1v2.2h-48.8V252H208l-16.6-44.1h-36.8L137.9,252h17.6v2.2h-34.1V252z
		 M172.9,159.6l-17.4,46.1h34.9L172.9,159.6z"/>
	<path d="M262.5,252h17.6v-45.5l-35.7-62.9H230v-2.2h48.5v2.2h-15.9l31.7,55.8l30-55.8h-16v-2.2h33.9v2.2h-15.4L296,201.4V252h17.6
		v2.2h-51V252z"/>
	<path d="M353,220.1h1.7c1.2,5.7,2.7,10.5,4.5,14.4c1.9,3.9,3.9,7.1,6.1,9.7c2.2,2.5,4.5,4.5,7,5.9c2.4,1.4,4.9,2.4,7.4,3
		c2.5,0.6,4.9,1,7.1,1.1c2.3,0.1,4.4,0.2,6.4,0.2c5.6,0,10.2-0.8,13.8-2.5c3.6-1.7,6.4-3.8,8.6-6.4c2.1-2.6,3.6-5.4,4.4-8.4
		c0.8-3,1.3-5.8,1.3-8.3c0-3.7-0.7-6.9-2.1-9.5c-1.4-2.6-3.1-4.9-5.2-6.7c-2.1-1.8-4.4-3.4-6.9-4.5c-2.5-1.2-4.8-2.1-7.1-2.7
		l-18.2-5.5c-8.6-2.6-15-6.1-19.4-10.5c-4.4-4.3-6.6-10.1-6.6-17.4c0-4.8,0.8-9.2,2.5-13.2c1.7-4.1,4.1-7.6,7.1-10.5
		c3.1-3,6.7-5.3,11-7c4.3-1.7,9-2.5,14-2.5c3.7,0,6.8,0.3,9.3,0.9c2.5,0.6,4.6,1.3,6.4,2.1c1.8,0.8,3.4,1.5,4.8,2.1
		c1.4,0.6,2.9,0.9,4.4,0.9c1.4,0,2.3-0.2,2.8-0.6c0.5-0.4,1.1-1.3,2-2.8h2.2V170h-1.9c-0.6-3.8-1.7-7.5-3.2-11
		c-1.5-3.5-3.5-6.7-5.9-9.4c-2.4-2.7-5.4-4.9-8.8-6.5c-3.4-1.6-7.4-2.5-12-2.5c-2.5,0-5.3,0.3-8.4,1c-3.1,0.7-5.9,1.9-8.6,3.6
		c-2.6,1.7-4.8,3.9-6.6,6.7c-1.7,2.8-2.6,6.2-2.6,10.5c0,3.4,0.7,6.3,2.1,8.6c1.4,2.4,3.1,4.4,5.3,6c2.2,1.6,4.6,3,7.3,4.1
		c2.7,1.1,5.4,2.1,8.2,2.9l19.2,6c2,0.6,4.5,1.5,7.6,2.5c3.1,1.1,6,2.6,9,4.8c2.9,2.1,5.4,4.9,7.5,8.4c2.1,3.5,3.1,7.9,3.1,13.3
		c0,5-0.9,9.7-2.8,14.2c-1.9,4.5-4.5,8.5-8,11.9c-3.5,3.4-7.7,6.2-12.7,8.2c-5,2.1-10.6,3.1-16.8,3.1c-2.2,0-4.2,0-5.9-0.1
		c-1.7-0.1-3.3-0.2-4.8-0.4c-1.5-0.2-3-0.4-4.4-0.7c-1.5-0.3-3.1-0.7-4.9-1.2c-2.1-0.6-4.4-1.4-6.8-2.2c-2.4-0.8-4.5-1.3-6.3-1.3
		c-1.6,0-2.7,0.3-3.2,1c-0.6,0.6-1.1,1.5-1.5,2.5H353V220.1z"/>
</g>
</svg>
