<?xml version="1.0" encoding="utf-8"?>
<!-- Generator: Adobe Illustrator 18.0.0, SVG Export Plug-In . SVG Version: 6.00 Build 0)  -->
<!DOCTYPE svg PUBLIC "-//W3C//DTD SVG 1.1//EN" "http://www.w3.org/Graphics/SVG/1.1/DTD/svg11.dtd">
<svg version="1.1" id="Layer_1" xmlns="http://www.w3.org/2000/svg" xmlns:xlink="http://www.w3.org/1999/xlink" x="0px" y="0px"
	 viewBox="0 47.9 219.9 64.4" enable-background="new 0 47.9 219.9 64.4" xml:space="preserve">
<g>
	<path fill="#353535" d="M36.6,72.7H25.4c-0.5,0-0.9-0.5-0.8-1l1.5-8.4c0.1-0.4,0.4-0.7,0.8-0.7h17.3c3.8,0,7-2.7,7.7-6.4l1.3-7.3
		c0.1-0.5-0.3-1-0.8-1H20.4c-5.3,0-9.8,3.8-10.7,9L6.4,75.3c-1.1,6.3,3.7,12.1,10.1,12.1h11.3c0.5,0,0.9,0.5,0.8,1l-1.5,8.4
		c-0.1,0.4-0.4,0.7-0.8,0.7H9c-3.8,0-7,2.7-7.7,6.4L0,111.3c-0.1,0.5,0.3,1,0.8,1h32c5.3,0,9.8-3.8,10.7-9l3.3-18.5
		C47.9,78.5,43,72.7,36.6,72.7z"/>
	<path fill="#353535" d="M144.5,111.5l4.1-23.5c0.1-0.4,0.4-0.7,0.8-0.7h15.8c0.4,0,0.7-0.3,0.8-0.7l2.3-13.1c0.1-0.5-0.3-1-0.8-1
		h-15.3c-0.5,0-0.9-0.5-0.8-1l1.5-8.4c0.1-0.4,0.4-0.7,0.8-0.7h28.4c0.5,0,0.9,0.5,0.8,1l-8.4,47.7c-0.1,0.5,0.3,1,0.8,1h15.9
		c0.4,0,0.7-0.3,0.8-0.7l8.5-48.3c0.1-0.4,0.4-0.7,0.8-0.7h9.4c3.8,0,7-2.7,7.7-6.4l1.3-7.3c0.1-0.5-0.3-1-0.8-1h-80.2
		c-0.4,0-0.7,0.3-0.8,0.7L127,111.3c-0.1,0.5,0.3,1,0.8,1h15.9C144.1,112.2,144.5,111.9,144.5,111.5z"/>
	<path fill="#353535" d="M113.1,48.5L102,111.3c-0.1,0.5,0.3,1,0.8,1h15.9c0.4,0,0.7-0.3,0.8-0.7l11.1-62.7c0.1-0.5-0.3-1-0.8-1
		h-15.9C113.5,47.9,113.2,48.1,113.1,48.5z"/>
	<path fill="#353535" d="M88.4,48.5L84.3,72c-0.1,0.4-0.4,0.7-0.8,0.7h-10c-0.5,0-0.9-0.5-0.8-1l4-22.9c0.1-0.5-0.3-1-0.8-1H60
		c-0.4,0-0.7,0.3-0.8,0.7l-11.1,62.7c-0.1,0.5,0.3,1,0.8,1h15.9c0.4,0,0.7-0.3,0.8-0.7l4.1-23.5c0.1-0.4,0.4-0.7,0.8-0.7h10
		c0.5,0,0.9,0.5,0.8,1l-4,22.9c-0.1,0.5,0.3,1,0.8,1h15.9c0.4,0,0.7-0.3,0.8-0.7L106,48.8c0.1-0.5-0.3-1-0.8-1H89.2
		C88.8,47.9,88.5,48.1,88.4,48.5z"/>
</g>
</svg>
