<?xml version="1.0" encoding="UTF-8"?>
<svg width="519px" height="145px" viewBox="0 0 519 145" version="1.1" xmlns="http://www.w3.org/2000/svg" xmlns:xlink="http://www.w3.org/1999/xlink">
    <!-- Generator: Sketch 49.3 (51167) - http://www.bohemiancoding.com/sketch -->
    <title>Solve Logo</title>
    <desc>Created with Sketch.</desc>
    <defs>
        <polygon id="path-1" points="0 0.213 91.7377 0.213 91.7377 100.033 0 100.033"></polygon>
        <polygon id="path-3" points="0.3039 0.27 65.3049 0.27 65.3049 145 0.3039 145"></polygon>
    </defs>
    <g id="Page-1" stroke="none" stroke-width="1" fill="none" fill-rule="evenodd">
        <g id="Solve-Logo" transform="translate(0.000000, -1.000000)">
            <path d="M173.5801,115.4107 C169.7381,119.9507 165.0781,122.2527 159.7321,122.2527 C156.2701,122.2527 153.0501,121.2357 150.1611,119.2247 C147.2841,117.2247 144.9761,114.0657 143.3261,109.8437 C141.6581,105.5807 140.8121,100.1237 140.8121,93.6037 C140.8121,87.2957 141.6681,82.0207 143.3661,77.9487 C145.0491,73.9177 147.4481,70.8197 150.4911,68.7487 C153.5371,66.6787 156.8321,65.6307 160.2961,65.6307 C165.8211,65.6307 170.4291,67.9877 173.9881,72.6477 C177.5781,77.3487 179.3991,84.4947 179.3991,93.8957 C179.3991,103.6007 177.4451,110.8357 173.5801,115.4107 M188.2981,50.2767 C180.2641,46.0397 170.7161,43.8937 159.9151,43.8937 C149.4941,43.8937 140.1041,46.0857 132.0021,50.4187 C123.8971,54.7567 117.6191,60.5917 113.3421,67.7517 C109.0631,74.9117 106.8971,83.5867 106.8971,93.5177 C106.8971,108.6437 111.6541,120.8127 121.0231,129.6747 C130.7121,138.9817 143.9261,143.7027 160.2981,143.7027 C176.3491,143.7027 189.3711,139.0167 199.0001,129.7757 C208.6261,120.5257 213.5081,108.3267 213.5081,93.5177 C213.5081,83.7087 211.3091,75.0267 206.9661,67.7107 C202.6201,60.3847 196.3421,54.5197 188.2981,50.2767" id="Fill-1" fill="#231F20"></path>
            <g id="Group-5" transform="translate(0.000000, 43.730000)">
                <mask id="mask-2" fill="white">
                    <use xlink:href="#path-1"></use>
                </mask>
                <g id="Clip-4"></g>
                <path d="M80.8237,46.835 C76.6087,44.383 70.1297,42.301 65.5117,40.653 L39.5327,31.397 C35.9777,30.173 33.6197,29.008 32.5217,27.936 C31.4537,26.898 30.9367,25.819 30.9367,24.634 C30.9367,23.231 31.6647,22.05 33.1667,21.012 C34.7187,19.928 37.0617,19.398 40.3187,19.398 C45.2287,19.398 50.2647,20.945 55.2857,23.998 C60.0477,26.891 64.1137,30.88 67.3637,35.852 C67.8267,36.564 68.7267,36.829 69.5107,36.512 L85.3537,30.112 C86.1997,29.774 86.6517,28.788 86.3967,27.917 L79.3227,3.52 C79.1007,2.76 78.4107,2 77.6217,2 L66.8947,2 C66.2647,2 65.6887,2.568 65.3677,3.117 L63.5517,6.426 C56.8477,2.305 48.7487,0.213 39.4677,0.213 C28.7507,0.213 19.6127,3.373 12.3117,9.596 C5.8577,15.083 2.5847,21.955 2.5847,30.018 C2.5847,36.295 4.6807,41.802 8.8127,46.378 C12.9167,50.922 20.7207,55.245 32.0307,59.227 L52.4167,66.301 C57.0447,67.907 60.0627,69.363 61.3777,70.623 C62.6477,71.832 63.2927,73.098 63.2927,74.387 C63.2927,75.92 62.4987,77.231 60.9087,78.368 C58.6587,79.885 55.8577,80.656 52.5877,80.656 C47.2377,80.656 41.2657,78.669 34.8317,74.743 C28.6617,70.969 23.3487,65.777 19.0407,59.293 C18.5707,58.582 17.6577,58.308 16.8717,58.65 L1.0857,65.342 C0.2067,65.714 -0.2213,66.736 0.1137,67.629 L11.0017,96.734 C11.2637,97.424 11.9247,98 12.6677,98 L23.6007,98 C24.2657,98 24.8757,97.51 25.1807,96.914 L27.2087,92.823 C34.4617,97.609 43.0267,100.033 52.6857,100.033 C64.2167,100.033 73.9897,96.753 81.7287,90.279 C88.3697,84.727 91.7377,77.506 91.7377,68.818 C91.7377,63.962 90.6497,59.664 88.4977,56.036 C86.3517,52.418 85.0887,49.325 80.8237,46.835" id="Fill-3" fill="#231F20" mask="url(#mask-2)"></path>
            </g>
            <g id="Group-8" transform="translate(224.000000, 0.730000)">
                <mask id="mask-4" fill="white">
                    <use xlink:href="#path-3"></use>
                </mask>
                <g id="Clip-7"></g>
                <path d="M63.1729,121 L58.6279,121 C53.3019,121 52.0979,120.494 51.9689,120.447 C51.0919,120.115 50.8199,119.568 50.7089,119.251 C50.6979,119.216 50.3049,118.238 50.3049,113.739 L50.3049,2.043 C50.3049,1.57 50.2649,1.121 49.9299,0.789 C49.5989,0.456 49.2929,0.27 48.8199,0.27 L38.3529,0.275 C38.2339,0.275 38.1169,0.291 38.0039,0.311 L37.6159,0.386 C37.5179,0.401 37.4089,0.432 37.3229,0.467 C25.6399,4.921 14.1599,7.561 3.2429,8.297 L2.0399,8.377 C1.1099,8.442 0.3039,9.213 0.3039,10.15 L0.3039,30.773 C0.3039,31.751 1.2679,33 2.2479,33 L14.3039,33 L14.3039,113.739 C14.3039,118.31 13.9359,119.416 13.9159,119.462 C13.7299,119.85 13.5419,120.186 13.1339,120.361 C13.0939,120.389 12.0159,121 7.0779,121 L2.2479,121 C1.2679,121 0.3039,121.433 0.3039,122.415 L0.3039,143.119 C0.3039,144.102 1.2679,145 2.2479,145 L63.1729,145 C64.1519,145 65.3049,144.102 65.3049,143.119 L65.3049,122.415 C65.3049,121.433 64.1519,121 63.1729,121" id="Fill-6" fill="#231F20" mask="url(#mask-4)"></path>
            </g>
            <path d="M457.5049,71.5103 C458.8889,69.3833 460.7699,67.7653 463.0879,66.5173 C467.6809,64.0583 472.8169,64.0063 477.1579,66.4343 C479.3249,67.6433 481.0639,69.2393 482.3329,71.2813 C483.4949,73.1243 484.3089,75.7303 484.7699,78.7303 L454.8969,78.7303 C455.3699,75.7303 456.2459,73.4243 457.5049,71.5103 Z M505.9339,107.1913 C505.6049,106.8533 505.1509,106.7303 504.6749,106.7303 L504.6639,106.7303 C504.1859,106.7303 503.7249,106.8773 503.3949,107.2203 C498.8439,111.9563 494.1819,115.5213 489.5309,117.9063 C484.6999,120.3783 480.2009,121.6523 476.1479,121.6523 C469.8269,121.6523 464.4109,119.2923 460.0449,114.5603 C455.8309,109.9953 453.5509,103.7303 453.2709,96.7303 L515.0029,96.7303 C515.4749,96.7303 515.9269,96.4683 516.2629,96.1283 C516.5919,95.7963 516.7799,95.2663 516.7799,94.7983 C516.7649,89.6443 516.5679,85.7743 516.1999,83.2393 C515.3139,78.0443 513.6529,72.9303 511.2619,68.0583 C508.8689,63.1713 505.6529,58.9333 501.7099,55.4663 C497.7759,52.0103 493.1169,49.3153 487.8659,47.4553 C482.6279,45.6073 476.7499,44.6643 470.3889,44.6643 C460.4039,44.6643 451.3409,46.8513 443.4349,51.1493 C435.5219,55.4623 429.2469,61.5083 424.7849,69.1313 C420.3169,76.7493 418.0519,85.2703 418.0519,94.4603 C418.0519,108.4273 423.0969,120.4993 433.0409,130.3563 C442.9829,140.2053 455.3919,145.1943 469.9209,145.1943 C478.9489,145.1943 487.4839,143.2433 495.2789,139.3893 C502.8619,135.6513 510.4139,129.5743 517.7059,121.3523 C518.3319,120.6523 518.3019,119.6163 517.6409,118.9563 L505.9339,107.1913 Z" id="Fill-9" fill="#231F20"></path>
            <path d="M408.8809,46.73 L364.0699,46.73 C363.0909,46.73 362.3049,47.728 362.3049,48.705 L362.3049,65.156 C362.3049,66.138 363.0909,66.73 364.0699,66.73 L365.8519,66.73 C369.0509,66.73 369.3979,67.001 370.4059,67.499 C371.4099,67.983 371.8779,68.727 371.8779,69.628 C371.8779,70.232 371.6559,71.459 370.6129,73.92 L356.1729,108.628 L342.3289,73.9 C341.3699,71.547 341.1679,70.361 341.1679,69.796 C341.1679,68.916 341.6229,68.175 342.5619,67.581 C342.7419,67.469 342.8859,67.304 343.0829,67.132 C343.1809,67.078 343.8509,66.73 347.1929,66.73 L349.3309,66.73 C350.3099,66.73 351.3049,66.138 351.3049,65.156 L351.3049,48.705 C351.3049,47.728 350.3099,46.73 349.3309,46.73 L295.0069,46.73 C294.0269,46.73 293.3049,47.728 293.3049,48.705 L293.3049,65.156 C293.3049,66.133 294.0589,66.921 295.0389,66.926 C299.3669,66.948 300.4429,67.16 300.7189,67.255 C300.7749,67.275 300.8359,67.286 300.8949,67.3 C301.8009,67.497 302.7039,67.988 303.4949,68.734 C304.6039,69.792 305.5269,71.046 306.2279,72.492 L338.2019,141.798 C338.4949,142.427 339.1189,142.73 339.8179,142.73 L364.0669,142.73 C364.7629,142.73 365.3819,142.421 365.6689,141.787 L396.2839,74.648 C397.4319,72.235 398.5509,70.437 399.6459,69.304 C400.7129,68.209 401.6339,67.544 402.5309,67.282 C402.9279,67.171 404.2539,67.025 408.7379,66.945 C409.7089,66.924 410.3049,66.138 410.3049,65.171 L410.3049,48.705 C410.3049,47.728 409.8599,46.73 408.8809,46.73" id="Fill-11" fill="#231F20"></path>
        </g>
    </g>
</svg>