<svg id="Layer_1" data-name="Layer 1" xmlns="http://www.w3.org/2000/svg" viewBox="0 0 64 64"><defs><style>.cls-1{fill:#91cee7;opacity:0.2;}.cls-2,.cls-3{fill:none;stroke-linecap:round;stroke-width:2.27px;}.cls-2{stroke:#3e4c70;stroke-linejoin:round;}.cls-3{stroke:#ce2027;stroke-miterlimit:10;}</style></defs><title>zbx</title><path class="cls-1" d="M36.72,13.39a16.45,16.45,0,0,1,1.81,8c0,8.73-4.72,15.81-10.54,15.81a7.49,7.49,0,0,1-3.68-1c1.92,3.08,4.65,5,7.69,5,5.82,0,10.54-7.08,10.54-15.81C42.54,19.24,40.17,15.22,36.72,13.39Z"/><path class="cls-1" d="M49.07,43.15v3.94a5.29,5.29,0,0,1-5.27,5.27H12.17a5.19,5.19,0,0,1-1.25-.17,5.28,5.28,0,0,0,5.26,5.19H47.81a5.29,5.29,0,0,0,5.27-5.27V47.16Z"/><path class="cls-2" d="M40.95,35,53.41,47v5c0,2.9-3.11,5-6,5h-31c-2.9,0-6-2-6-5V48L23.28,35.16"/><path class="cls-2" d="M42.54,25.42c0,8.73-4.72,15.81-10.54,15.81S21.46,34.16,21.46,25.42,26.18,12.25,32,12.25,42.54,16.69,42.54,25.42Z"/><path class="cls-3" d="M46.44,29.05a4.86,4.86,0,1,0,0-9.72Z"/><path class="cls-3" d="M17.4,19.34a4.86,4.86,0,0,0,0,9.72Z"/><path class="cls-3" d="M16.77,19.08a15.42,15.42,0,0,1,30.27,0"/><polyline class="cls-3" points="46.4 29.05 46.39 33.01 44.39 35.03 35.57 35.03"/><circle class="cls-3" cx="32.31" cy="34.99" r="2.59"/></svg>