<?xml version="1.0" encoding="utf-8"?>
<!-- Generator: Adobe Illustrator 19.1.0, SVG Export Plug-In . SVG Version: 6.00 Build 0)  -->
<svg version="1.1" id="Layer_1" xmlns="http://www.w3.org/2000/svg" xmlns:xlink="http://www.w3.org/1999/xlink" x="0px" y="0px"
	 viewBox="0 0 400 400" enable-background="new 0 0 400 400" xml:space="preserve">
<metadata><?xpacket begin="﻿" id="W5M0MpCehiHzreSzNTczkc9d"?>
<x:xmpmeta xmlns:x="adobe:ns:meta/" x:xmptk="Adobe XMP Core 5.6-c067 79.157747, 2015/03/30-23:40:42        ">
   <rdf:RDF xmlns:rdf="http://www.w3.org/1999/02/22-rdf-syntax-ns#">
      <rdf:Description rdf:about=""/>
   </rdf:RDF>
</x:xmpmeta>
                                                                                                    
                                                                                                    
                                                                                                    
                                                                                                    
                                                                                                    
                                                                                                    
                                                                                                    
                                                                                                    
                                                                                                    
                                                                                                    
                                                                                                    
                                                                                                    
                                                                                                    
                                                                                                    
                                                                                                    
                                                                                                    
                                                                                                    
                                                                                                    
                                                                                                    
                                                                                                    
                           
<?xpacket end="w"?></metadata>
<path fill="#F7AB1D" d="M164.2,146.2c0,40.5,32.2,73.3,71.8,73.3c39.7,0,71.8-32.8,71.8-73.3S275.7,72.8,236,72.8
	C196.3,72.8,164.2,105.7,164.2,146.2z M365,134.5h-26.2c-6.1,0-11.2,5.1-11.2,11.4v0.5c0,6.3,5,11.4,11.2,11.4H365
	c6.2,0,11.2-5.1,11.2-11.4v-0.5C376.1,139.6,371.1,134.5,365,134.5z M306.3,22.4l-0.5-0.3c-5.3-3.1-12.2-1.3-15.3,4.2l-13.1,23.2
	c-3.1,5.4-1.2,12.5,4.1,15.6l0.5,0.3c5.3,3.1,12.2,1.3,15.3-4.2L310.4,38C313.5,32.5,311.6,25.5,306.3,22.4z M297.3,231.2
	c-3.1-5.4-9.9-7.3-15.3-4.2l-0.5,0.3c-5.3,3.1-7.2,10.2-4.1,15.6l13.1,23.2c3.1,5.4,9.9,7.3,15.3,4.2l0.5-0.3
	c5.3-3.1,7.2-10.2,4.1-15.6L297.3,231.2z M174.7,61.2c3.1,5.4,9.9,7.3,15.3,4.2l0.5-0.3c5.3-3.1,7.2-10.1,4.1-15.6l-13.1-23.2
	c-3.1-5.4-9.9-7.3-15.3-4.2l-0.5,0.3c-5.3,3.1-7.2,10.1-4.1,15.6L174.7,61.2z M353.4,201.9l-22.7-13.4c-5.3-3.1-12.2-1.3-15.3,4.2
	l-0.3,0.5c-3.1,5.4-1.2,12.4,4.1,15.6l22.7,13.4c5.3,3.1,12.2,1.3,15.3-4.2l0.3-0.5C360.6,212,358.7,205,353.4,201.9z M315.4,99.7
	c3.1,5.4,9.9,7.3,15.3,4.2l22.7-13.4c5.3-3.1,7.2-10.2,4.1-15.6l-0.3-0.5c-3.1-5.4-9.9-7.3-15.3-4.2l-22.7,13.4
	c-5.3,3.2-7.2,10.2-4.1,15.6L315.4,99.7z M235.7,52.7h0.5c6.1,0,11.2-5.1,11.2-11.4V14.5c0-6.3-5-11.4-11.2-11.4h-0.5
	c-6.1,0-11.2,5.1-11.2,11.4v26.8C224.6,47.6,229.6,52.7,235.7,52.7z M236.3,239.6h-0.5c-6.1,0-11.2,5.1-11.2,11.4v26.8
	c0,6.3,5,11.4,11.2,11.4h0.5c6.1,0,11.2-5.1,11.2-11.4V251C247.4,244.8,242.4,239.6,236.3,239.6z"/>
<path fill="#D7D8D8" d="M217.5,101.2c-5,0-9.8,0.7-14.4,1.9c-8.6-25.4-32-43.7-59.5-43.7c-33.7,0-61.2,27.4-63,61.8
	c-2.1-0.3-4.1-0.5-6.3-0.5c-26.2,0-47.4,22-47.4,49.2c0,27.2,21.2,49.2,47.4,49.2h143.2c31.4,0,56.9-26.4,56.9-59
	C274.4,127.6,248.9,101.2,217.5,101.2z"/>
<path fill="#F8AD1D" d="M136.4,292.6l-44.1,1.2l28.6-55.9c0.5-0.9,0.4-1.9-0.3-2.8c-0.6-0.8-1.7-1.3-2.9-1.4L69.4,233
	c-1.4,0.1-2.9,0.8-3.3,2l-36.8,91.6c-0.4,0.9-0.2,1.9,0.5,2.7c0.7,0.8,1.7,1.2,2.8,1.2h0l43.7-0.3l-18,59.1c-0.4,1.4,0.4,2.8,2,3.4
	l1.4,0.3c1.1,0,2.2-0.5,2.9-1.3l74.8-94.5c0.7-0.9,0.8-2.1,0.1-3.1C138.9,293.1,137.7,292.5,136.4,292.6z"/>
<path fill="#328BCB" d="M150.8,234.2c0,0,40.2,19.7,46.8,23.8c6.6,4.1,9.1,6,12.3,10.8c10.2,14.9,6.3,35.1-8.7,45.2
	c-15,10.1-35.4,6.2-45.5-8.6c-3.3-4.8-3.9-7.5-5.6-15.7c-1.7-8.2-4.5-52-4.5-52C145.3,234.1,147.6,232.6,150.8,234.2z"/>
</svg>
